<svg class="animated" id="freepik_stories-business-failure" xmlns="http://www.w3.org/2000/svg" viewBox="0 0 500 500" version="1.1" xmlns:xlink="http://www.w3.org/1999/xlink" xmlns:svgjs="http://svgjs.com/svgjs"><style>svg#freepik_stories-business-failure:not(.animated) .animable {opacity: 0;}svg#freepik_stories-business-failure.animated #freepik--Bars--inject-356 {animation: 1s 1 forwards linear slideUp;animation-delay: 0s;}svg#freepik_stories-business-failure.animated #freepik--Sheets--inject-356 {animation: 1.5s Infinite  linear floating;animation-delay: 0s;}            @keyframes slideUp {                0% {                    opacity: 0;                    transform: translateY(30px);                }                100% {                    opacity: 1;                    transform: inherit;                }            }                    @keyframes floating {                0% {                    opacity: 1;                    transform: translateY(0px);                }                50% {                    transform: translateY(-10px);                }                100% {                    opacity: 1;                    transform: translateY(0px);                }            }        </style><g id="freepik--background-complete--inject-356" class="animable" style="transform-origin: 237.045px 210.085px;"><polygon points="424.6 312.42 109.54 60.67 129.05 36.41 444.11 288.16 424.6 312.42" style="fill: rgb(245, 245, 245); transform-origin: 276.825px 174.415px;" id="eltr7e85rp34m" class="animable"></polygon><polygon points="430.13 296.89 447.01 275.9 450.13 295.69 453.25 315.49 433.25 316.68 413.24 317.88 430.13 296.89" style="fill: rgb(245, 245, 245); transform-origin: 433.245px 296.89px;" id="eldq3co7rvdp" class="animable"></polygon><g id="elv0e2cgu65ir"><rect x="206.39" y="73.85" width="94.83" height="27.58" style="fill: rgb(245, 245, 245); transform-origin: 253.805px 87.64px; transform: rotate(38.81deg);" class="animable"></rect></g><polygon points="287 114.35 301.97 95.75 304.73 113.29 307.49 130.83 289.77 131.89 272.04 132.95 287 114.35" style="fill: rgb(245, 245, 245); transform-origin: 289.765px 114.35px;" id="elvu0vun8koso" class="animable"></polygon><path d="M120.73,277.19c12.55-12.93,26.6-20,44.55-21.56-4.24-6.6-11.77-19.48-16-26.08-22.55.12-40.08,12.84-51.93,31.8C105.67,267.36,112.39,271.18,120.73,277.19Z" style="fill: rgb(224, 224, 224); transform-origin: 131.315px 253.37px;" id="elwtl2bp2o10q" class="animable"></path><path d="M44.23,152.34c12.55-12.93,26.6-20,44.55-21.56-4.24-6.61-11.77-19.48-16-26.09-22.56.12-40.08,12.84-51.94,31.8C29.17,142.5,35.89,146.33,44.23,152.34Z" style="fill: rgb(224, 224, 224); transform-origin: 54.81px 128.515px;" id="el6crj7zl56pr" class="animable"></path><path d="M299.53,383.76c12.54-12.93,26.6-20,44.55-21.56-4.24-6.6-11.77-19.47-16-26.08-22.56.12-40.08,12.84-51.94,31.8C284.47,373.93,291.19,377.76,299.53,383.76Z" style="fill: rgb(224, 224, 224); transform-origin: 310.11px 359.94px;" id="elybn8tdnq83" class="animable"></path><path d="M24.74,310.06c1,7.83,7,14.3,14,18s14.92,5,22.68,6.47,15.69,3,22.47,7.07l13.46-37.42s-16.6-7.68-33.77-7c-13.9.55-24.94-17.86-24.94-17.86Z" style="fill: rgb(224, 224, 224); transform-origin: 61.045px 310.46px;" id="ele5zy0zhjlnh" class="animable"></path></g><g id="freepik--Floor--inject-356" class="animable" style="transform-origin: 250px 470.265px;"><path d="M479.17,470.27c0,.15-102.61.26-229.16.26s-229.18-.11-229.18-.26S123.42,470,250,470,479.17,470.13,479.17,470.27Z" style="fill: rgb(38, 50, 56); transform-origin: 250px 470.265px;" id="el23d7ou00l4k" class="animable"></path></g><g id="freepik--Bars--inject-356" class="animable" style="transform-origin: 237.645px 283.655px;"><rect x="250.68" y="274.66" width="61.43" height="195.61" style="fill: rgb(235, 94, 255); transform-origin: 281.395px 372.465px;" id="el24bu91mqzgm" class="animable"></rect><g id="elh469ru73qv5"><g style="opacity: 0.3; transform-origin: 302.58px 372.465px;" class="animable"><rect x="293.06" y="274.66" width="19.04" height="195.61" id="el38dslg8invg" class="animable" style="transform-origin: 302.58px 372.465px;"></rect></g></g><path d="M293.06,470.27c-.14,0-.26-43.29-.26-96.69s.12-96.71.26-96.71.27,43.29.27,96.71S293.21,470.27,293.06,470.27Z" style="fill: rgb(38, 50, 56); transform-origin: 293.065px 373.57px;" id="elik4dzx06f2d" class="animable"></path><rect x="160.84" y="180.26" width="61.43" height="290.22" style="fill: rgb(235, 94, 255); transform-origin: 191.555px 325.37px;" id="elj0hcqof1s5b" class="animable"></rect><g id="eld1n6ylmhsvd"><g style="opacity: 0.3; transform-origin: 212.75px 325.37px;" class="animable"><rect x="203.23" y="180.26" width="19.04" height="290.22" id="eljhjnj711la9" class="animable" style="transform-origin: 212.75px 325.37px;"></rect></g></g><path d="M203.23,470.48c-.15,0-.26-64.24-.26-143.47s.11-143.48.26-143.48.26,64.23.26,143.48S203.37,470.48,203.23,470.48Z" style="fill: rgb(38, 50, 56); transform-origin: 203.23px 327.005px;" id="el0r3ekigbl76b" class="animable"></path><rect x="349.66" y="387.85" width="61.43" height="82.39" style="fill: rgb(235, 94, 255); transform-origin: 380.375px 429.045px;" id="elpz34337wqt" class="animable"></rect><g id="elrdg1r4leutl"><g style="opacity: 0.3; transform-origin: 401.57px 429.045px;" class="animable"><rect x="392.05" y="387.85" width="19.04" height="82.39" id="elvrmyeqp21og" class="animable" style="transform-origin: 401.57px 429.045px;"></rect></g></g><path d="M392.05,470.24c-.15,0-.26-18.24-.26-40.73s.11-40.73.26-40.73.26,18.24.26,40.73S392.19,470.24,392.05,470.24Z" style="fill: rgb(38, 50, 56); transform-origin: 392.05px 429.51px;" id="el5yi4cp70viq" class="animable"></path><rect x="64.2" y="95.75" width="61.43" height="374.29" style="fill: rgb(235, 94, 255); transform-origin: 94.915px 282.895px;" id="elewby3jeevoo" class="animable"></rect><g id="el9rk8w6srnyi"><g style="opacity: 0.3; transform-origin: 116.11px 282.895px;" class="animable"><rect x="106.59" y="95.75" width="19.04" height="374.29" id="el56f8zsu54au" class="animable" style="transform-origin: 116.11px 282.895px;"></rect></g></g><path d="M106.59,471.56c-.14,0-.26-83.19-.26-185.78s.12-185.81.26-185.81.26,83.18.26,185.81S106.74,471.56,106.59,471.56Z" style="fill: rgb(38, 50, 56); transform-origin: 106.59px 285.765px;" id="eltc4jyoah84l" class="animable"></path></g><g id="freepik--Sheets--inject-356" class="animable animator-active" style="transform-origin: 177.715px 323.335px;"><path d="M148.81,407.58c12.54-12.93,26.6-20,44.55-21.56-4.24-6.6-11.78-19.47-16-26.08-22.56.12-40.09,12.84-51.94,31.8C133.75,397.75,140.47,401.58,148.81,407.58Z" style="fill: rgb(224, 224, 224); transform-origin: 159.39px 383.76px;" id="elwr537g0g5m" class="animable"></path><path d="M148.81,407.58a1.86,1.86,0,0,1-.41-.25l-1.23-.83-4.67-3.13c-4.06-2.72-10.11-6.38-17.23-11.44l-.17-.13.11-.18a94.56,94.56,0,0,1,7.28-10,71.1,71.1,0,0,1,10.14-9.77A58.48,58.48,0,0,1,156,364a54.87,54.87,0,0,1,16-4,22.28,22.28,0,0,1,2.7-.19l2.67-.11h.17l.1.15c5.83,9.23,11,18.21,16,26.1l.25.4-.47,0a70.25,70.25,0,0,0-19.88,4.54,65.24,65.24,0,0,0-14,7.63,83.12,83.12,0,0,0-8,6.57c-.87.81-1.54,1.45-2,1.91l-.51.48-.17.14a1.05,1.05,0,0,1,.16-.19l.5-.52c.44-.45,1.05-1.12,1.91-1.95a77.09,77.09,0,0,1,8-6.72,64.13,64.13,0,0,1,14-7.79,70,70,0,0,1,20-4.67l-.21.44c-5.05-7.89-10.21-16.86-16-26.07l.27.15-2.65.1a24,24,0,0,0-2.67.2,54.42,54.42,0,0,0-15.84,4,58.33,58.33,0,0,0-13.2,7.75,71.22,71.22,0,0,0-10.1,9.66,94.15,94.15,0,0,0-7.28,9.93l-.06-.31c7.06,5.1,13.07,8.82,17.09,11.6,2,1.38,3.56,2.48,4.61,3.24l1.15.87C148.67,407.46,148.8,407.57,148.81,407.58Z" style="fill: rgb(38, 50, 56); transform-origin: 159.495px 383.66px;" id="elu1fsjzyppj9" class="animable"></path><path d="M135.77,386.84c.11-.14,3.75,2.46,8.14,5.8s7.86,6.16,7.75,6.3-3.75-2.46-8.13-5.8S135.67,387,135.77,386.84Z" style="fill: rgb(38, 50, 56); transform-origin: 143.715px 392.89px;" id="elzu8q4xaaxpc" class="animable"></path><path d="M140.39,381c.12-.13,3.52,2.78,7.59,6.5s7.28,6.83,7.17,7-3.52-2.78-7.59-6.5S140.27,381.12,140.39,381Z" style="fill: rgb(38, 50, 56); transform-origin: 147.77px 387.751px;" id="elf1hrkfsvur" class="animable"></path><path d="M147.28,375.51a14.4,14.4,0,0,1,2,2.06c1.21,1.32,2.89,3.12,4.78,5.09s3.56,3.8,4.7,5.19a12.07,12.07,0,0,1,1.72,2.35,14.29,14.29,0,0,1-2.05-2.05l-4.83-5c-1.89-2-3.53-3.84-4.66-5.24A12.4,12.4,0,0,1,147.28,375.51Z" style="fill: rgb(38, 50, 56); transform-origin: 153.88px 382.855px;" id="elpozjb1ual0r" class="animable"></path><path d="M166.36,388.08a11.23,11.23,0,0,1-2-2.1c-1.14-1.38-2.63-3.35-4.15-5.62s-2.78-4.38-3.67-5.91a13.57,13.57,0,0,1-1.35-2.56c.17-.11,2.56,3.6,5.55,8.12,1.5,2.26,2.92,4.26,4,5.69A16.79,16.79,0,0,1,166.36,388.08Z" style="fill: rgb(38, 50, 56); transform-origin: 160.775px 379.984px;" id="elaizspd10c6q" class="animable"></path><path d="M171.78,385.81a9.93,9.93,0,0,1-1.64-2.09c-.93-1.34-2.15-3.25-3.37-5.43s-2.22-4.22-2.88-5.72a10.6,10.6,0,0,1-.92-2.49c.17-.08,1.91,3.57,4.35,7.9S171.93,385.71,171.78,385.81Z" style="fill: rgb(38, 50, 56); transform-origin: 167.379px 377.944px;" id="elseczutcdwji" class="animable"></path><path d="M179,383.46a10.33,10.33,0,0,1-1.68-2.13c-1-1.36-2.24-3.28-3.56-5.46s-2.46-4.19-3.23-5.67a11.49,11.49,0,0,1-1.12-2.46A11.55,11.55,0,0,1,171,370l3.37,5.56,3.4,5.55A12.84,12.84,0,0,1,179,383.46Z" style="fill: rgb(38, 50, 56); transform-origin: 174.205px 375.6px;" id="ellroyytuxko" class="animable"></path><path d="M204.23,239.05c-10.66,14.82-23.7,24-41.45,28.22,5.23,6,14.68,17.77,19.91,23.76,22.59-3.46,38.27-18.81,47.34-39.57C220.78,246.68,213.48,243.84,204.23,239.05Z" style="fill: rgb(235, 235, 235); transform-origin: 196.405px 265.04px;" id="eli6davhwky7" class="animable"></path><path d="M204.23,239.05a3.93,3.93,0,0,1,.45.2l1.35.65,5.15,2.45c4.46,2.11,11.07,4.89,18.95,8.91l.2.1-.09.2a95.05,95.05,0,0,1-5.81,11.13,71.45,71.45,0,0,1-8.71,11.3,59.32,59.32,0,0,1-12.18,9.85,56.28,56.28,0,0,1-15.46,6.41c-.88.25-1.78.43-2.67.59l-2.67.5-.17,0-.11-.14c-7.22-8.38-13.71-16.62-19.9-23.78l-.3-.36.45-.11a71.25,71.25,0,0,0,19.25-7.5,65.24,65.24,0,0,0,12.87-9.72A85,85,0,0,0,201.9,242l1.73-2.22.45-.55.15-.18a1.61,1.61,0,0,1-.14.22l-.42.6c-.37.51-.89,1.28-1.63,2.24a77,77,0,0,1-7,7.9,64.59,64.59,0,0,1-12.87,9.89,71.06,71.06,0,0,1-19.36,7.65l.15-.47c6.23,7.16,12.73,15.39,19.94,23.75l-.29-.11,2.64-.5a24.08,24.08,0,0,0,2.65-.58,55.47,55.47,0,0,0,15.29-6.33,58.63,58.63,0,0,0,12.07-9.72A71.73,71.73,0,0,0,224,262.41a96,96,0,0,0,5.83-11l.11.3c-7.84-4.06-14.41-6.9-18.85-9.09-2.23-1.08-3.94-2-5.1-2.56l-1.29-.7A3.5,3.5,0,0,1,204.23,239.05Z" style="fill: rgb(38, 50, 56); transform-origin: 196.295px 265.195px;" id="el0nifsjfywdtm" class="animable"></path><path d="M220.37,257.91c-.09.15-4.12-1.91-9-4.61s-8.8-5-8.71-5.16,4.12,1.91,9,4.61S220.45,257.76,220.37,257.91Z" style="fill: rgb(38, 50, 56); transform-origin: 211.515px 253.025px;" id="elatv314q0dtl" class="animable"></path><path d="M216.61,264.46c-.1.14-3.94-2.27-8.57-5.39s-8.31-5.77-8.22-5.91,3.93,2.27,8.57,5.39S216.7,264.32,216.61,264.46Z" style="fill: rgb(38, 50, 56); transform-origin: 208.215px 258.81px;" id="eldz7az9ax4rl" class="animable"></path><path d="M210.51,271a16.54,16.54,0,0,1-2.34-1.78c-1.41-1.14-3.37-2.69-5.55-4.39s-4.13-3.28-5.48-4.5a12.56,12.56,0,0,1-2.07-2.1,16.23,16.23,0,0,1,2.36,1.76l5.58,4.35c2.19,1.7,4.11,3.32,5.45,4.55A12.06,12.06,0,0,1,210.51,271Z" style="fill: rgb(38, 50, 56); transform-origin: 202.79px 264.615px;" id="elz1ponf8tcy8" class="animable"></path><path d="M189.53,261.2a12.51,12.51,0,0,1,2.3,1.82c1.34,1.21,3.13,3,5,5s3.44,4,4.56,5.39a13.3,13.3,0,0,1,1.73,2.36c-.15.13-3.1-3.23-6.76-7.33-1.84-2-3.56-3.82-4.82-5.11A15.81,15.81,0,0,1,189.53,261.2Z" style="fill: rgb(38, 50, 56); transform-origin: 196.325px 268.487px;" id="elqw3u4yzarw" class="animable"></path><path d="M184.43,264.28a10.76,10.76,0,0,1,1.95,1.85c1.14,1.21,2.64,2.95,4.19,4.95s2.84,3.9,3.73,5.31a10.62,10.62,0,0,1,1.29,2.35c-.15.1-2.44-3.29-5.52-7.27S184.3,264.41,184.43,264.28Z" style="fill: rgb(38, 50, 56); transform-origin: 190.008px 271.511px;" id="elbbmj20ci9h" class="animable"></path><path d="M177.51,267.72a11,11,0,0,1,2,1.88c1.16,1.22,2.72,3,4.37,4.95s3.08,3.83,4.08,5.2a11.52,11.52,0,0,1,1.49,2.3,12.52,12.52,0,0,1-1.84-2c-1.24-1.48-2.65-3.19-4.21-5.07l-4.23-5.06A12.94,12.94,0,0,1,177.51,267.72Z" style="fill: rgb(38, 50, 56); transform-origin: 183.48px 274.885px;" id="el490p9f2it7q" class="animable"></path></g><g id="freepik--speech-bubble--inject-356" class="animable" style="transform-origin: 346.62px 147.394px;"><path d="M372.61,140.89c1.46,6.49,1,11.11-1.14,17.7-.35,1.1,5.16,9.69,5.16,9.69L365.77,167c-3.82,4.43-8.35,6.18-14.49,7.56a28.2,28.2,0,1,1,21.33-33.7Z" style="fill: rgb(255, 255, 255); transform-origin: 346.763px 147.046px;" id="elax7kywj9wap" class="animable"></path><path d="M338.91,119.56a4.58,4.58,0,0,0-.48.1L337,120c-.31.08-.65.16-1,.28l-1.2.45-1.4.54-1.53.76a27,27,0,0,0-7.09,5.19,28.81,28.81,0,0,0-6.34,9.74,29.13,29.13,0,0,0-1.71,14,30.45,30.45,0,0,0,.78,3.82c.19.63.32,1.28.56,1.91l.74,1.89a28.57,28.57,0,0,0,4.37,7.14,30.84,30.84,0,0,0,6.61,5.81,30.28,30.28,0,0,0,8.45,3.59,27,27,0,0,0,9.47.72,17.68,17.68,0,0,0,2.41-.33,19.63,19.63,0,0,0,2.4-.49,28.64,28.64,0,0,0,13.28-7.83l-.28.09L376.1,169l.63.1-.3-.56-5.18-9.74V159a28.6,28.6,0,0,0,2.52-13,25.75,25.75,0,0,0-1-6.16,19.12,19.12,0,0,0-.93-2.86l-.54-1.37c-.19-.45-.44-.87-.65-1.3A28.44,28.44,0,0,0,356.28,121a27.14,27.14,0,0,0-7.21-2l-1.57-.19-1.45,0-1.33,0c-.43,0-.83.06-1.2.09-.76.07-1.43.09-2,.19l-1.44.27-.88.18a1.48,1.48,0,0,0-.29.07l.31,0,.88-.13,1.44-.22c.57-.09,1.24-.09,2-.14a28.27,28.27,0,0,1,26.67,15.51c.21.43.45.84.63,1.28l.53,1.35a21,21,0,0,1,.9,2.81,25.4,25.4,0,0,1,.94,6,28,28,0,0,1-2.5,12.75l-.06.13.07.14c1.67,3.14,3.39,6.4,5.17,9.74l.32-.46-10.58-1.72-.16,0-.12.12a27.9,27.9,0,0,1-8.44,6,28.68,28.68,0,0,1-4.54,1.65,21.28,21.28,0,0,1-2.35.48,15.61,15.61,0,0,1-2.35.32,26.38,26.38,0,0,1-9.27-.7,29.49,29.49,0,0,1-8.27-3.49,30.08,30.08,0,0,1-6.48-5.68,28,28,0,0,1-4.31-7c-.24-.62-.49-1.24-.73-1.85s-.37-1.26-.56-1.88a29.22,29.22,0,0,1-.77-3.74A28.06,28.06,0,0,1,325,127.49a27.51,27.51,0,0,1,6.94-5.22l1.51-.78,1.38-.56,1.18-.48c.37-.13.72-.21,1-.31l1.38-.41A2.64,2.64,0,0,0,338.91,119.56Z" style="fill: rgb(38, 50, 56); transform-origin: 346.62px 147.394px;" id="elnnac5au2h5q" class="animable"></path><path d="M340.9,157.24l1.7-.85-.42-5.8a4.72,4.72,0,0,1,3.45-8.12l-.17-.42,3.09-5.07-.63-.18-.63-2.58-4.4.08-.54,2.6a10.63,10.63,0,0,0-2.64,1.15l-2.27-1.38-3.06,3.17,1.46,2.22a11.07,11.07,0,0,0-1,2.67l-2.59.64.08,4.4,2.61.54a10.91,10.91,0,0,0,1.14,2.63l-1.38,2.28,3.17,3.06,2.22-1.46C340.32,157,340.61,157.11,340.9,157.24Z" style="fill: rgb(38, 50, 56); transform-origin: 340.4px 146.25px;" id="elptugg2nqjkd" class="animable"></path><path d="M356.56,150l2.59-.63-.08-4.4-2.6-.55a10.57,10.57,0,0,0-1.15-2.63l1.38-2.27-3.17-3.06-2.22,1.46a7.8,7.8,0,0,0-.87-.43l-3,4.74.21.39c.94.14,1.09.52,1.82,1.23a4.72,4.72,0,0,1,.12,6.68c-1.63,1.69-3.69,2.22-5.55.92h0l.48,5.49-1.07,1c.26.08-.27-.07,0,0l.63,2.58,4.4-.07.55-2.61a10.91,10.91,0,0,0,2.63-1.14l2.27,1.38,3.06-3.17-1.46-2.23A10.3,10.3,0,0,0,356.56,150Z" style="fill: rgb(38, 50, 56); transform-origin: 351.26px 148.49px;" id="eltf2atpkq4f" class="animable"></path></g><g id="freepik--Character--inject-356" class="animable" style="transform-origin: 393.159px 310.848px;"><path d="M391.26,329.88c-2.82.53,23.56,52.93,23.56,52.93s4.71,23.29,5.62,34.57,10.86,39.15,10.86,39.15L455,454.36s-7.89-74.45-11.51-89-16.91-41.52-16.91-41.52l-12.75-27.28-17,.37Z" style="fill: rgb(38, 50, 56); transform-origin: 423.025px 376.545px;" id="elg5zgbib0pk" class="animable"></path><path d="M364.1,295.06c-.61.47-4.83,23.14-2.85,28.44L356,374.2s-10.41,19.31-13.12,22.95-20.34,39.11-20.34,39.11l23.31,17.08s31.16-49.75,36.71-59.1c8.72-14.67,19-69.66,19-69.66l1.34-27.3Z" style="fill: rgb(38, 50, 56); transform-origin: 362.72px 374.2px;" id="elg2t4milge6i" class="animable"></path><path d="M406.59,304.3s0,.27-.14.78-.27,1.28-.46,2.21c-.43,2-1,4.73-1.78,8.12-1.51,6.86-3.61,16.32-6,26.74s-4.83,19.79-6.64,26.54c-.91,3.38-1.66,6.11-2.2,8q-.39,1.36-.63,2.16a7.18,7.18,0,0,1-.24.74,4.42,4.42,0,0,1,.16-.77c.14-.54.33-1.26.56-2.18.5-1.94,1.21-4.67,2.08-8,1.74-6.78,4.07-16.16,6.52-26.58s4.58-19.82,6.17-26.69c.79-3.38,1.44-6.13,1.9-8.08.22-.92.4-1.65.53-2.19A4.8,4.8,0,0,1,406.59,304.3Z" style="fill: rgb(69, 90, 100); transform-origin: 397.545px 341.945px;" id="elcs17448tesr" class="animable"></path><path d="M450.08,439l.17,19.57s19.95,6.39,20.33,10l-37.92,1.7-1.53-30.48Z" style="fill: rgb(38, 50, 56); transform-origin: 450.855px 454.635px;" id="elzgilhiqpyb" class="animable"></path><path d="M438.45,457.48a1.57,1.57,0,0,0-1,1.82,1.49,1.49,0,0,0,1.79,1,1.63,1.63,0,0,0,1-1.93,1.54,1.54,0,0,0-2-.83" style="fill: rgb(224, 224, 224); transform-origin: 438.852px 458.886px;" id="eloiz8hcgc15d" class="animable"></path><path d="M432.66,470.31l0-3.08,36.37-.48s1.72.66,1.58,1.86Z" style="fill: rgb(69, 90, 100); transform-origin: 451.639px 468.53px;" id="elsry2sok1ft" class="animable"></path><path d="M450.86,458.38c0,.19-.92.31-1.81.95s-1.33,1.43-1.5,1.37.05-1.15,1.13-1.9S450.89,458.21,450.86,458.38Z" style="fill: rgb(255, 255, 255); transform-origin: 449.18px 459.471px;" id="elnxww1g704v" class="animable"></path><path d="M454.91,459.85c0,.17-.74.53-1.33,1.34s-.74,1.64-.92,1.64-.35-1,.4-2S454.9,459.67,454.91,459.85Z" style="fill: rgb(255, 255, 255); transform-origin: 453.708px 461.308px;" id="elyi3k4k29pn" class="animable"></path><path d="M457.38,464.51c-.16,0-.46-.87,0-1.91s1.27-1.47,1.36-1.32-.43.71-.77,1.57S457.57,464.48,457.38,464.51Z" style="fill: rgb(255, 255, 255); transform-origin: 457.943px 462.88px;" id="elr4n2ib4ev0p" class="animable"></path><path d="M347,439.41,336.8,455.78s13.56,15.36,12,18.56L315.7,456.68l14.76-26.13Z" style="fill: rgb(38, 50, 56); transform-origin: 332.312px 452.445px;" id="elxz57ux7wv4a" class="animable"></path><path d="M327.37,448.92a1.56,1.56,0,0,0-1.79,1,1.41,1.41,0,0,0,1,1.73,1.66,1.66,0,0,0,1.9-1.08,1.49,1.49,0,0,0-1.24-1.69" style="fill: rgb(224, 224, 224); transform-origin: 327.014px 450.282px;" id="el3zzvx3lnow9" class="animable"></path><path d="M315.7,456.68l1.6-2.58L348.42,472s1.11,1.41.37,2.34Z" style="fill: rgb(69, 90, 100); transform-origin: 332.372px 464.22px;" id="el3qn302u9gye" class="animable"></path><path d="M337.43,455.9c-.1.16-.94-.2-2-.11s-1.89.52-2,.38.65-.93,2-1S337.55,455.78,337.43,455.9Z" style="fill: rgb(255, 255, 255); transform-origin: 335.431px 455.681px;" id="eloxnqh71aot" class="animable"></path><path d="M340.1,459.16c-.05.18-.91.07-1.84.45s-1.49,1-1.65.91.25-1,1.42-1.49S340.18,459,340.1,459.16Z" style="fill: rgb(255, 255, 255); transform-origin: 338.341px 459.67px;" id="elgg44oo62fp" class="animable"></path><path d="M339.74,464.29c-.16-.05.06-1,1-1.61s1.87-.58,1.86-.41-.74.38-1.48.92S339.91,464.36,339.74,464.29Z" style="fill: rgb(255, 255, 255); transform-origin: 341.146px 463.23px;" id="elahdeizwfqf7" class="animable"></path><path d="M339.32,451.93c-.15.11-.76-.51-1.71-.93s-1.82-.53-1.83-.71,1-.38,2.11.14S339.47,451.85,339.32,451.93Z" style="fill: rgb(255, 255, 255); transform-origin: 337.564px 451.02px;" id="elg4rsl9xicu6" class="animable"></path><path d="M447.67,193.4s5.15,22.23,6.11,33.8c.27,3.2-.91,7.47-4.69,8-12.43,1.83-40.5-3.65-40.5-3.65L407.71,205l28.21,10.7-1.65-22.25Z" style="fill: rgb(224, 224, 224); transform-origin: 430.763px 214.487px;" id="elhjefl8w8orp" class="animable"></path><path d="M434,186.48a38.75,38.75,0,0,1-3.08-5,11.94,11.94,0,0,1-.59-4.75A28.57,28.57,0,0,1,426.8,172c-1.22-2.25,1-2.73,2.06-1.76s5.86,6.75,5.86,6.75l3.09,9.29Z" style="fill: rgb(255, 154, 108); transform-origin: 432.127px 178.122px;" id="ellanbr18n6ha" class="animable"></path><path d="M393.71,177.15a71.22,71.22,0,0,1,.87-12,24.5,24.5,0,0,1,4.74-11c.38-.48,3.33-3.53,3.89-3.28.39.18-1.81,3.21-1.73,3.64a20.72,20.72,0,0,1-1.67,12.19,54.23,54.23,0,0,1-6.1,10.46" style="fill: rgb(38, 50, 56); transform-origin: 398.481px 164.008px;" id="eljdtahnt761" class="animable"></path><path d="M407.94,205.53c.94-2.68,1.69-4.8,1.71-4.79s9.56,2.2,13.27-6.75c1.79-4.33,4.75-13.53,7.34-21.89A18.06,18.06,0,0,0,419.72,150l-.87-.35c-9.58-3.19-17.65,3.16-20.58,12.82l-11.33,33.47,3.87,9.94a9.12,9.12,0,0,0,17.13-.35Z" style="fill: rgb(255, 191, 157); transform-origin: 409.003px 180.258px;" id="ell6tbc0e65kc" class="animable"></path><path d="M409.65,200.74a23.47,23.47,0,0,1-10.33-8.15s.24,7.69,9.54,10.47Z" style="fill: rgb(255, 154, 108); transform-origin: 404.485px 197.825px;" id="elm4kf9lq56tg" class="animable"></path><path d="M424.34,179.05a1.4,1.4,0,0,1-1.76.8,1.33,1.33,0,0,1-.86-1.69,1.37,1.37,0,0,1,1.75-.8A1.33,1.33,0,0,1,424.34,179.05Z" style="fill: rgb(38, 50, 56); transform-origin: 423.03px 178.603px;" id="ele9nnb9vv8jw" class="animable"></path><path d="M426.85,175.06c-.23.1-.92-1-2.3-1.55s-2.67-.27-2.76-.5.24-.34.81-.48a3.75,3.75,0,0,1,2.29.18,3.69,3.69,0,0,1,1.75,1.45C426.93,174.66,427,175,426.85,175.06Z" style="fill: rgb(38, 50, 56); transform-origin: 424.351px 173.748px;" id="el3auo46n0d0y" class="animable"></path><path d="M412.39,174.86a1.38,1.38,0,0,1-1.75.81,1.33,1.33,0,0,1-.86-1.69,1.37,1.37,0,0,1,1.75-.8A1.31,1.31,0,0,1,412.39,174.86Z" style="fill: rgb(38, 50, 56); transform-origin: 411.086px 174.423px;" id="elirbfq2qgl2h" class="animable"></path><path d="M413.78,170.4c-.23.1-.91-1-2.3-1.55s-2.67-.27-2.75-.5.24-.34.81-.48a3.83,3.83,0,0,1,2.29.18,3.66,3.66,0,0,1,1.74,1.45C413.86,170,413.89,170.36,413.78,170.4Z" style="fill: rgb(38, 50, 56); transform-origin: 411.278px 169.089px;" id="elelvfoc2q8nq" class="animable"></path><path d="M413.79,182.81a9.77,9.77,0,0,1,2.41.49c.37.11.73.17.88-.05a1.94,1.94,0,0,0,.19-1.14c0-1,0-2,0-3.1.08-4.41.29-8,.47-8s.25,3.58.17,8c0,1.08-.06,2.11-.08,3.1a2.23,2.23,0,0,1-.37,1.46.94.94,0,0,1-.79.28,2.53,2.53,0,0,1-.63-.15A9.91,9.91,0,0,1,413.79,182.81Z" style="fill: rgb(38, 50, 56); transform-origin: 415.866px 177.433px;" id="eltil2ng60j7k" class="animable"></path><path d="M409.58,164.05c.2-.39,1.65,0,3.41,0s3.22-.28,3.4.11c.09.18-.21.53-.82.85a5.72,5.72,0,0,1-2.61.55,5.52,5.52,0,0,1-2.58-.64C409.78,164.59,409.5,164.23,409.58,164.05Z" style="fill: rgb(38, 50, 56); transform-origin: 412.986px 164.719px;" id="el1cjxise7bca" class="animable"></path><path d="M425.32,166c.42-.07.94.89,1.83,1.74s1.83,1.37,1.77,1.8c0,.2-.39.33-.95.26a3.66,3.66,0,0,1-2.89-2.85C425,166.35,425.12,166,425.32,166Z" style="fill: rgb(38, 50, 56); transform-origin: 426.989px 167.908px;" id="eletmskcd2u6j" class="animable"></path><path d="M396.34,169.43c-.12-.13-5.45-4.31-7.71,1.92s4.46,7.22,4.53,7.05S396.34,169.43,396.34,169.43Z" style="fill: rgb(255, 191, 157); transform-origin: 392.253px 173.177px;" id="elv5x7hs1f6z" class="animable"></path><path d="M392.12,175.34s-.14,0-.35.06a1.19,1.19,0,0,1-.82-.28,2.85,2.85,0,0,1-.37-2.86,3.83,3.83,0,0,1,.87-1.44,1.34,1.34,0,0,1,1.12-.54.58.58,0,0,1,.53.53c0,.2-.06.31,0,.34s.17-.06.21-.33a.74.74,0,0,0-.1-.48.87.87,0,0,0-.54-.38,1.63,1.63,0,0,0-1.49.55,4,4,0,0,0-1,1.6,3,3,0,0,0,.61,3.27,1.23,1.23,0,0,0,1.05.19C392.05,175.49,392.13,175.36,392.12,175.34Z" style="fill: rgb(255, 154, 108); transform-origin: 391.628px 172.777px;" id="elmlm2wb8mkso" class="animable"></path><path d="M429.88,160.31c1.21-.2-.67-4.54-2.76-6.55-3.15-3-8.52-6.11-12.33-6.35-4.58-.29-8.78.56-12.22,3.61a26.12,26.12,0,0,0-7.19,11.58,7.92,7.92,0,0,0-.47,4.13c.38,1.69,1.75,3.15,1,5a2.79,2.79,0,0,0,0,2.14c.71,1.62,2.52,1,3.56,0,2.24-2,3.43-4.83,4.54-7.59a19.52,19.52,0,0,0,1.71-6.08c.06-1.15-.09-2.31,0-3.46a4,4,0,0,1,1.55-3,3.6,3.6,0,0,1,.68-.33,6.92,6.92,0,0,1,6.91,1.05c3.07,2.49,8.43,6.47,10.42,5.83a10.25,10.25,0,0,0,3.8-1.85Z" style="fill: rgb(38, 50, 56); transform-origin: 412.54px 161.111px;" id="el9vlsuf1ytxr" class="animable"></path><path d="M412.84,245.84,411,209.37l-3.48-5.55c-3.17-3.17-19.15-13.76-19.15-13.76l-3.63,5.67s-9.07,5-13.38,13.6-5.21,27.66-5.89,33.11,3.4,46.7,3.17,48.52-1.27,10.24-1.27,10.24l21.22,2.3L416,302l2.43-4.69Z" style="fill: rgb(224, 224, 224); transform-origin: 391.912px 246.78px;" id="eld3pjuw6bjni" class="animable"></path><path d="M411.09,211.22a2.25,2.25,0,0,1,.07.48c0,.37,0,.82.09,1.36.08,1.27.19,3,.31,5,.27,4.32.64,10.15,1,16.6s.72,12.36.88,16.62c.09,2.13.13,3.85.15,5v1.37a.24.24,0,1,1-.11,0c0-.38-.06-.83-.09-1.37-.08-1.27-.19-3-.32-5-.27-4.33-.63-10.16-1-16.61s-.72-12.36-.89-16.62c-.08-2.12-.13-3.85-.14-5V211.7A1.61,1.61,0,0,1,411.09,211.22Z" style="fill: rgb(38, 50, 56); transform-origin: 412.407px 234.672px;" id="elmuqsruy411" class="animable"></path><g id="elkexmyl74ewj"><g style="opacity: 0.3; transform-origin: 391.79px 266.578px;" class="animable"><path d="M370,262.4s1.54,18.53,11,19.17c13.24.89,32.58-20.8,32.58-20.8l-.62-9.21-29.7,17.53Z" id="elvhk4c8ec6y8" class="animable" style="transform-origin: 391.79px 266.578px;"></path></g></g><path d="M373.85,214.5c-3.86,6.88-4.66,32.23-5.4,41.33-.78,9.73,3.93,21,11.57,21.59,13.37,1.07,40.69-33.24,40.69-33.24l-12.12-12.61-16.89,13s6.83-23.15,4.62-30.31" style="fill: rgb(224, 224, 224); transform-origin: 394.538px 245.852px;" id="el8izvfnjdk3h" class="animable"></path><path d="M396.32,214.22s.05.17.14.53a8.35,8.35,0,0,1,.27,1.58,30.42,30.42,0,0,1-.16,6.16,141.77,141.77,0,0,1-4.68,22.1l-.3-.21,16.86-13,.17-.13.14.15L420.89,244l.15.16-.13.17a214.71,214.71,0,0,1-17.77,19.4c-4.83,4.54-9.77,8.84-15.34,11.8a19.46,19.46,0,0,1-4.36,1.74,9.16,9.16,0,0,1-4.62.19,10.19,10.19,0,0,1-4-2.07,15.41,15.41,0,0,1-2.85-3.37,24.12,24.12,0,0,1-3.11-7.83,28.65,28.65,0,0,1-.61-7.93c.34-5.09.66-9.83.95-14.17a175.27,175.27,0,0,1,2.39-20.43,33.89,33.89,0,0,1,1.46-5.4,15.67,15.67,0,0,1,.83-1.77s-.06.16-.19.46-.35.74-.54,1.34a37.79,37.79,0,0,0-1.36,5.41,184.07,184.07,0,0,0-2.22,20.42c-.27,4.33-.57,9.08-.89,14.17a28.53,28.53,0,0,0,.63,7.8,23.58,23.58,0,0,0,3.06,7.67,14.78,14.78,0,0,0,2.77,3.25,9.53,9.53,0,0,0,3.82,2,8.74,8.74,0,0,0,4.39-.18,19.51,19.51,0,0,0,4.24-1.71c5.48-2.92,10.41-7.21,15.22-11.73A213.56,213.56,0,0,0,420.51,244l0,.33-12.1-12.63.3,0-16.91,12.93-.46.35.16-.56a146.05,146.05,0,0,0,4.84-22,32.59,32.59,0,0,0,.26-6.13,9.42,9.42,0,0,0-.22-1.58C396.34,214.4,396.32,214.22,396.32,214.22Z" style="fill: rgb(38, 50, 56); transform-origin: 394.617px 245.945px;" id="el6c487g4flwe" class="animable"></path><path d="M446.37,193.4l-5.65-20.06-2.91-8.62-5.37-6.27a3.55,3.55,0,0,0-.54,2.6,21.35,21.35,0,0,0,1.73,3.67l-4.9-4.21a2,2,0,0,0-.32,2.91,37,37,0,0,0,4.37,4.78c.2.15-7.17-2.83-7.17-2.83s-.89,1.71,2.19,3.44l3.92,2.31.69,1.52L427,170a2.08,2.08,0,0,0,.36,2.91,47.38,47.38,0,0,0,4.85,3l.75,2a74.31,74.31,0,0,0,1.09,8.9l1.93,2.8-.07,3.73Z" style="fill: rgb(255, 191, 157); transform-origin: 435.93px 175.925px;" id="elfzh5v5zeb3e" class="animable"></path><path d="M446.37,193.4s-.05,0-.16,0h-.51l-2,0-7.76.09h-.14v-.15c0-1.14,0-2.4,0-3.74l0,.1L433.92,187l0,0v0a66.87,66.87,0,0,1-1.12-8.93V178c-.23-.62-.5-1.31-.76-2l.1.11c-1.24-.68-2.5-1.42-3.76-2.25-.32-.21-.63-.42-.94-.66a2.63,2.63,0,0,1-.85-.9,2.4,2.4,0,0,1,.26-2.47l.11-.16.19.09,5.39,2.62-.34.33-.69-1.52.1.11-3.8-2.23a6.7,6.7,0,0,1-1.86-1.44,2.35,2.35,0,0,1-.55-2.41l.09-.22.24.1,6.76,2.69.29.11.07,0h-.06a.25.25,0,0,0-.2.1.27.27,0,0,0,0,.31c.1.1,0,0,.05,0h0l0,0-.14-.12-.47-.45-.92-.92c-.6-.62-1.19-1.25-1.74-1.9a8.6,8.6,0,0,1-1.5-2.15,2.13,2.13,0,0,1,0-1.39,2.3,2.3,0,0,1,.8-1.14l.15-.12.16.14,4.91,4.21-.38.32a24,24,0,0,1-1.56-3.13,3.29,3.29,0,0,1-.25-1.76,4.42,4.42,0,0,1,.63-1.65l.17-.26.21.24,5.35,6.28,0,0,0,0c.71,2.13,1.4,4.18,2.05,6.12.32,1,.66,1.91.93,2.85s.52,1.85.76,2.74l2.51,9.16c.67,2.5,1.2,4.47,1.58,5.85l.4,1.53a4.08,4.08,0,0,1,.12.5,4.29,4.29,0,0,1-.17-.54l-.47-1.56c-.4-1.38-1-3.35-1.71-5.85l-2.62-9c-.25-.87-.5-1.77-.77-2.69s-.63-1.87-.95-2.84l-2.09-6.1.05.07-5.38-6.25.38,0a3.07,3.07,0,0,0-.32,3,24.71,24.71,0,0,0,1.53,3l.72,1.26-1.1-.94-4.91-4.2h.32a1.7,1.7,0,0,0-.58,1.94,8.45,8.45,0,0,0,1.4,2c.55.64,1.13,1.26,1.72,1.88l.91.91.46.44.11.1h0l0,.06c-.05,0,.1-.14.09,0,.15.28,0,.42-.2.43s-.06,0-.1,0l-.09,0-.31-.11-6.77-2.7.33-.12a1.88,1.88,0,0,0,.48,1.84,6.26,6.26,0,0,0,1.72,1.32l3.8,2.25.07,0,0,.07c.23.53.47,1.05.69,1.52l.28.63-.62-.3-5.38-2.64.3-.07a2,2,0,0,0-.24,2,2.23,2.23,0,0,0,.72.75c.29.23.6.44.91.65,1.24.82,2.5,1.56,3.72,2.25l.07,0,0,.07.75,2V178a67.26,67.26,0,0,0,1.06,8.87l0-.06,1.92,2.81,0,.05v0c0,1.34-.07,2.6-.09,3.74l-.15-.15,7.66.09,2.05,0h.73Z" style="fill: rgb(255, 154, 108); transform-origin: 435.842px 175.74px;" id="eloguvd2holuj" class="animable"></path><path d="M431.88,172.38c0-.07.42-.11,1,.15a3.07,3.07,0,0,1,.94.65c.29.29.59.63.89,1a12.37,12.37,0,0,1,1.93,2.79c-.14.12-1.16-1-2.33-2.46a7.35,7.35,0,0,0-1.6-1.64C432.24,172.55,431.87,172.45,431.88,172.38Z" style="fill: rgb(255, 154, 108); transform-origin: 434.26px 174.653px;" id="eld0dmxyh64wc" class="animable"></path><path d="M432.41,168.08c0-.07.52,0,1.29.27a3.92,3.92,0,0,1,.63.25,1.48,1.48,0,0,1,.65.55,15.56,15.56,0,0,1,.95,1.47,17.28,17.28,0,0,1,2,4,22.61,22.61,0,0,1-2.42-3.74c-.31-.53-.61-1-.89-1.46a1,1,0,0,0-.46-.45,6.14,6.14,0,0,0-.57-.29C432.84,168.35,432.38,168.15,432.41,168.08Z" style="fill: rgb(255, 154, 108); transform-origin: 435.169px 171.337px;" id="elg6122kt3br" class="animable"></path><path d="M433.63,164.72c0-.05.52.21,1.19.77a4.52,4.52,0,0,1,1,1.18c.3.49.6,1,.91,1.62a19.76,19.76,0,0,1,1.9,4.36,24.17,24.17,0,0,1-2.37-4.11l-.85-1.63a4.94,4.94,0,0,0-.87-1.15C434,165.14,433.59,164.78,433.63,164.72Z" style="fill: rgb(255, 154, 108); transform-origin: 436.129px 168.682px;" id="ell8cjtb9k3mq" class="animable"></path><path d="M401.9,211.79a1.88,1.88,0,0,1,1,.8c1.08,1.64,4.78,7.21,5.13,7s4.1-5.91,5.29-5.91a2.88,2.88,0,0,1,2.66,1.81c.14.85.85,3.66,0,4.22s-1.4-.63-1.4-.63l-.46,2.34s2.28-1.5,3.27-1.08a2,2,0,0,1,.91,2.24c-.14.42.56,7.35.42,10.64a19.65,19.65,0,0,1-2,6.85l-11.62-5.6-1.07-2.9s-1.32-2.83-1.46-3.32-6-12.88-6.29-14a1.23,1.23,0,0,1,2.15-1c1.12,1.12,5.14,7.2,5.14,7.2l-3.52-7.22S400.41,211.32,401.9,211.79Z" style="fill: rgb(255, 191, 157); transform-origin: 407.501px 225.893px;" id="el0roqpopkkh4" class="animable"></path><path d="M416.77,240.11h0l-11.63-5.61h0l-1.07-2.9c-.05-.12-1.33-2.84-1.46-3.32-.06-.19-.91-2-2-4.38-1.74-3.77-4.12-8.94-4.3-9.66a1.24,1.24,0,0,1,2.18-1c1,1,4.1,5.64,4.94,6.9l-3.36-6.89h0a2.23,2.23,0,0,1,.8-1.34,1.26,1.26,0,0,1,1.05-.09h0a1.9,1.9,0,0,1,1,.82c2.82,4.27,4.79,7,5.08,7h0a12.65,12.65,0,0,0,1.14-1.43c1.32-1.79,3.33-4.48,4.16-4.48a2.94,2.94,0,0,1,2.69,1.82q0,.2.09.48c.22,1.14.63,3.28-.1,3.77a.78.78,0,0,1-.65.13,1.45,1.45,0,0,1-.75-.71l-.44,2.21a6.94,6.94,0,0,1,2.81-1.12,1.18,1.18,0,0,1,.43.07,2.09,2.09,0,0,1,.92,2.28,27.49,27.49,0,0,0,.13,3c.16,2.38.37,5.64.29,7.59a19.77,19.77,0,0,1-2,6.86Zm-11.61-5.65L416.75,240a19.63,19.63,0,0,0,1.94-6.82c.08-1.95-.13-5.21-.29-7.58a25.66,25.66,0,0,1-.13-3.07,2,2,0,0,0-.89-2.21,1.07,1.07,0,0,0-.41-.07,7.25,7.25,0,0,0-2.84,1.15l-.05,0,.49-2.47,0,.07s.29.61.75.74a.76.76,0,0,0,.61-.12c.71-.48.3-2.59.08-3.72,0-.19-.07-.36-.09-.48a2.88,2.88,0,0,0-2.64-1.78c-.81,0-2.88,2.79-4.12,4.46a13.28,13.28,0,0,1-1.16,1.45h0c-.11,0-.48-.27-2.28-2.83-1.08-1.53-2.24-3.29-2.84-4.2a1.9,1.9,0,0,0-1-.79h0a1.18,1.18,0,0,0-1,.08,2.14,2.14,0,0,0-.78,1.3l3.52,7.21,0,0c0-.06-4-6.1-5.14-7.2a1.2,1.2,0,0,0-1.49-.3,1.23,1.23,0,0,0-.62,1.28c.19.71,2.57,5.88,4.31,9.65,1.08,2.34,1.93,4.2,2,4.38.14.49,1.45,3.29,1.47,3.32Z" style="fill: rgb(255, 154, 108); transform-origin: 407.515px 225.882px;" id="elx0rxpyqvcal" class="animable"></path><path d="M402.41,205.86c-2.61-1.63-25.06-10.85-25.71-11.45s-9.53,6.89-16.22,16.19-32.19,59.17-34.86,74.13l4.4,3.47-7.22,22.55L345,320.37l23.69,10L368.6,292c-.58-10-4.08-60.69-.27-66.7,0,0,7.32-8,15.81-10.15a67.89,67.89,0,0,1,15.95-2l5.05,0S405,207.5,402.41,205.86Z" style="fill: rgb(235, 94, 255); transform-origin: 363.97px 262.373px;" id="el3vdoiybmtn3" class="animable"></path><path d="M381,255.83a7.28,7.28,0,0,1,.67-2.39,15.9,15.9,0,0,1,8.26-8.4,7,7,0,0,1,2.37-.71c0,.09-.87.37-2.22,1a18.37,18.37,0,0,0-4.72,3.44,18.1,18.1,0,0,0-3.35,4.78C381.36,254.94,381.1,255.85,381,255.83Z" style="fill: rgb(38, 50, 56); transform-origin: 386.65px 250.08px;" id="elqjg6gv2i3v" class="animable"></path><path d="M329.79,288.92a.8.8,0,0,1,.06-.25c.06-.19.13-.43.23-.72.22-.67.53-1.59.91-2.75.82-2.38,2-5.82,3.53-10.06,3.05-8.46,7.43-20.11,13.12-32.62,2.87-6.24,5.82-12.1,8.7-17.31a157.84,157.84,0,0,1,8.36-13.43l1.85-2.63,1.76-2.26,1.53-2c.48-.6,1-1.11,1.38-1.59l1.93-2.16.51-.55.19-.18a1.52,1.52,0,0,1-.15.21l-.47.59-1.86,2.22c-.4.49-.87,1-1.33,1.61l-1.5,2-1.72,2.28c-.58.83-1.18,1.72-1.82,2.64-2.58,3.68-5.32,8.28-8.24,13.45s-5.78,11.06-8.65,17.29c-5.67,12.49-10.11,24.11-13.24,32.54l-3.68,10c-.43,1.15-.77,2.05-1,2.71-.12.29-.21.52-.28.71A.88.88,0,0,1,329.79,288.92Z" style="fill: rgb(38, 50, 56); transform-origin: 351.82px 244.665px;" id="ell75trv76b2c" class="animable"></path><path d="M365.38,266.53a.89.89,0,0,1,0-.23c0-.19,0-.41,0-.69q-.06-1-.15-2.64c-.12-2.3-.28-5.62-.43-9.72s-.32-9-.42-14.43c0-2.71-.09-5.57-.05-8.52,0-1.48,0-3,.14-4.52a9.88,9.88,0,0,1,.35-2.33,5.84,5.84,0,0,1,.49-1.11c.19-.35.38-.7.6-1a42.41,42.41,0,0,1,3.12-4.15c1.09-1.31,2.2-2.55,3.3-3.76,2.21-2.41,4.39-4.65,6.5-6.71l.1-.1.14,0a34.55,34.55,0,0,1,3.32,1.27,1.57,1.57,0,0,1,.21.12.33.33,0,0,1,.15.16l0,0s0-.07-.05-.09a.26.26,0,0,0-.2,0c-.13.06-.09.06-.11.06s0,0,0,0a3,3,0,0,0,.1-.38l.17-.81c.1-.54.2-1.07.29-1.6l0-.19.19,0,13.8,1.42,3.83.42,1,.13a1.14,1.14,0,0,1,.34.07h-.34l-1-.07-3.83-.31-13.84-1.24.23-.18c-.09.53-.18,1.07-.28,1.61-.05.28-.11.55-.16.83s-.06.27-.12.44a.67.67,0,0,1-.06.11s0,0-.12.08a.22.22,0,0,1-.22-.05l-.05-.06v0c.07,0-.18,0,.16-.08h0l-.07,0c-.13.07-.08.07-.07.08s0,0,0,0l-.16-.08a34.74,34.74,0,0,0-3.27-1.22l.23-.06c-2.08,2.06-4.25,4.31-6.44,6.71-1.09,1.21-2.21,2.45-3.28,3.75a41.77,41.77,0,0,0-3.08,4.1,11.1,11.1,0,0,0-.58,1,5.38,5.38,0,0,0-.45,1,9.6,9.6,0,0,0-.33,2.21c-.11,1.51-.13,3-.15,4.49,0,2.95,0,5.8,0,8.51.07,5.43.2,10.32.31,14.43s.2,7.38.26,9.72c0,1.11,0,2,.05,2.65,0,.27,0,.5,0,.68A1.1,1.1,0,0,1,365.38,266.53Z" style="fill: rgb(38, 50, 56); transform-origin: 383.215px 235.845px;" id="el6wn5gwxytad" class="animable"></path><path d="M364,298.45c-.14,0-3.2-9.65-6.85-21.64s-6.49-21.76-6.35-21.8,3.21,9.65,6.85,21.64S364.12,298.4,364,298.45Z" style="fill: rgb(38, 50, 56); transform-origin: 357.399px 276.73px;" id="el1yfbh4xi2rd" class="animable"></path><path d="M336.1,293.46s.5.2,1.34.57l3.55,1.56c3,1.33,7.17,3.18,11.94,5.38l-.31.08,4-5.36.58-.79.12.4c-6.31-2.42-12-4.62-16-6.21l.18,0c-1.61,1.36-2.94,2.44-3.88,3.2l-1.09.89a4,4,0,0,1-.42.31s.09-.1.32-.31l1-.91c.88-.8,2.19-2,3.85-3.46l.08-.07.1,0c4.05,1.5,9.72,3.65,16,6.07l.32.12-.2.27L357,296c-1.38,1.87-2.72,3.67-4,5.35l-.12.16-.19-.08c-4.88-2.28-9.08-4.29-12-5.71l-3.43-1.66A10.61,10.61,0,0,1,336.1,293.46Z" style="fill: rgb(38, 50, 56); transform-origin: 346.94px 295.125px;" id="el0qc2jg2ylck" class="animable"></path><g id="elkyqmci85k2"><g style="opacity: 0.3; transform-origin: 356.692px 274.66px;" class="animable"><path d="M349.15,249.69c-.89,9.11-1.46,18.44,1.15,27.22s7.54,17,14.68,22.72Z" id="el3yqbcd04mc7" class="animable" style="transform-origin: 356.692px 274.66px;"></path></g></g><g id="elqeaopr5kww"><g style="opacity: 0.3; transform-origin: 379.485px 224.585px;" class="animable"><path d="M364.67,245.08c-2.21-6.29-4.45-13-2.91-19.51s6.63-11.57,11.49-16.22a12.74,12.74,0,0,1,3.52-2.65A4.26,4.26,0,0,1,381,207l0-2.91a55.27,55.27,0,0,1,16.72,2.87l-14.6-1.51-.61,2.87-3.57-1.43s-14.46,13.92-14.22,18S364.67,245.08,364.67,245.08Z" id="elzbxg354rhg" class="animable" style="transform-origin: 379.485px 224.585px;"></path></g></g><g id="el6vgrtd8doln"><g style="opacity: 0.3; transform-origin: 346.935px 299.55px;" class="animable"><polygon points="338.05 294.36 337.18 296.98 353.3 304.74 356.69 295.99 352.83 301.2 338.05 294.36" id="el66p3applahn" class="animable" style="transform-origin: 346.935px 299.55px;"></polygon></g></g><path d="M385,195.27c.4.55,20.87,15,20.87,15l1.62-3.7,3.06,3.7" style="fill: rgb(224, 224, 224); transform-origin: 397.775px 202.77px;" id="elt1hq6xxj9y" class="animable"></path><path d="M410.57,210.3a6.58,6.58,0,0,1-.89-.92l-2.31-2.67.31,0c-.47,1.09-1,2.35-1.59,3.72l-.1.26-.23-.17-6.9-4.85c-3.89-2.77-7.39-5.31-9.89-7.18a29.19,29.19,0,0,1-4-3.18,11.67,11.67,0,0,1,1.13.76l3,2.12,10,7c2.49,1.79,4.83,3.47,6.86,4.91l-.34.1c.61-1.36,1.18-2.6,1.67-3.68l.12-.28.18.23,2.18,2.77A6.55,6.55,0,0,1,410.57,210.3Z" style="fill: rgb(38, 50, 56); transform-origin: 397.77px 203px;" id="el3p9jsowb639" class="animable"></path><path d="M443.63,225.85a31.33,31.33,0,0,0-3.15-5.73,30.94,30.94,0,0,0-4.66-4.58,5.31,5.31,0,0,1,1.7,1,15.84,15.84,0,0,1,3.38,3.3,16.31,16.31,0,0,1,2.27,4.15A5.29,5.29,0,0,1,443.63,225.85Z" style="fill: rgb(38, 50, 56); transform-origin: 439.725px 220.695px;" id="elt7a3b2wepb9" class="animable"></path><g id="elokdalqtnmn9"><g style="opacity: 0.3; transform-origin: 384.46px 251.154px;" class="animable"><path d="M391.41,244.31a16.24,16.24,0,0,0-13.64,10.49,3.41,3.41,0,0,0-.23,2.15,1.37,1.37,0,0,0,1.69,1c.57-.24.79-.92,1-1.51a18.47,18.47,0,0,1,11.23-11.73" id="eldwwdky4f475" class="animable" style="transform-origin: 384.46px 251.154px;"></path></g></g><path d="M414.53,188.69c-.14,0-.36-1.24-1.54-2.05a5.68,5.68,0,0,0-2.47-.68c0-.07.27-.23.79-.28a3.13,3.13,0,0,1,2,.53,3.19,3.19,0,0,1,1.22,1.64C414.65,188.35,414.6,188.68,414.53,188.69Z" style="fill: rgb(38, 50, 56); transform-origin: 412.561px 187.18px;" id="eln2vc6sdp0ah" class="animable"></path></g><defs>     <filter id="active" height="200%">         <feMorphology in="SourceAlpha" result="DILATED" operator="dilate" radius="2"></feMorphology>                <feFlood flood-color="#32DFEC" flood-opacity="1" result="PINK"></feFlood>        <feComposite in="PINK" in2="DILATED" operator="in" result="OUTLINE"></feComposite>        <feMerge>            <feMergeNode in="OUTLINE"></feMergeNode>            <feMergeNode in="SourceGraphic"></feMergeNode>        </feMerge>    </filter>    <filter id="hover" height="200%">        <feMorphology in="SourceAlpha" result="DILATED" operator="dilate" radius="2"></feMorphology>                <feFlood flood-color="#ff0000" flood-opacity="0.5" result="PINK"></feFlood>        <feComposite in="PINK" in2="DILATED" operator="in" result="OUTLINE"></feComposite>        <feMerge>            <feMergeNode in="OUTLINE"></feMergeNode>            <feMergeNode in="SourceGraphic"></feMergeNode>        </feMerge>            <feColorMatrix type="matrix" values="0   0   0   0   0                0   1   0   0   0                0   0   0   0   0                0   0   0   1   0 "></feColorMatrix>    </filter></defs></svg>