<svg class="animated" id="freepik_stories-investor-presentation" xmlns="http://www.w3.org/2000/svg" viewBox="0 0 500 500" version="1.1" xmlns:xlink="http://www.w3.org/1999/xlink" xmlns:svgjs="http://svgjs.com/svgjs"><style>svg#freepik_stories-investor-presentation:not(.animated) .animable {opacity: 0;}svg#freepik_stories-investor-presentation.animated #freepik--background-simple--inject-71 {animation: 6s Infinite  linear spin;animation-delay: 0s;}svg#freepik_stories-investor-presentation.animated #freepik--chart-2--inject-71 {animation: 6s Infinite  linear spin;animation-delay: 0s;}svg#freepik_stories-investor-presentation.animated #freepik--chart-1--inject-71 {animation: 1.1s 1 forwards ease-out slideUp;animation-delay: 0s;}         @keyframes spin {             from {                 transform: rotate(0);               }               to {                 transform: rotate(360deg);               }         }                 @keyframes slideUp {                0% {                    opacity: 0;                    transform: translateY(30px);                }                100% {                    opacity: 1;                    transform: inherit;                }            }        </style><g id="freepik--background-simple--inject-71" class="animable" style="transform-origin: 252.169px 225.201px;"><path d="M472.68,127.92c-11.84-51.93-59.24-75.49-105-92.83-62.69-23.74-133.86-39-186.37,13C162.14,67,144.75,87.92,126,107.19q-9.63,9.87-19.44,19.56c-24,23.7-49.81,46.63-71.52,72.55C11.67,227.16-7.15,332.56,43.3,390.54S151,428.94,196.14,419.9,291,437.22,352,437.22s117.46-19.58,134.77-85.08-6.77-91.1-9-141.54C476.54,184.11,478.8,154.74,472.68,127.92Z" style="fill: rgb(255, 129, 174); transform-origin: 252.169px 225.201px;" id="el0sh2whxwunhp" class="animable"></path><g id="el1g6sg3mb5b1"><path d="M472.68,127.92c-11.84-51.93-59.24-75.49-105-92.83-62.69-23.74-133.86-39-186.37,13C162.14,67,144.75,87.92,126,107.19q-9.63,9.87-19.44,19.56c-24,23.7-49.81,46.63-71.52,72.55C11.67,227.16-7.15,332.56,43.3,390.54S151,428.94,196.14,419.9,291,437.22,352,437.22s117.46-19.58,134.77-85.08-6.77-91.1-9-141.54C476.54,184.11,478.8,154.74,472.68,127.92Z" style="fill: rgb(255, 255, 255); opacity: 0.7; transform-origin: 252.169px 225.201px;" class="animable"></path></g></g><g id="freepik--Floor--inject-71" class="animable" style="transform-origin: 245.385px 463.09px;"><path d="M446.62,463.59H20a.5.5,0,0,1,0-1H446.62a.5.5,0,0,1,0,1Z" style="fill: rgb(38, 50, 56); transform-origin: 233.31px 463.09px;" id="elw96gifrb358" class="animable"></path><path d="M470.77,463.59h-16.1a.5.5,0,0,1,0-1h16.1a.5.5,0,0,1,0,1Z" style="fill: rgb(38, 50, 56); transform-origin: 462.72px 463.09px;" id="elf2ddawl695h" class="animable"></path></g><g id="freepik--Plant--inject-71" class="animable" style="transform-origin: 69.005px 370.58px;"><path d="M37.46,323.62s-2.32,6.37-7.25,7.24-13.62-8.69-8.11-13.62S35.14,320.14,37.46,323.62Z" style="fill: rgb(255, 129, 174); transform-origin: 28.8964px 323.285px;" id="elthyqs20t759" class="animable"></path><path d="M29.56,331.42c-3.23,0-7.19-3.36-8.83-6.73-1.48-3.06-1.11-5.91,1-7.82A6.39,6.39,0,0,1,27,315.21c4.38.56,8.91,5.17,10.88,8.13a.51.51,0,0,1,.06.45c-.1.27-2.48,6.66-7.63,7.57A4.52,4.52,0,0,1,29.56,331.42ZM26.1,316.16a5.35,5.35,0,0,0-3.67,1.45c-2.44,2.19-1.55,5.1-.8,6.64,1.75,3.61,5.87,6.58,8.49,6.12,4.07-.72,6.31-5.57,6.77-6.69-1.88-2.72-6.11-7-10-7.47A4.85,4.85,0,0,0,26.1,316.16Z" style="fill: rgb(38, 50, 56); transform-origin: 28.9011px 323.283px;" id="elizon7jjz9vc" class="animable"></path><path d="M45,292.31S37.75,310,40.65,318.69s20.86,15.07,26.08,3.77S60.35,295.21,56,291.73,46.44,289.42,45,292.31Z" style="fill: rgb(255, 129, 174); transform-origin: 54.0099px 309.057px;" id="elo399hqkin4k" class="animable"></path><path d="M56.7,329c-.31,0-.61,0-.92,0-6.87-.38-13.87-4.93-15.61-10.15-2.92-8.77,4.06-26,4.36-26.73l0,0a5.65,5.65,0,0,1,4-2.82,9.41,9.41,0,0,1,7.8,2.07c4.46,3.57,16.2,19.77,10.87,31.33C65.28,326.79,61.58,329,56.7,329ZM45.45,292.52c-.26.64-7.1,17.71-4.33,26,1.59,4.78,8.33,9.12,14.71,9.47,2.84.16,8-.38,10.45-5.75,5.1-11.06-6.27-26.68-10.59-30.13a8.39,8.39,0,0,0-7-1.87A4.67,4.67,0,0,0,45.45,292.52Z" style="fill: rgb(38, 50, 56); transform-origin: 54.0093px 309.071px;" id="elzxexl3oss6" class="animable"></path><path d="M87.31,299.85s-12.46,11.3-13.91,22.61,6.95,15.36,15.65,13.91,13-23.48,10.43-33.62S87.31,299.85,87.31,299.85Z" style="fill: rgb(255, 129, 174); transform-origin: 86.727px 316.999px;" id="elfc0sju2ito6" class="animable"></path><path d="M85.7,337.16a13.61,13.61,0,0,1-9.59-3.42c-2.72-2.62-3.82-6.54-3.21-11.35C74.36,311,86.46,300,87,299.48l0,0c.2-.15,4.89-3.66,8.8-2.3,2,.7,3.4,2.54,4.16,5.47,1.89,7.35.2,21.85-4.81,29.54-1.79,2.75-3.82,4.34-6,4.7A20.4,20.4,0,0,1,85.7,337.16Zm1.93-36.92c-.53.48-12.35,11.48-13.74,22.28-.57,4.48.44,8.11,2.91,10.5,2.75,2.65,7.18,3.69,12.17,2.86,1.92-.32,3.72-1.76,5.35-4.26,4.87-7.49,6.52-21.6,4.68-28.75-.66-2.58-1.85-4.19-3.52-4.77C92.19,297,87.93,300,87.63,300.24Z" style="fill: rgb(38, 50, 56); transform-origin: 86.7247px 317.019px;" id="elxf7m2gh0pv" class="animable"></path><path d="M89.63,362.46s-13.91.58-14.49,7.24,6.08,8.12,12.75,2.32S95.43,362.75,89.63,362.46Z" style="fill: rgb(255, 129, 174); transform-origin: 84.296px 369.05px;" id="el8a0zkwu7z5" class="animable"></path><path d="M80,376.15a5.75,5.75,0,0,1-2.66-.6c-2-1-2.9-3.09-2.66-5.89.61-7,14.38-7.68,15-7.7h0c2.38.12,3.8.78,4.21,2,.64,1.83-1.21,4.6-5.64,8.46C85.41,374.84,82.45,376.15,80,376.15ZM89.63,363c-.62,0-13.47.75-14,6.79-.2,2.36.55,4.11,2.13,4.91,2.42,1.24,6.27,0,9.8-3,5.29-4.6,5.63-6.6,5.36-7.38C92.59,363.31,91,363,89.63,363Z" style="fill: rgb(38, 50, 56); transform-origin: 84.3276px 369.055px;" id="el3ywwgkeuaca" class="animable"></path><path d="M75.58,371.75l-.42-.91c.45-.21,11.08-5.06,16-5.93l.18,1C86.54,366.75,75.68,371.7,75.58,371.75Z" style="fill: rgb(38, 50, 56); transform-origin: 83.25px 368.33px;" id="elmn7y4y9zt8" class="animable"></path><path d="M92.73,406.08s-10.22-9.46-15.36-5.17-1.46,10,7.35,10.68S96.61,410.39,92.73,406.08Z" style="fill: rgb(255, 129, 174); transform-origin: 84.7013px 405.76px;" id="el5v4gis7z1t" class="animable"></path><path d="M87.88,412.21c-1,0-2,0-3.2-.13-5.15-.37-9-2.48-9.93-5.51-.67-2.1.15-4.24,2.3-6.05,5.42-4.52,15.59,4.79,16,5.19l0,0c1.6,1.77,2.12,3.25,1.57,4.38C94,411.52,91.75,412.21,87.88,412.21Zm-7.22-11.92a4.53,4.53,0,0,0-3,1c-1.82,1.52-2.53,3.29-2,5,.83,2.59,4.38,4.49,9.05,4.83,7,.51,8.64-.66,9-1.41.44-.9-.51-2.26-1.4-3.25C92,406.09,85.55,400.29,80.66,400.29Z" style="fill: rgb(38, 50, 56); transform-origin: 84.677px 405.747px;" id="eld6gzbcgkq5" class="animable"></path><path d="M91.51,409.73c-4-2.82-15.16-7-15.28-7.07l.36-.94c.46.18,11.39,4.3,15.49,7.19Z" style="fill: rgb(38, 50, 56); transform-origin: 84.155px 405.725px;" id="elkuqv5ueoe58" class="animable"></path><path d="M38.82,403.29s14.09-13,21.17-7.12S62,410,49.87,410.89,33.47,409.24,38.82,403.29Z" style="fill: rgb(255, 129, 174); transform-origin: 49.8862px 402.853px;" id="elkyq1vg6cjm" class="animable"></path><path d="M45.48,411.56c-5.23,0-8.24-.92-9.15-2.77-.73-1.49,0-3.45,2.12-5.83l0,0c.59-.54,14.5-13.26,21.83-7.14,2.92,2.43,4,5.32,3.12,8.13-1.32,4.1-6.51,7-13.53,7.48C48.28,411.5,46.81,411.56,45.48,411.56Zm-6.3-7.92c-1.26,1.41-2.61,3.36-2,4.71.52,1.06,2.85,2.75,12.6,2,6.51-.47,11.47-3.14,12.64-6.78.78-2.4-.22-4.91-2.8-7.06C53.11,391.07,39.73,403.14,39.18,403.64Z" style="fill: rgb(38, 50, 56); transform-origin: 49.8764px 402.859px;" id="eljjt1a5lhuw" class="animable"></path><path d="M40.4,408.17l-.58-.82c5.64-4,20.69-9.64,21.33-9.88l.35.93C61.34,398.46,45.93,404.27,40.4,408.17Z" style="fill: rgb(38, 50, 56); transform-origin: 50.66px 402.82px;" id="eln16kzl16c1m" class="animable"></path><path d="M55.14,376.37s-1.45,6.95-6.67,9.56S34,383,38.91,374.63,52.53,372.89,55.14,376.37Z" style="fill: rgb(255, 129, 174); transform-origin: 46.3288px 378.578px;" id="el42wmkukl0my" class="animable"></path><path d="M45.56,387.08A9.15,9.15,0,0,1,39,384.26c-2.48-2.64-2.68-6.25-.54-9.88,1.58-2.71,3.69-4.16,6.24-4.31,4.42-.28,9,3.55,10.82,6a.51.51,0,0,1,.09.4c-.06.29-1.56,7.23-6.94,9.91A7,7,0,0,1,45.56,387.08Zm-.43-16h-.35c-2.2.12-4,1.41-5.44,3.81-1.89,3.23-1.74,6.4.41,8.7s5.93,3.19,8.5,1.91c4.43-2.22,6-7.83,6.35-9C52.74,374.13,48.76,371.06,45.13,371.06Z" style="fill: rgb(38, 50, 56); transform-origin: 46.3029px 378.568px;" id="elq1xelnx1opm" class="animable"></path><path d="M43,354.63s-2.6-5.8-12.75-2-14.2,9.57-7.82,11.59S43,354.63,43,354.63Z" style="fill: rgb(255, 129, 174); transform-origin: 31.1828px 357.898px;" id="el28kl3wbd4c9" class="animable"></path><path d="M24,364.93a5.91,5.91,0,0,1-1.81-.26c-2.77-.88-3.38-2.34-3.4-3.41-.07-3,4.33-6.57,11.21-9.13,10.46-3.88,13.35,2.23,13.38,2.29a.51.51,0,0,1-.14.6C42.74,355.46,31.05,364.93,24,364.93Zm12.38-13.11a17.46,17.46,0,0,0-6,1.25c-7.33,2.72-10.61,6.14-10.56,8.16,0,1.35,1.49,2.1,2.71,2.49,5.53,1.76,17.63-7.52,19.78-9.22C41.81,353.71,40.19,351.82,36.42,351.82Z" style="fill: rgb(38, 50, 56); transform-origin: 31.1067px 357.886px;" id="el0gy0b6nhibbe" class="animable"></path><path d="M24.79,360.85l-.65-.77c5.86-5,16.38-6.16,16.83-6.21l.11,1C41,354.88,30.41,356.07,24.79,360.85Z" style="fill: rgb(38, 50, 56); transform-origin: 32.61px 357.36px;" id="el01lfcaxq0d7i" class="animable"></path><path d="M72,285.07s1.74,4.06,5.22,3.19,4.34-6.09,9.85-4.64,10.15,7.82,10.15,4.93-7-10.44-14.79-10.44S72.24,281.3,72,285.07Z" style="fill: rgb(255, 129, 174); transform-origin: 84.61px 283.702px;" id="elky9x9jaam1" class="animable"></path><path d="M96.73,289.79c-.67,0-1.55-.67-2.94-1.73-1.81-1.38-4.27-3.27-6.9-4-3.13-.82-4.58.66-6.13,2.23a7.57,7.57,0,0,1-3.47,2.41c-3.08.77-5.14-1.94-5.8-3.48a.45.45,0,0,1,0-.23c.38-4.92,4.06-7.42,10.93-7.42,7.9,0,15.29,7.52,15.29,10.94a1.16,1.16,0,0,1-.54,1.15A.93.93,0,0,1,96.73,289.79Zm-11.52-6.92a7.87,7.87,0,0,1,1.94.26c2.81.75,5.38,2.7,7.25,4.13a11.53,11.53,0,0,0,2.25,1.52,1.13,1.13,0,0,0,0-.23c0-2.44-6.43-9.94-14.29-9.94-6.28,0-9.53,2.08-9.92,6.37.29.61,1.83,3.48,4.58,2.79a6.86,6.86,0,0,0,3-2.14C81.34,284.32,82.77,282.87,85.21,282.87Z" style="fill: rgb(38, 50, 56); transform-origin: 84.5982px 283.68px;" id="elcegnd7ad44h" class="animable"></path><path d="M61.46,370.46a36.92,36.92,0,0,0-1.29-4.19C55.19,353,43.55,355,43.06,355.12l-.19-1c.13,0,13-2.31,18.24,11.78a38.71,38.71,0,0,1,1.32,4.29Z" style="fill: rgb(38, 50, 56); transform-origin: 52.65px 362.22px;" id="eldquwa7v7d8" class="animable"></path><path d="M95.05,341.2s2.61-5.79,12.75-2,14.21,9.56,7.83,11.59S95.05,341.2,95.05,341.2Z" style="fill: rgb(255, 129, 174); transform-origin: 106.87px 344.471px;" id="el023nx11njyqw" class="animable"></path><path d="M114,351.5c-7,0-18.7-9.47-19.24-9.91a.51.51,0,0,1-.14-.59c0-.06,2.93-6.18,13.39-2.29,6.88,2.55,11.28,6.13,11.21,9.12,0,1.07-.64,2.53-3.41,3.42A6.14,6.14,0,0,1,114,351.5ZM95.7,341.08c2.14,1.69,14.26,11,19.78,9.21,1.22-.39,2.68-1.13,2.71-2.48,0-2-3.24-5.45-10.56-8.17C99.4,336.59,96.42,340,95.7,341.08Z" style="fill: rgb(38, 50, 56); transform-origin: 106.9px 344.459px;" id="eli2uyr8r9vq" class="animable"></path><path d="M112.37,347.42c-4.72-5.83-14.87-5.34-15-5.33l-.06-1c.44,0,10.77-.53,15.81,5.7Z" style="fill: rgb(38, 50, 56); transform-origin: 105.215px 344.249px;" id="eluvf32b70n9" class="animable"></path><path d="M86.61,342.84l-.4-.92a16.5,16.5,0,0,1,8.94-1.21l-.19,1A15.7,15.7,0,0,0,86.61,342.84Z" style="fill: rgb(38, 50, 56); transform-origin: 90.68px 341.692px;" id="eldqpekk80lk8" class="animable"></path><path d="M49.26,331.16c-5.92-6-11.82-7-11.88-7.05s-8.75-2.26-12,.71l-.68-.74c3.64-3.34,12.5-1.05,12.88-.95.2,0,6.22,1,12.38,7.33Z" style="fill: rgb(38, 50, 56); transform-origin: 37.33px 326.716px;" id="elbebtded67pr" class="animable"></path><g id="elucw7p26ipnr"><rect x="50.09" y="296.25" width="1" height="2.48" style="fill: rgb(38, 50, 56); transform-origin: 50.59px 297.49px; transform: rotate(-12.62deg);" class="animable"></rect></g><path d="M65.47,426.85l-1,0c0-.5,1.29-50.06,0-65S57.2,329.19,57.14,329L51,301.38l1-.22,6.18,27.58c0,.12,6.08,17.93,7.37,33S65.49,426.35,65.47,426.85Z" style="fill: rgb(38, 50, 56); transform-origin: 58.5538px 364.005px;" id="el1ups8abpcv5" class="animable"></path><g id="eliu787wskhto"><rect x="89.97" y="307.72" width="2.64" height="1" style="fill: rgb(38, 50, 56); transform-origin: 91.29px 308.22px; transform: rotate(-64.94deg);" class="animable"></rect></g><path d="M68.5,426.79h-1c0-.46.46-45.71,2.17-58.59s8.62-33.24,8.69-33.44L89,311.92l.91.42L79.29,335.12c-.05.15-6.92,20.41-8.62,33.21S68.51,426.33,68.5,426.79Z" style="fill: rgb(38, 50, 56); transform-origin: 78.705px 369.355px;" id="elf6holkj4tzi" class="animable"></path><path d="M71.1,426.87l-1-.06c1.72-29.12,4.74-55.32,4.77-55.58l1,.12C75.83,371.61,72.81,397.77,71.1,426.87Z" style="fill: rgb(38, 50, 56); transform-origin: 72.985px 399.05px;" id="eltobf1c76oag" class="animable"></path><path d="M61.14,426.79l-1,0c0-.42.85-41.61-.84-47.1-.58-1.88-1.36-3-2.25-3.28a1.89,1.89,0,0,0-1.59.36l-.11.1H55.2c-.08,0-7.82,1-10.56,5.36l-.85-.53c2.82-4.51,10-5.65,11.15-5.8a2.84,2.84,0,0,1,2.38-.47c1.25.37,2.24,1.7,2.93,3.95C62,385,61.18,425.09,61.14,426.79Z" style="fill: rgb(38, 50, 56); transform-origin: 52.5783px 401.067px;" id="elx490et3qu8" class="animable"></path><path d="M63.31,426.85l-1-.05c0-.41,2.06-40.64-.17-53.13l1-.18C65.37,386.1,63.33,426.44,63.31,426.85Z" style="fill: rgb(38, 50, 56); transform-origin: 63.161px 400.17px;" id="elylywtwq4mor" class="animable"></path><path d="M72.27,426.85c0-2.47-.54-60.57,4.63-74.36a18.76,18.76,0,0,1,6.77-9.16l.57.82a17.76,17.76,0,0,0-6.4,8.69c-5.1,13.62-4.58,73.4-4.57,74Z" style="fill: rgb(38, 50, 56); transform-origin: 78.2469px 385.09px;" id="elrrh8xpp4cfh" class="animable"></path><path d="M67.2,426.85l-1-.14C67.43,417.77,65,365.9,58,345.9a40.59,40.59,0,0,0-7.26-13.12l.77-.65A42,42,0,0,1,59,345.57C65.94,365.69,68.43,417.86,67.2,426.85Z" style="fill: rgb(38, 50, 56); transform-origin: 59.1209px 379.49px;" id="el7aht3gzd6qt" class="animable"></path><path d="M68.5,426.78h-1c0-.51.31-50.83.73-75.69l1,0C68.81,376,68.51,426.28,68.5,426.78Z" style="fill: rgb(38, 50, 56); transform-origin: 68.365px 388.935px;" id="ele0bfs6c8wyh" class="animable"></path><path d="M69.28,348h-1c.34-20.07.67-34.09,1-41.66C70,286.8,71.07,285,71.58,284.65c.48-1.09,2.8-5.08,11-4.56l-.07,1c-8.45-.54-10,3.94-10.1,4.13l-.24.75L72,285.8c-.37,1.08-1.18,5.15-1.77,20.55C70,313.91,69.62,327.92,69.28,348Z" style="fill: rgb(38, 50, 56); transform-origin: 75.43px 314.022px;" id="eliojy2w0st1m" class="animable"></path><path d="M57.69,367s-7.25-6.46-4.35-9.64,20.87-5.51,26.09-1.38-6.38,10-10.73,11.23S59.14,368,57.69,367Z" style="fill: rgb(255, 129, 174); transform-origin: 66.7049px 360.86px;" id="els1952vxr98" class="animable"></path><path d="M62.91,368.46c-2.47,0-4.59-.42-5.52-1.1l0,0c-.2-.18-5-4.5-5.19-8A3.09,3.09,0,0,1,53,357c3.14-3.45,21.31-5.75,26.77-1.44a3.31,3.31,0,0,1,1.45,3.32c-.76,3.91-9,7.81-12.35,8.78A21.4,21.4,0,0,1,62.91,368.46ZM58,366.57c1.3.92,6.28,1.38,10.56.12,3.63-1.06,11-4.85,11.65-8a2.32,2.32,0,0,0-1.1-2.34c-4.92-3.9-22.65-1.7-25.4,1.32a2.09,2.09,0,0,0-.55,1.63C53.31,362.26,57.68,366.28,58,366.57Z" style="fill: rgb(38, 50, 56); transform-origin: 66.7271px 360.835px;" id="el2gxag4i6jr2" class="animable"></path><path d="M64.72,363.6h-1a13.42,13.42,0,0,1,.16-2l1,.16A12.53,12.53,0,0,0,64.72,363.6Z" style="fill: rgb(38, 50, 56); transform-origin: 64.3px 362.6px;" id="el0hyv14uzl17s" class="animable"></path><path d="M65.49,359.07l-1-.28a34.55,34.55,0,0,1,1.89-4.89l.9.45A32.53,32.53,0,0,0,65.49,359.07Z" style="fill: rgb(38, 50, 56); transform-origin: 65.885px 356.485px;" id="elk45s8ynpbh" class="animable"></path><path d="M57.69,409.21s-7.25-6.46-4.35-9.64,20.87-5.51,26.09-1.38-6.38,10-10.73,11.23S59.14,410.27,57.69,409.21Z" style="fill: rgb(255, 129, 174); transform-origin: 66.7049px 403.08px;" id="elyyippdjokua" class="animable"></path><path d="M62.91,410.71c-2.47,0-4.59-.42-5.52-1.1l0,0c-.2-.18-5-4.51-5.19-8a3.12,3.12,0,0,1,.81-2.36c3.14-3.44,21.32-5.75,26.77-1.43a3.31,3.31,0,0,1,1.45,3.32c-.76,3.91-9,7.81-12.35,8.78A21.4,21.4,0,0,1,62.91,410.71ZM58,408.82c1.3.92,6.28,1.37,10.56.12,3.63-1.06,11-4.85,11.65-8a2.34,2.34,0,0,0-1.1-2.35c-4.92-3.89-22.65-1.7-25.4,1.33a2.08,2.08,0,0,0-.55,1.63C53.31,404.51,57.68,408.53,58,408.82Z" style="fill: rgb(38, 50, 56); transform-origin: 66.733px 403.088px;" id="el01944ieeofa1" class="animable"></path><path d="M64.72,405.85h-1c0-4.24,2.59-9.48,2.7-9.7l.9.45S64.72,401.85,64.72,405.85Z" style="fill: rgb(38, 50, 56); transform-origin: 65.52px 401px;" id="elr7l2qe10w7s" class="animable"></path><path d="M63.08,391.34s-4.92-4.39-2.95-6.54,14.17-3.74,17.71-.94-4.33,6.76-7.28,7.63S64.07,392.06,63.08,391.34Z" style="fill: rgb(255, 129, 174); transform-origin: 69.2012px 387.191px;" id="elf0eh97a6jtj" class="animable"></path><path d="M66.65,392.52a7.56,7.56,0,0,1-3.86-.77.08.08,0,0,1,0,0c-.14-.12-3.46-3.1-3.58-5.53a2.26,2.26,0,0,1,.59-1.72c2.16-2.37,14.65-4,18.39-1a2.39,2.39,0,0,1,1,2.41c-.57,2.88-6.51,5.5-8.5,6.09A15,15,0,0,1,66.65,392.52ZM63.39,391c.85.59,4.22.88,7,.06,2.43-.72,7.39-3.24,7.79-5.32.07-.33.07-.84-.68-1.44-3.3-2.61-15.18-1.14-17,.88a1.33,1.33,0,0,0-.33,1C60.25,387.79,62.51,390.15,63.39,391Z" style="fill: rgb(38, 50, 56); transform-origin: 69.2162px 387.204px;" id="elqzijwnwml1a" class="animable"></path><path d="M68,389.06H67a18.1,18.1,0,0,1,1.85-6.66l.89.45S68,386.38,68,389.06Z" style="fill: rgb(38, 50, 56); transform-origin: 68.37px 385.73px;" id="ellarg1sv65d" class="animable"></path><rect x="56.28" y="419.59" width="19.62" height="43.49" style="fill: rgb(38, 50, 56); transform-origin: 66.09px 441.335px;" id="elkg4tz1syeys" class="animable"></rect><path d="M75.89,463.59H56.28a.5.5,0,0,1-.5-.5v-43.5a.5.5,0,0,1,.5-.5H75.89a.5.5,0,0,1,.5.5v43.5A.5.5,0,0,1,75.89,463.59Zm-19.11-1H75.39v-42.5H56.78Z" style="fill: rgb(38, 50, 56); transform-origin: 66.085px 441.34px;" id="elkgoeqp6a7x" class="animable"></path></g><g id="freepik--Board--inject-71" class="animable" style="transform-origin: 239.485px 160.46px;"><rect x="93.2" y="42.51" width="292.56" height="230.13" style="fill: rgb(38, 50, 56); transform-origin: 239.48px 157.575px;" id="els9yej64ceb" class="animable"></rect><path d="M385.77,273.14H93.2a.51.51,0,0,1-.5-.5V42.51a.5.5,0,0,1,.5-.5H385.77a.5.5,0,0,1,.5.5V272.64A.51.51,0,0,1,385.77,273.14Zm-292.07-1H385.27V43H93.7Z" style="fill: rgb(38, 50, 56); transform-origin: 239.485px 157.575px;" id="elqmmcmf7ohq" class="animable"></path><rect x="97.55" y="45.93" width="283.87" height="223.29" style="fill: rgb(255, 255, 255); transform-origin: 239.485px 157.575px;" id="ele3gzzz8om9b" class="animable"></rect><path d="M381.42,269.72H97.55a.5.5,0,0,1-.5-.5V45.93a.5.5,0,0,1,.5-.5H381.42a.5.5,0,0,1,.5.5V269.22A.5.5,0,0,1,381.42,269.72Zm-283.37-1H380.92V46.43H98.05Z" style="fill: rgb(38, 50, 56); transform-origin: 239.485px 157.575px;" id="el148azae2rkb" class="animable"></path><rect x="90.4" y="272.58" width="298.16" height="5.83" style="fill: rgb(38, 50, 56); transform-origin: 239.48px 275.495px;" id="elhgyoecd7r9" class="animable"></rect><path d="M388.57,278.91H90.4a.5.5,0,0,1-.5-.5v-5.83a.5.5,0,0,1,.5-.5H388.57a.5.5,0,0,1,.5.5v5.83A.5.5,0,0,1,388.57,278.91Zm-297.67-1H388.07v-4.83H90.9Z" style="fill: rgb(38, 50, 56); transform-origin: 239.485px 275.495px;" id="elxwhe4ft6db" class="animable"></path></g><g id="freepik--chart-2--inject-71" class="animable" style="transform-origin: 261.29px 234.62px;"><path d="M261.29,210.8a23.82,23.82,0,1,0,23.82,23.82A23.82,23.82,0,0,0,261.29,210.8Zm0,35.6a11.78,11.78,0,1,1,11.77-11.78A11.77,11.77,0,0,1,261.29,246.4Z" style="fill: rgb(255, 129, 174); transform-origin: 261.29px 234.62px;" id="elt6pnpihgpcp" class="animable"></path><path d="M242.63,219.82l9.35,7.6a11.74,11.74,0,0,1,6.5-4.22l-2.82-11.72A23.78,23.78,0,0,0,242.63,219.82Z" style="fill: rgb(156, 156, 156); transform-origin: 250.555px 219.45px;" id="elweu3d771bj" class="animable"></path><path d="M242.63,219.82a23.82,23.82,0,0,0,11,37.35l3.85-11.42A11.76,11.76,0,0,1,252,227.42Z" style="fill: rgb(38, 50, 56); transform-origin: 247.478px 238.495px;" id="el9mrjynb2u2" class="animable"></path></g><g id="freepik--chart-1--inject-71" class="animable" style="transform-origin: 174.67px 235.885px;"><path d="M229.61,246.48H210.36a.5.5,0,0,1-.5-.5.5.5,0,0,1,.5-.5h19.25a.5.5,0,0,1,.5.5A.5.5,0,0,1,229.61,246.48Z" style="fill: rgb(38, 50, 56); transform-origin: 219.985px 245.98px;" id="elrezve9u9vza" class="animable"></path><path d="M229.61,251.18H210.36a.5.5,0,0,1,0-1h19.25a.5.5,0,0,1,0,1Z" style="fill: rgb(38, 50, 56); transform-origin: 219.985px 250.68px;" id="elar3i6tzofg7" class="animable"></path><path d="M229.61,255.88H210.36a.5.5,0,0,1-.5-.5.5.5,0,0,1,.5-.5h19.25a.5.5,0,0,1,.5.5A.5.5,0,0,1,229.61,255.88Z" style="fill: rgb(38, 50, 56); transform-origin: 219.985px 255.38px;" id="elhvcg6oiujx9" class="animable"></path><rect x="119.23" y="214.51" width="9.39" height="42.74" style="fill: rgb(255, 129, 174); transform-origin: 123.925px 235.88px;" id="el1q9ggkty9me" class="animable"></rect><rect x="131.92" y="231.89" width="9.39" height="25.36" style="fill: rgb(38, 50, 56); transform-origin: 136.615px 244.57px;" id="elxj8a5y6spc" class="animable"></rect><rect x="144.6" y="240.35" width="9.39" height="16.91" style="fill: rgb(255, 129, 174); transform-origin: 149.295px 248.805px;" id="elpk9qnk0e6m" class="animable"></rect><rect x="157.28" y="228.6" width="9.39" height="28.65" style="fill: rgb(38, 50, 56); transform-origin: 161.975px 242.925px;" id="el177dthm3eprj" class="animable"></rect><rect x="169.96" y="234.94" width="9.39" height="22.31" style="fill: rgb(255, 129, 174); transform-origin: 174.655px 246.095px;" id="el8a6pkn9c2ql" class="animable"></rect><rect x="182.64" y="230.99" width="9.39" height="26.26" style="fill: rgb(38, 50, 56); transform-origin: 187.335px 244.12px;" id="elatf7j187z8h" class="animable"></rect><rect x="195.33" y="248.33" width="9.39" height="8.92" style="fill: rgb(255, 129, 174); transform-origin: 200.025px 252.79px;" id="el1r86be7il41" class="animable"></rect></g><g id="freepik--Map--inject-71" class="animable" style="transform-origin: 240.36px 138.124px;"><path d="M175.9,117.57c2.34-1.72.45,2.88,0,0Zm-1.9.17c.64,0,1-.42.88-1C174.67,116.89,172.93,117.74,174,117.74Zm3.8-14a3.66,3.66,0,0,1,1.38-.65c-.88-.91-2.08-.74-3.21-.72A1.29,1.29,0,0,0,177.8,103.69Zm110.29,61.74c-.41.58-.12,3.76,1,2.67C289.68,167.5,288.3,165.67,288.09,165.43Zm45,40.81a3.5,3.5,0,0,0,1.77,2.32.86.86,0,0,0,0-.55h.61c0-.8.23-1,.23-1.73-.55.17-2.67-.47-2.61,0C333.1,206.37,333.06,206.19,333.06,206.24Zm2.26-1.16a.79.79,0,0,0,.63.75c0-.61-.24-.75-.63-.75C335.32,205.13,335.37,205.08,335.32,205.08Zm-2.65-.2c-.41.22-.15.56.14.68,0-.07.09-.78-.14-.68C332.6,204.9,332.71,204.86,332.67,204.88Zm17.48,6.59c1.18,0,1.45-2.43,2.88-2.75-.63-1.45,1.75-1.22,0-2.36-1.35-.89-.81.63-1.61,1.6s-2,1.09-2.56,2.09c-.39.78-.26,1.63,1.25,1.42Zm-.92.39a1.21,1.21,0,0,0-.25.3h.58c0-.21,0-.55-.33-.3C349.18,211.9,349.28,211.81,349.23,211.86Zm4.64-9c0,.4,0,1.43,0,1.52,0-.09-.57,0-.58.42s.42,0,.51.34c0,0,.6,1.45.95,1.34.13,0,.48-.77.69-1,1.09-1.13,1.84-2.48-.36-2,0-.66-.25-1.67-.66-.68-.45-.32-.52-1.34-1-1.92C352.43,199.78,353.87,202.49,353.87,202.89Zm-7.22-14.24c.55.94,1,1.71,2.21,1.84A4.13,4.13,0,0,0,346.65,188.65Zm-23.54-7.15c-.93.18.47.4.8.36v-.31A7.9,7.9,0,0,1,323.11,181.5Zm8.24.41c-1.09,1.48.38,5.1-2,4.38,0,0-2.22-1.57-2.26-1.69-.42-1,.44-1.54.72-2.33-1.23-.18-2.43-.87-3.61-.87.23.23.2.4.62.67-.21-.15-1.46.77-1.79,1-1,.69.55.83-1.09,1.18-.55.11-.79-.73-1.68-.37-.73.3-.82,1.37-1.65,1.37.12.29.16.77.3,1h-.64v-.54c-1-.06-1.29,2.2-2.39,2.78-.83.44-2.11.57-3,1-.4.16-.66,1.6-1.14.39a3.91,3.91,0,0,0,.19,3.46c-1.46-.72.12,1.75.42,2.63.61,1.79,1.21,3,0,4.11.84,0,1.33,1,2.41.84.62-.09.92-.91,1.61-1.06s1.12.42,1.58.29.51-.59.92-.77.82-.65,1.26-.86.57.35.94.21c1.31-.55,2.79-1.38,4.31-.5.92.54,1.8,4.38,2.78.93.69.25,0,.79.07,1.44.86-.56.53.23.47,1.09,1.42-.3.78,1.07,1.83,2a7.44,7.44,0,0,0,1.67.56c.72,0,.49-.78.95-.8s.46.94.75.87c1.46-.34,3-1,3.53-2.44a18.88,18.88,0,0,1,1-3,7,7,0,0,0,.29-6.49,4,4,0,0,0-.87-1.08c-.24-.29-.24-.8-.4-1a5.57,5.57,0,0,1-1-.49c-.24-.24-.22-.84-.47-1.13s-1.21-.63-1.48-1c-.66-.89-.84-2.64-1.34-3.5-.15-.27-.6-.47-.84-.88s-.13-1.72-.8-1.9A2.87,2.87,0,0,0,331.35,181.91Zm12.27-1.57c.2.35.43.24.7.12-.14-.39-.92-.63-.7-.12Zm-3.57-2.7c0,.34.7.77.9.72-.18-.49-.7-.8-.7-1.27a.59.59,0,0,0-.29,0A1.39,1.39,0,0,1,340.05,177.64Zm-4.21-.48c.08,1,2.76.53,2.51-1.08-.13,0-2.51,1.47-2.51,1.08C335.85,177.29,335.84,177.1,335.84,177.16Zm-12.23,2c0,.15,1.05.34.55-.77A.59.59,0,0,0,323.61,179.18Zm-3.76-.49c.08.42.48.33.8.17C320.38,178.59,320.23,178.78,319.85,178.69Zm6.17-1.6a1.22,1.22,0,0,0-.44.89C325.58,178.63,327,176.4,326,177.09Zm-1-1.29c.66-.33,1.51.31,2.15.64s1.08.12,1.46.85c.51,1-.07.72,0,1.29,0,.14-.72.12-.4.78.14.3,1-.39,1.27-.31.92.28,1.28,1.19,2.42.8.69-.22.66-1.33,1.81-.88.45.18.56.79,1,1a2.58,2.58,0,0,0,1.43.61c1.59.4,1.06.52.28-.68-.11-.18-.88-.08-1-.2a7,7,0,0,0-.33-1c0-.12-1-.89.24-.77a7,7,0,0,0-1.93-1.73,11.85,11.85,0,0,0-3.09-1.3c-1.68-.6-1.59-.24-2.92,0-.83.15-1.74-.29-2.9,0,.13.5.3,1,.52.85C325,175.79,325,175.82,325,175.8Zm-5.8-1.73c-.64.16.57.33.8.28C320,173.89,319.55,174,319.2,174.07Zm7.55-.61a3.84,3.84,0,0,1,.07.86h.73c-.11-.38-.31-.2-.31-.86h-.49C326.76,173.52,326.94,173.44,326.75,173.46Zm-3.07,0a.5.5,0,0,0-.47.17c.76.48,1.58,1.18,2.59.67C325,172.65,324.45,173.83,323.68,173.51Zm-.17-.27c1-1.11-1.72-.37,0,0C323.62,173.1,323.45,173.22,323.51,173.24Zm-.74,1c.27.13.38.88.49-.07C322.89,174.23,322.85,174.26,322.77,174.23Zm-1.3.93c0,.29,1.52.56,2,.56C323.34,174.82,321.6,175.06,321.47,175.16Zm-.59.11-.6-.15c.35.94.75.25.6.15Zm.9-4.36c-.52.79-.89.9-.85,2,.07,1.59.43-.34,1.3-.19,0-.53-.2-1-.63-1a2.76,2.76,0,0,0,.18-.88C321.71,171,321.78,171,321.78,170.91Zm-6.85,4.29s.75,1,.65.93a9.81,9.81,0,0,0,.15,1c.52-.38.4-1.53.4-2.16h.44c.05.26.84,2.2,1.15,2,.55-.27-.47-2.4-.79-2.86C320.31,174.18,314.93,172,314.93,175.2Zm4.23-3.41c-.57.23-3.8-.25-3.65,1.24a7.45,7.45,0,0,1,2.48-.68c.35-.09.46.35.88.16.22-.11,1.08-1.08.29-.72Zm-.76,8.63c0,.7,2.46-.63,2.73-.93C320.16,179,318.56,180.1,318.4,180.42Zm-.3.68c-.3,0-.37.16-.22.4h.43c.05-.2,0-.49-.21-.4S318.15,181.07,318.1,181.1Zm-2.3-1.64c.64.7,2.63.12,3.36-.22C318.57,179.13,316.08,179.13,315.8,179.46Zm-.26.52c-.91.3.76.8,1.06.78-.12-.16-.74-.85-1.06-.78Zm-1.82-.69c-.53,0,1.31.17,1.68.17-.11,0-.13,0-.07-.22a7.8,7.8,0,0,0-1.61,0Zm-7.92-1.36a6.09,6.09,0,0,0,3.44,1.1c1.13.13,2.54.78,3.75.59a1.48,1.48,0,0,0-1.82-.78c.05-.57.42-.3.8-.55A28.73,28.73,0,0,0,305.8,177.93Zm-2.23-1.16c-.15.37-.05.55,0,0Zm5.19-5.47c-1,.75-.36,2.09.18,2.88.79,1.19,1.12,1.07,2.63,1.34s1,.72,1.9-.68a11,11,0,0,1,.36-1.49c.22-.41,1.06-.59,1.31-1.2-1-.69-.7-.87-.91-2.39.74,0,.51-.5,1.24-.78a7,7,0,0,1-1.6-1.41c-.58,0-1,1.12-1.45,1.57C311.42,170.12,309.66,172.05,308.76,171.3Zm-7.7,2.38c0,.53.84,1.84,1.31,1.95-.1-.72-1.31-1.9-1.31-1.95C301.07,173.8,301.06,173.6,301.06,173.68Zm-1.17-1.78c.18.39.53.5.7.89a1,1,0,0,0-.59-1C299.87,172.13,300,171.94,299.89,171.9Zm-.55-1.05c0-.12-.22-.46-.22-.1a.47.47,0,0,0,.44.52C299.65,171.07,299.58,170.93,299.34,170.85Zm.26-1.84c-.41,0-.63-.45-1-.39.17.93,1.51,1.86,2,2.49.7,1,1.29,2.38,2,3.46.51.71,1.72,2.66,2.41,2.67,1.52,0,.66-1.57,1.86-2-.13-1-1-1.43-1.76-.84-.08-1.18-4.06-5.24-5.5-5.42Zm18.87-2.78c-.79.09-1.48.68-1.06,1.65.64-1.69,1.57.25,2.59.74-.36-.85.28-1,.3-1.05s.31-2.22-.33-2.22-.77,1.43-1.5.88C318.36,166.26,318.52,166.28,318.47,166.23Zm-2.16-3.72c0,.29.82,2.57,1.43,2.45-.31.74.78,1.25.51-.21a4.24,4.24,0,0,0-1.94-2.24C316.3,162.62,316.35,162.53,316.31,162.51Zm1.06-.12c.91.7,1.52,2.05,2.51,2.26,0-1.23-1-1.51-1-2.61-.6,0-.89.35-1.47.35C317.48,162.48,317.48,162.39,317.37,162.39Zm-1.39.73c-.54,1.15-1.94,2.3-2.22,3.25,1.21,0,2.22-1.93,2.22-3.25C316,163.17,316,163.25,316,163.12Zm.57-4.71c-1.08.64-.81,3.06.42,3.49C316.92,161.13,318.48,158.41,316.55,158.41Zm.71-5.07c0-.39-1.45.91-1.24,2.39h.44C316.46,154.74,317.26,154.25,317.26,153.34Zm18.62-18c-.73.14-1.2.8-2.16.88a3.66,3.66,0,0,1-2.63-.81c0,.36-.47,3.1-.91,2.1-.19.37-.85,2.11.22,1.55v.41c-.65.13-1,2.41-1.68,3.3,0-.25,0-.39,0-.65a2.54,2.54,0,0,0-.73,1.2c-.16-.25-.43.18-.32-.52a2.12,2.12,0,0,0-.72,1.65c-1.46-.7-4.18.63-4.44,2.4.28,0,.67,0,.84,0,0,.78-.78,1.12.3,1.46,0-.82,1.2-2,0-2.12.26-.83,2.08-.83,2.85-1-.84.57-2.17,0-1.86,1.57a6.23,6.23,0,0,0,1.78-1.13c.34.86,1.28.19,1.13-.56,2.89-.36,2.34-.51,3-3.17.38-1.47.83-2.62-.43-3.77.85-.18,2.28.7,2.23-.33.62.15,3.5-1.6,3.5-2.48C335.83,135.37,335.88,135.41,335.88,135.37Zm1.35-.77c-.31.06-.46.29-.74.45.46.29.58,0,.74-.45C337.18,134.61,337.17,134.76,337.23,134.6Zm3.57-4.29a3.25,3.25,0,0,1-.44.92A.78.78,0,0,0,340.8,130.31Zm8.73-4.23c-.07,0-.21-.4-.4-.23a1.39,1.39,0,0,0,0,.46C349.21,126.34,349.67,126.4,349.53,126.08Zm-1,.13c-.14-.45-.1-.74-.48-1,0,.43.08.8.11,1.22.26.08.45.09.37-.17C348.52,126.15,348.57,126.26,348.54,126.21Zm-1.9-4.36c.27,0,.46-.36.48-.58-.64-.27-.7.16-.95.58A1.24,1.24,0,0,0,346.64,121.85Zm16.86-5.59a7.54,7.54,0,0,0,2.08.31c-.52-1.12-1.65-.26-2.08-.31C363.61,116.27,363.44,116.24,363.5,116.26ZM357,106.41a11.43,11.43,0,0,0,2.59-.19,1.88,1.88,0,0,0-1.44-.85c-.19,0-1.76.87-1.15,1Zm-22.8-6.14c.71.31,3.08,1.26,3.08-.21-1,0-2.56.1-3-.67-.07.07-.33.77-.1.88C334.28,100.28,334.17,100.23,334.24,100.27Zm-4.39,2.57a11.65,11.65,0,0,1,2.52.28C332.08,101.75,330.7,102.1,329.85,102.84Zm.73-1c.48,0-.41-.45-.69-.44C329.89,101.88,330.19,101.83,330.58,101.83ZM327.85,100c.79,1.27,5.25.93,5.54-.67-.7-.15-1.6-.62-1.6.66a1.09,1.09,0,0,0-.44,0c.77-1.78-.91-.77-1.48-.78C328.74,99.19,328.46,98.58,327.85,100Zm-.77-.32a.66.66,0,0,1,0-.48c-.81-.12-.4.81,0,.48C327.07,99.65,327,99.76,327.08,99.7Zm-.4,1.73c.25.65.22,1,.94.94A4.92,4.92,0,0,0,326.68,101.43Zm-19.42-5.9a.94.94,0,0,0-1.23-.32c.1.13,1.4.8,1.23.32C307.23,95.46,307.28,95.59,307.26,95.53Zm-8.5,1.88a2.21,2.21,0,0,1,.77,0C299.44,96.4,299.05,97.2,298.76,97.41ZM301.93,96c.15,0,3.6-.81,3.69-.92.85-1.23-1.71-1.11-1.9-1.2.17-.2.24-.21.3-.45C302.51,93.11,301.77,96,301.93,96Zm-2.33-4c-2.54.41-2.19,2,.16,2.22,1.77.18,1.89.23,1.8-.94-.11-1.59,0-.8-1.34-.8a1,1,0,0,0,.18-.47C300.13,92,299.87,92,299.6,92Zm-2.19.16c1,.59,2.44-1,3-1.37a3.12,3.12,0,0,0-4.2.76,7.07,7.07,0,0,0,1.18.61Zm-.29.36c-.49,0-.83-.31-1.34-.2C295.84,94,297.78,92.52,297.12,92.52Zm-1.5-2.62c-1.1,0-.25.51-.33.65C295.07,90.94,296.71,89.9,295.62,89.9Zm-28.48,18.84c-.63-.12-1.69-.95-1.23.72.41,0,1.16-.23,1.23-.72C267.1,108.73,267.13,108.79,267.14,108.74Zm2.82-5.82c-.65-.07-2,1.79-2,2.77.38-.09.63-.35.85.16a.26.26,0,0,0,.14-.32c.83.46.26,1,.71,1.2a6.62,6.62,0,0,0,2.36.18c-.08-1-1.07-1.28-1.13-2.19-.08-1.12.77-1.77,1.39-2.45a9.35,9.35,0,0,1,5-3c.62-.17,3.27-.77,3-1.52-.41-1.1-1.94.13-2.48.31-1.33.47-5.73.6-5.73,2.38a2.15,2.15,0,0,0-.8,0c.68,1.28-1.71,1.23-1.5,2.09.25-.06.32-.16.59-.12-.14.37.22.61-.37.56Zm11,.36a1.73,1.73,0,0,0,1.05-.48C282.3,102.62,280,103.28,280.94,103.28Zm-5.21-12.73c.82,1.36,1.37.07,2.29-.12C277.17,89.9,276.53,90.84,275.73,90.55Zm-1.79,0c0,.47-.3.33-.51.72a3.78,3.78,0,0,0,2,.1C274.86,90.53,274.92,89.92,273.94,90.55ZM273.68,92a1.94,1.94,0,0,1-.58.12c.1.55.43.24.84.16,0-.22,0-.35-.26-.28Zm-2.55-.24c.34.32.39.82.91.08,0,.89,1.06,0,1.2-.08a.73.73,0,0,0,0-.33A4.82,4.82,0,0,0,271.13,91.76Zm-2.09.08a3.07,3.07,0,0,1,2.82-.73c-.22-1.45,1.2.51,1.38-.84a4.61,4.61,0,0,1-.91,0c.12-.2.36-.66.44-.76-.5,0-.83.35-1.1.44a8.5,8.5,0,0,0-1,.32c-.27.18-.36.59-.73.88S269.2,91.24,269,91.84Zm-2.91-1.09c-1.08,0-1.35.42-2.37.2.05.86,1.39.28,2,.28-1.27,1,.87,1.27,1.5.36C268.27,90.11,267.32,90.75,266.13,90.75Zm-20.91,1.37c.23.66,1.56-.23,1.82.52-.36,0-.73,0-1.1,0,.66,2,4.31.22,5.15-.32-.82-1-2-.17-2.7-.41.13-.3.32-.24.26-.6-.87.37-.64,0-1.14,1-.32-.92-2.67-1.13-2.29-.2C245.24,92.19,245.18,92,245.22,92.12Zm-1.47,3c0,.22-1.95.09-2.19,1,.48-.11,1.95-.48,2.15-.2-.3.21-1.89.5-1.91.64s1.39,1,1.69,1.49a5.28,5.28,0,0,0,1.85-3.4,4,4,0,0,1,1,0c-.12,1,.1.29.48.85.28.41-.3.76-.3,1.19,1-.69,1.11.22,1.5.16s1.12-.55,1.53-.65c-.44-.64-.89.1-.89-.84a11.31,11.31,0,0,1-3.42-2.13.63.63,0,0,1-.59,0,3.23,3.23,0,0,0,.27-.64c-1.1-.57-1.13.09-1.64.25.25-.08-.39.67-.46.7.16-.07-.28-1-.35-1a8.34,8.34,0,0,1-1.2.55c.14-.25.2-.52.33-.73-.65.16-3.37.87-1.21,1.21a5.74,5.74,0,0,1,0,1.32c-.4-.22-.35-.6-.84-.72.2.43,1,1.84,1,.57.46,0,.49.8,1.14.56.25-.09.4-.61.64-.64,0,0,1.37-.14,1.44.48C243.75,95.2,243.73,95,243.75,95.17Zm90.3,26c1.83,0,2.14-.86,3.4-.56.7.14-.14.67.58.88,1,.27.7-.86,1.6-.09.08-.54.4-.12.81-.16-.23-1-.58-.12-.22-1.17a5.47,5.47,0,0,1,1.44-1.7c1.18-.72,2.17-.44,2.17,1,1.59-.33,2-2.71,3.5-2.39-1,.91-1.35,2.33-2.47,3.35-1.42,1.28-3.21,2-3.72,3.68a9.77,9.77,0,0,0-.11,4.09c.3,1.54.14,1.79,1.19,1.18s1.21-3.43,3-2.93c-.47-1-.12-2.32.9-1.61a6.32,6.32,0,0,1-.14-2c-.06-.25-.49-.07-.66,0a7.6,7.6,0,0,1,.84-2.17c.61-.61.68-.26,1.44-.45.41-.09.26.31.53.29s.49-.71.8-.73a11.11,11.11,0,0,0,1.16.08c.92-.12.17.61.89.76,0-1.9,4.12-3.08,5.29-3.45s1.17,1,.8-.72c-.33-1.56-1.05-.94-2-1.61-.52-.43,2.17-.32,2.16-.31a1.11,1.11,0,0,0,.66-1.69c.54,0,.62.58.8.6a11.31,11.31,0,0,1,1.38.32c.74.38.56.63,1.5.88,1.29.36.3.25,1,0s.11-.83.44-1.15,2.26.63,1.46-.93c-.29-.55-2.32-.94-2.82-.72.45.34.57,1.14-.18.56-.27-.21.11-1-.24-1.32-.18-.17-.53,0-.69-.18a11.06,11.06,0,0,0-1.33-.93c-.76-.44-1.24-.75-2-1.18-1.65-.88-5.19-1.55-6.24-.36,1.83.82-2.89,1.55-.37-.25-.76-.62-1.4.24-2.16.35a6.56,6.56,0,0,1-3.36-.18,5.65,5.65,0,0,0,0,.92c-1.16-1.41-1.09-3-3.5-2.89a9.18,9.18,0,0,1-2.67.17c-1.18-.27-1.4-.93-2.44-1,.22-.3-.17-.18.36-.48-1.55-1-3.33,1.45-2.66-.52-.77,0-1.55-.47-2.36-.49-1.54,0-1.18.24-2.6.49,0,.69.73.65.73,1.4a8.65,8.65,0,0,0-1.71-.3c.13.21.49.52.36.86-.7-.15-.83-.74-1.49-.87,0,0-1.74,0-1.83,0-1,.27-.79,1.3-1.53,1.3a14.51,14.51,0,0,1-1.46-1.6c-.13-.35.4-1.49,0-2-.63-.81-1.14.07-1.79-.12-1.45-.42-1.9-1.5-1.9.69a5.52,5.52,0,0,1-2.78-.33c-.37-.17-.59-.71-1.05-.84-.88-.25-2.46.21-3.42.21v-.62c-.34.12-.88.49-1.19.16.08,0,1.63-.83.92-1s-1.27,1.17-2.33,1c.15,1-1.45,1-2.31,1,.92-.1,5-2.82,5.08-3.37.39-2.42-3.77-2.21-4.71-1.82.18-.24.32-.3.32-.67a14.37,14.37,0,0,1-1.6-.13,5.76,5.76,0,0,1,.63-.87c-2.12-.18-2.2.62-3.51,1.36a.63.63,0,0,1,.18.43c-1.44-.37-1.56.71-2.77.86-.44,0-1.24-.54-1.9-.45A18.17,18.17,0,0,1,296,99.59a13.49,13.49,0,0,0-1.85.51,7.09,7.09,0,0,0-1.65.83c-.61,1,1.12.32.05,1.18s-3.36-.27-4.55.89c.32.83,2.44,2.18,1.25,2.29-.34,0-.79-.69-1-.76a3.62,3.62,0,0,0-2.44-.17c.33.18.77.14.77.68-2.72-.19.44.5.31,1.45-.44-.75-1.61-.26-2.14-1-.19-.25,0-1.53-.19-2a.29.29,0,0,1-.29.08c0,1.48-.8.89-.95,1.77,0,0,.23,2.46.28,2.55.78,1.4.56.13,1.52.54,1.18.51,1.12,1.19,1.12,2,0,.31.92.47,1.07.49-1.52,1.1-1.22-3.06-3.28-1.21a4.6,4.6,0,0,1-.08,1.37,2.35,2.35,0,0,1-1,.94c-1.11.69-1.09.41-2.5.3.31-.5,1.46-.41,2-1a2.61,2.61,0,0,0,.9-2c-.84.08-1.14-3.59-1.05-4.62h.47c.25-1.34-1.76-1.68-2.63-1-.11.1-1.5,2.56-1.53,2.67.24-.73.25,1.74,0,1.3.19.43.55.32.8.91.17.38,1,.36.8,1-.24,1-1.2-.38-1.24-.4-1.07-.31-1.89-.74-2.91-1.12a21.93,21.93,0,0,0-2.77-1.24c-1.35.22,2.53,1.92-.07,3,0-2.23-4.23,1.63-3.45-.92-1.11.73-2.39.76-3.52,1.59-.19.14-2.62,2.59-2.46.12,1.85.07-.31-1.3-1.35-1.3.46.5.79,3.06.32,3.37.12-.07-1.08-.38-1.42-.3s-1,1-1.53,1a3.09,3.09,0,0,1,.51,1.25c-.75-.43-1.63,0-2.26-.89-1.51.89.76,1,.76,1.53s-1.14.21-1.23.15c-1.13-.58-.56-.44-1.07-1.35s-1.32-1.8-2-2.78c.61.12,7,2.91,6.24-.36-.18-.79-1.92-1.51-2.58-1.79-1.05-.43-2.61-.11-3.07-.43.53-1.23-1.63-.83-2.12-1.33.82,0,.4-.42,0-.66-1.06-.62-.63.15-1.37.15a5,5,0,0,0,.22-.78,2.8,2.8,0,0,0-1,0,8.16,8.16,0,0,0,0,1c-.19-.51-.35-.41-.71-.77-.14.88-.5,1.25-.5.12a1.57,1.57,0,0,1,.53,0v-.52c-.31,0-2.29,1.21-1.57.36-1.53-.17-1.4.75-.59,1.24-.44-.19-1,0-1.49-.2,0,.47.08.59-.22.85a1.26,1.26,0,0,0-1.27-1c.2.8-.49,2-.62.88-.89,1-.06.28-.37,1.32-.75-.33-.58-.1-.8-.92-.31.12-.48.48-1,.72.14.27.12.14.12.4a1.69,1.69,0,0,0-1.46.88c.76-.26,1.88-1,2.69-.6-1.08.28-2.67,2.29-2.88,3.74a2.65,2.65,0,0,0-1.21.75h.59c-.08.79-1.75,1.59-2.26,1.46a1.11,1.11,0,0,0,.07.6c-2,.45-2.23,1.72-2.62,3.3,1.64-.06-.59,1.08.91,1.22,0,.45-.24.52-.19,1,1.61,0,2.21.2,3.29-1.29.71.13,1.24,2.91,1.87,3.69.17.23-.4.62.05.8,1,.45.59-.38,1-.56a19,19,0,0,1,1.9-.79.58.58,0,0,0,0-.41c-.39,0-.5,0-.73-.16.23-.39,1.17-1.69,1.25-1.89.23-.67,1.13-1.25-.22-1.25,0-1.06-.83-2,.18-3.33.5-.65,1.43-.69,1.89-1.36.31-.45.32-1.72,1-2.21.56-.38,1.83.26,1.92,1,.22,1.55-4.36,2.42-2.26,5.11,1.48,1.89,4.07-.4,5.8.69-1,1.08-2.35.61-3.5.77a18,18,0,0,0-2,.68c.16.06.29.15.44.22a2.69,2.69,0,0,0-.91.25c.4,1.15,1.16-.18,1.42,0,.51.27.55.56,1,.89-1.25,1.75-1.17-.3-1.9,0-.88.35-.82,2.45-.84,3-.75,0-1.72-.45-1.09.68-1.13-1.27-1.75.09-3,.21-.42,0-2.22-1.13-2.35.15a2.34,2.34,0,0,1-1.19-.44c.14-1.39,1.94.58,1.76-1.89a4,4,0,0,1-1.32.41,4.35,4.35,0,0,1,.22-.86.47.47,0,0,1-.43,0c.16-1.31-.15-1.55-1.07-.51-.65.72-.17,1.5-.21,2.2-.07,1.81.41.82-.86,1.63a5.5,5.5,0,0,1-2.5.83c.93,1.33-.88,1.19-1.57,1.77-.07.05-.64,1.49-.84,1.56-.69.23-1.11-.46-1.57-.41,1.07,2-1,.61-1.68,1.15s.21.43.45.82a8.51,8.51,0,0,1,1.15,1.62c2.08,4.55-3,1.74-5,2.69.39,1.45-.18,3.16.15,4.57s-.09.49.91,1.2c.64.45,1,0,1.57.85.14-.17.12-.25-.07-.24a9,9,0,0,0,3.18-1.73c.34-.35.51.09.76-.3.16-.24-.31-.64-.29-.66.13-.19.22-1,.48-1.33s1.81-.93,2.07-1.17-.22-.86.34-1.24,1.3.4,1.82.3c.19,0,1.16-1.31,1.68-1.22.71.13,1.42,1.61,2,2.13,1.77,1.51,4.89,3.58.48,3.58,1.18,2.27,3-.09,3.54-1.43h-.62a2,2,0,0,1,0-.43,6.67,6.67,0,0,0,1.32.28,4.45,4.45,0,0,0-2.81-2.25c.11-.75-1-1.7-1.54-1.66.15-2.53,1.63-.28,2.76.62.77.62,1.78,1.05,2.21,1.92.27.55.64,2,.91,2.58-.3-.1-.38-.17-.65-.11.23.68.56,1,1,.47.44,2.48,1.94-.18,2.77-.33-.13-.26-.3-.47-.58-.47a.64.64,0,0,1,0,.47c-.43,0-1.34-1.48-1.2-1.79.44.27.68.43,1.17.19a.25.25,0,0,0-.26-.19c1.65-2.68,2.57,4.27,2.82,4.27s.23-.91.23-1a2.24,2.24,0,0,0,1.65.57c-.52-.08.84-.38.81-.38.53,0,.76.7,1.61.47a5.45,5.45,0,0,1,0-.7c1.6.37,1.73,1,1.14,2.85a4,4,0,0,1-1.45,2c-.63.3-1.22-.4-1.8-.06.91.47,1.55,3.49,2.59,2.32,1.55,1.79,1.93,4.23,2.94,6.1.65,1.18,2,2.1,2.53,3.46.75,1.83-.25,2.93,1.86,3,.94,0,2.06-1,3-1.42s1.59-1,2.45-1.4c1.09-.56,1.75-.32,2.51-1.29.36-.43,1.1-1.54,1.57-1.32,0-1.13,0-1.18.77-1.53-.08-.54-.91-1.15-1.28-1.49-.66-.62,0-1.26-1-.23-.1-.49-.23-1.55-.58-1.85a2,2,0,0,0-.59,1.45c-1.45-.14-3.73-.08-1.05-.61a15.53,15.53,0,0,0-2.2-.88,5.5,5.5,0,0,1-1.38-2c-.27-1.85.54-1.24,1.53-.47a9.7,9.7,0,0,0,3.1,1.87c.25.1.83-.09,1.17,0s.32.72.67.88a10,10,0,0,0,3,.54c1.75.06,2.25-.11,3.65.78.76.47.83,1.07,2,1.31-2,0,.3,1.15.76,1.32.76.27.36-1.13,1.17.12.4.59.09,1.36.19,2a17.66,17.66,0,0,0,1.06,3.52c.28.82.81,3.48,1.53,4s1.51-.38,1.93-1.34a6.67,6.67,0,0,0,.36-2.11,9.18,9.18,0,0,1,0-1.4c.37-1.07.29,0,1-.79,1.37-1.45,3-3.64,4.24-4.4a13.09,13.09,0,0,1,2.66-.77,8.44,8.44,0,0,1,1.35,3.16c1.26,0-.18,1.15.73,1.94.62.53,1.32-.6,1.43-.56,1,.29,1.65,3.12,1.63,4.28,0,.62-.87,1.27-.49,2.34.22.63,1.11,1.22,1.43,2,.38,1,1.17,4.46,2.86,3.57-.58-1.1-.58-3-1.16-3.84-.85-1.12-1.85-1.06-2.08-2.69-.06-.37-.38-2,.17-2.51.89-.8.15-.19,1,.33s.68.43,1.36,1.36c.16.21.71.38.79.51.25.46-.07.85.29,1.54.73-1.13,1.84-1.42,2.41-2.29,1.07-1.61.4-2.95-.47-4.19-1.32-1.9-1.67-4.2,1.39-4.2.19,1-1.13,2-.62,2.53,1.25,1.22,1.52-2.35,1.49-2.33.54-.54,1.72-.58,2.34-.79a5.18,5.18,0,0,0,2-1.16c1.06-.87,3-2.78,3.25-4.35.19-1.15-.37-.44-.47-1.22-.06-.43.32-.34.19-1.11-.17-.92-1.34-2.08-1.32-2.74,0-1.28,1.22-.85,1.64-1.53s.37-.56-.71-1c-.49-.18-.36.62-1,.62.18-1.5-1.61-.45-.82-1.85a10.48,10.48,0,0,0,1.5-.66c1.6-.67,1.13-.88.47,1,.47-.29,1.74-1,2.27-.77,1.12.56.23.75.33,1.77,1.72-.79,1.2,2.21,1,3.12a2.26,2.26,0,0,0,2.6-2.06c0-1.18-1.38-1.31-1.1-3,.06-.33.61-.08.66-.24a10.74,10.74,0,0,1,.3-1.45,3.84,3.84,0,0,1,1.12-1.36c.26-.12,1.23.11,1.72,0a2.72,2.72,0,0,0,1.34-.89,17,17,0,0,0,2.46-3.17c.65-1.07.47-1.93.91-3,1.42-3.66.78,3.56.78,4.57.27-.3.47-.14.71-.73.33.34,0,.61.74.65-.2-1.47-1.62-2.77.36-2.77.05,0-.95-5-1-5.58h-.28c0,1.2-.3,1.11-.3,2.21-.83-.54-.67-1.71-2.19-2.21-.17,1.22-.71.81-1.17,0a1.72,1.72,0,0,1,0,.64c-.64-.1,0-.55-.47-1-1,1.13,0-.58.36-1,.57-.7,1.18-1.17,1.8-2C330.89,121.27,332.07,121.16,334.05,121.16Zm-106.4.75a1.43,1.43,0,0,0-.76.92c.3-.09,1.32-1,.76-.92C227.52,122,227.7,121.91,227.65,121.91Zm.78,9c.73,0,1.29-.57,1.71-.65.65-.11,1.56.23,2.08,0a2,2,0,0,0,1-2.37c-.16-.59-.56.35-.58.32-.24-.28-.2-.74-.4-.92s-.78-1.06-1.21-1.62c-.66-.84-.74-.64-.84-1.32-.06-.45,1.62-2.21-.87-1.4.2-.39.23-.72.62-1-.82-.9-1.18.5-1.49.77-.05,0-1.71.66-.41.91-.11.42-.53,1-.51,1.29.43.06,1,.44,1.09-.08-.1,1.57.65.7,1.18,2,.61,1.46-.64.46-1.28,1.33a5.11,5.11,0,0,0,.72.08c0,.44-1,.62-.65,1,.2.26,1.23-.13,1.57.23C230,129.63,228,130.91,228.43,130.91Zm-.63-4.14c1.62-.26-2.58-2.55-1.6-.4-.77.15-1.81,1.34-.55,1.27-1.64,2.62.65.88,2,1.22C227.75,128.23,227.81,127.55,227.8,126.77Zm39.06,61.16c0-1.55,1-4.73-.66-5.46a4.82,4.82,0,0,1-.94,2.1c-.62.63-1.57.37-2.2,1s.06,2.14,0,2.57c-.11.81-.43.91-.59,1.93-.19,1.32.09,3.27,1.69,2.89s1-.89,1.31-2.41c0-.18.41-1.9.44-1.93C266,188.46,266.86,188.19,266.86,187.93Zm-12.13-38.32c-.69-1.83-1.09-1.13-2.62-1.33a51.57,51.57,0,0,1-6-1.6c0,2.21,0,1.8-1.31,1.82.27,0-1.19-.47-1.05-.4h-1.07a1.91,1.91,0,0,1-.21-.65c-.65-.24-2.6-.59-3-1.18-.75-1.11.84-1.31-.51-2.27.36-.33.32-.38.81-.49-.69-1.29-2.58-.09-3.59-.07s-2.2-.5-3.57.16c-.92.43-1.55,1-2.77,1-1.48,0-2.27-1.15-2.27,1h-1.1c.5,2-.8.69-1.08,1.34-.47,1-.31,2.24-.73,2.9-.26.38-1.22.9-1.61,1.44s-.93,1.5-1.39,2.24-2.3,2.64-2,3.77c.07.32,1.11-.13,1.27.25s-.2.45-.14.63c.28.84-.2,2.22-.26,3.06a3.54,3.54,0,0,0,.88,3.09c1.1,1.27,2.13,2.32,3.36,3.5.42.41.63,1.33,1.53,1.53s1.15-.27,2.11-.4,1.48.29,2.06.27c1.21,0,1.13-.55,2.11-.93a6,6,0,0,1,3,0c.73.36.54.95,1.62,1.22,1.87.46,1.77-.56,1.81,1.61a4.78,4.78,0,0,1-.88,2.89c2.34.81,3.88,6.07,3.5,8.58s-1.75,2.63-.57,5.31a22.12,22.12,0,0,1,1.39,4.49c.42,1.9,1.76,3.19,2.25,4.91.42,1.46-.22,1.93.45,2.73,1.76,2.12,6.43-.39,7.81-2a12.12,12.12,0,0,0,1.74-2.49c.31-.74-.1-1.8.07-2.25s1.32-.59,1.69-1.13c1-1.43-.51-2-.22-3.53.23-1.21,2.26-1.83,2.85-2.41,1.44-1.43,1.52-3,1.17-5.17-.21-1.2-1.23-3-.81-4.47.56-2,2.86-3.88,4.23-5.22a13,13,0,0,0,2.7-3.45c.46-.89.76-1,.88-2.17.18-1.89.46-1.44-1-1.45-2.05,0-2.66.85-4.09-.87-.82-1-2.14-1.94-2.92-3.06a26.32,26.32,0,0,1-2-4.9c-.71-2-1.12-4-2.42-5.79C254.68,149.47,254.82,149.72,254.73,149.61ZM180.5,211.09c-.29-.07-.27-.56-.47-.56.09,0-.66.95-.66.94a9.9,9.9,0,0,0,1.46,1.35.43.43,0,0,0-.08.33c-2.34,0-.47,2.27-.84,3.2a2,2,0,0,1,.59,0,.33.33,0,0,1-.33.38c.38.44.18.18.55.28a17.32,17.32,0,0,0,1.82,2.48c1.4.95,2.72.49,4.06.38-.07-.48-1.74-1-2.09-1.92s-1.08-3.16.26-3c0-.92,1.69-2,1.57-2.63s-1.83-.32-1.24-1.89c.18-.49,1.11-.22,1.31-.49s-.06-.66.19-.95c-.17.2.86-1.76.72-1,.24-1.29-.87,0-.62-1.87,1.71.75,2.05.06,1.79-1.69,1.42,0,3.12.1,3.77-1.41s-.63-1.24-.89-2.64c1.58.22,2.17.83,3.4-.36.57-.57,1-2.84,1.67-2.74-.09.32-.14.35-.07.65,1.88-1,1.35-4,2.38-5.3a4.76,4.76,0,0,1,2.53-1.6c1.5-.48,1.91-.37,2.76-2,1-1.91.58-4.8,1.38-6.34.59-1.11,1.87-1.78,2.21-3.07a2.08,2.08,0,0,0,0-1.59c-.43-1.72-.41-.59-1.39-1.43a4.87,4.87,0,0,0-2.8-1.38c-.71-.16-3.21,0-2.17-.57a4.63,4.63,0,0,0-1.53-.83c-1.28-.27-1,0-1.89.47a11.2,11.2,0,0,0,.47-1.15,7.83,7.83,0,0,1-1.14-.34c-.33-.11-.15.81-.83.72.13-.33,1.46-2.18.21-2.18.22-2.44-1.84-2.56-3.2-2.94-1.11-.3-3.56-1.54-3.56-2.91-.63.24-1.75-.08-.77-.56-.65-.92-2,.37-2.37.36-1.4-.06-2.07-1.34-3.4-1.61,0,.79-.49.6-.91,1.08-.07.07.12,1.15.07,1.33a1.82,1.82,0,0,1,.21-2.64c-1.23-.38-4.68,2.13-4.88,3.84-.12.95.79,1.94.2,3.25a6.68,6.68,0,0,1-2.37,2.49c.12,1.22-.34,1.44.8,1.53-.47.91-1.58,1.45-.94,2.93.15.37.87.45,1.17.91a12.36,12.36,0,0,1,.78,1.65,16.92,16.92,0,0,0,1.4,3.71c.88,1.1,1.92,1.42,3,2.36,1.84,1.59,1.16,5,.86,7.46-.16,1.36-.62,2.65-.77,3.91-.16,1.49,0,3.05-.54,4.45a23.48,23.48,0,0,0-.94,4.22c0-.1,0,1.15,0,.84,0,.27-.5.54-.39.88.51,1.68,1-.84,1.47-.88a15.4,15.4,0,0,0-.66,3.5c-.29-.53-.36-.24-.47-1C180,209.69,180.53,210.79,180.5,211.09Zm1.83-51.84c1.27-.31,3.11-.08,4.38-.56-.57-.77-2.3-.52-3.37-.68-.68-.09-2.07-1-2.19.21a.94.94,0,0,0,1.18,1C182.47,159.22,182.23,159.28,182.33,159.25ZM178.9,159a1.42,1.42,0,0,0-1.53-.56c.38.56,1.09,1.05,1.53.56C178.84,158.91,178.78,159.14,178.9,159Zm1.31-1.79c-.55-1-2.83-1.57-3.8-2-.62-.25-2-.89-2.83-.39s-.65.63.28,1.12c.4.22.63-.47,1-.39.54.09.88.6,1.16.71A9.79,9.79,0,0,0,180.21,157.21Zm35.26-43.57c.67-.12.9-.1,1.09.64a3.59,3.59,0,0,0-1.46,0c0,.16.05.33.07.49,1.49-.27.34.65,1.1,1,.16,0,1.88.25,2,.23,1.32-.06,1.43-.37,2.56-1,.95-.58,1.37.22,1.67-.89.12-.44-.57-.45-.73-.48.32-2-2.15-.22-3.38-.4-.18,0-1.27-.18-1.07-.16-.53,0,0-.9-.52-.16-1.33-.49-1.66.88-1.3.8ZM193,129.7a13.77,13.77,0,0,0-1.86,3.43c.26.48,1.16,0,1.65.18a11.07,11.07,0,0,1,1.67,1c1.14-1.89.07-2.55-1.6-3.14,0,0,1-2,.14-1.44C192.89,129.77,193.07,129.65,193,129.7ZM189,131.47c-.73-.26-1-.6-1.76-.48.67.44,1.1,1.52,1.76.48C188.94,131.44,189,131.53,189,131.47Zm20.6-21.6c.21-.08.43.24.6.3,1.29.45,1.29-.09,2.35-.55s3.28-1,3.61-1.93c-1.27,1.1-4.27-1.46-1.08-1.31-.13,0,1.43,1.8,1.79.23.13-.57-1.17-2-1.58-2.21.22-.22,1.66.93,1.23-.56-.21-.7-.58-.71-1.42-.4.17-.28.33-.26.43-.52a1.9,1.9,0,0,1-.43-.21c.46,0,1.79.71,2.4.25,1.42-1-.87-.67-.87-1.17,0-.12,2.16-.24,2.3-.52-.45-.49-1.64-1.34-.22-1.47,0-1.3-1.74-1.29-1.53-2,.08-.3.94-.42,1.17-.33.93.4.16.48.58,1.41.26-1.67.84-2.07-1-2.07.5-.61,0-.17.87-.62-.52-.86-1.78,0-1.79,0-1.3-1.15,3.3-4.29,3.73-4.89a16.56,16.56,0,0,1-1.73-.09,6.48,6.48,0,0,0,2.9-1c.28-.2,1.75,0,1.09-1.08-.12-.19-1.65-.1-1.79-.09a21,21,0,0,0-2.93.6,31.85,31.85,0,0,1-3.17,1.45c1.32-1.81,2-2.09-.36-2.48,0,1-.68,1-1.61,1.12.16-.86.69-.52,1.24-.8-1.35-1.11-3.84.6-5.32.35.4-1.31,6.48-1.42,7.88-1.6V87.3a14,14,0,0,1-3.1-.44c-1.62-.3-3.2.12-4.78-.06,1.16-.88,3.52-.49,5.18-.49-.18-1.42-7.48-.83-8.43-.5s-.1.73-1.36.89c-.74.09-1.36-.39-2.12-.43a8.2,8.2,0,0,0-2.86.45c.24.51.79.29.79,1-.3-.25-1.61-.86-1.19,0-.1-.22,2.32,1.35,1.63,1.35-1.54,0-2.7-1.36-4.33-1.36,0,.38,1,1,1.15,1.62-1-.3-1.63-1.28-2.68-1.39.27.58.35,2-.51,1.43,0,0,.41-1.16-.17-1.51s-2.87,1.06-3.33.8a5,5,0,0,1,1.74,1c-.7,0-1.28-.53-2-.63-.47-.07-.35-.49-1-.16s-.12.82-.28.92c-.58.36-1.77.51-2.86,1.15-.43.25-1.48.23-1.41,1.05a4.37,4.37,0,0,0,1.53,0c.42,0,0,1.51-.11,1.59s-1.11.14-1.39.22c-.75.21-2.1.12-2.86.62-2.47,1.6,2.1,1.73,3.44,1.73-.26,1.23-3,.32-3,1,0,.35,1.21.72,1.46.78-.2,0-.22,0-.29.17.37.32,1.08,1,1.63.78,0-.08-.28-.32-.16-.41.82-.55,4.35-.13,5.33.56a7,7,0,0,1,2.62,4.9h.35c-1.4,2.75,2,.49,2.91,3-.9,0-1.75-.67-2.59-.29.21.69-.54,1.8.73,1.83,1.11,0,1.47-.84.18-1.06,1.84-.24,1.39.54,1.91,2-.82-.05-1.47.11-1.45,1-1.83-.26.09,2.36.21,2.78,0-.11.54-.27.65,0s-.59.47-.41.65c-.29-.29.33,1.13.26.93a2.38,2.38,0,0,1,.84-.45,4.24,4.24,0,0,0,1.24,4.42c.56.47,3.29,1.63,3.73,1.36.6-.36.44-1.74.69-2.36.15-.37-.37-.49-.17-.93.1-.24.65-.08.82-.44.74-1.49.29-2.91,2.14-3.09-.05-1,0-.27.51-.6C205.7,115.21,209.62,109.88,209.64,109.87ZM169.8,97.45c.78,1.33,4.29.85,5.59.61.35,1,2.42.37,2.34-.89l-.59.28-.18-.59c.83-.17.79-.41.58-1.21,1.05.31,1.93.14,1.2-.92-.11-.16,1.1,0,1.1-.2,0-1.11-1.86-.75-2.33-.29,0-.13-.1-.26-.14-.39,1.19-.92,2.48.35,3.6-.77l-.65-.52a3.09,3.09,0,0,0,2.3,0c-.36-.31-.31-.54-.77-.76,1.73.45,3.76-1.62,5.36-2.09-.51-.56-1.89,0-2.77-.13.72-1,4.71,0,5-1.44.16-1-3.47-1.13-4.34-.88a5.78,5.78,0,0,0-2.6-.89c-.34,1.34-4.26-.62-4,.93-1.1-.45-3.52-.7-4.36.6a2.42,2.42,0,0,1,2.39,1c-.93-.27-2.16-.91-3-1.09a3.17,3.17,0,0,0-1.77.35c-.88.13-2.64.64-3.71.89l0,.37c.9.31,1,.89,2,1.22,1.43.49,1.49-.36,2.73-.54-2.5,1.6,1.37,1,2.05.86,1.4-.38,2.36-1.27,3.83-1.22a2.84,2.84,0,0,0-1.61.8,8.34,8.34,0,0,1,1.5.08c-.74.61-3.09.8-4.16.88v.4c.71.33,1.13.9,2,.89-1.24.37-3.1-1-4.5-1.17.12,1.31,2.24,2.36,3.44,2.3-.27.35-.4.62-.62.91-2.09-2.25-5.21,1.24-1.35.49l-.62.36c.45.81,1.28.54,1.9-.16-.71,2.08-2.81.11-4.09.29C171,96.73,170.53,97.1,169.8,97.45Zm.33-2.61c.21-.27.58-.1.47-.84,2.33.39,1.79-1.19.34-2.19.08.06-4.71-2.59-4.6-1.82.34.08.65-.19.73.28a6.63,6.63,0,0,1-1.43.24c.3.22.39.55.52.68a8,8,0,0,0-1,0,4.78,4.78,0,0,0-.25,1.25c.87,1,2.15.14,3.1,1a15.35,15.35,0,0,0-1.68.45A3.44,3.44,0,0,0,170.13,94.84Zm-1.9,1.37c-.1.19-.21.37-.33.57a1.9,1.9,0,0,0,1.65-.13C169.21,96,168.87,96.08,168.23,96.21Zm.59,4.86c.72-.17,8.78.56,7.59-1.48-.71-1.23-3.89.09-4.86.06-2.05-.05-2.32-2.38-4.15-1.79C168.08,99.14,167.37,100.52,168.82,101.07Zm-5.07.16h.51C164,100.63,164,101.11,163.75,101.23Zm1.12-1c.38.36,2.37,1.37,2.16,0C166.87,99,165.21,99.58,164.87,100.23Zm1.8-1.73c.81-.93-.38-1.59-1.24-1.45C163.65,97.36,165.85,98.51,166.67,98.5Zm-1.5-1.93a7.82,7.82,0,0,0,1.93-.27v-.4C166.29,95.77,165.42,95.7,165.17,96.57Zm.15-1c1.82-.49-1.23-1.4-1.79-1.2C163.78,95.32,164.37,95.9,165.32,95.57Zm-2-3c-.26-.55-.45-.86-1.13-.72v.48A1.52,1.52,0,0,0,163.27,92.56ZM162.8,96c.54-2-3.07-3-4.42-2.41a4.37,4.37,0,0,1,1.17,1.05h-.62C159.47,95.46,161.76,95.57,162.8,96Zm-1.38.08c-.47-.19-.61-.49-1.17-.32C160.46,96.46,160.82,96.23,161.42,96.09Zm-.34,3.5c.75-.41,1.2-.09,1.35.84,1,0,1.71-.42,1.59-1.56s-1.28-.73-2.32-1.17a3.37,3.37,0,0,1,1,1.12,10,10,0,0,0-1.73-.72c.07.34.09.66.19,1-.68-.57-1-1.5-1.93-1.61C159.08,98.71,160.08,99.32,161.08,99.59Zm-2.12.32c.08.06.8,1,.8,0C159.76,99.41,159.06,99.91,159,99.91Zm.26-3a2.32,2.32,0,0,0-1.06-1C158.2,96.66,158.56,97.11,159.22,96.9Zm19,14.41c.52.17,2,0,1.46-.94A.87.87,0,0,0,178.24,111.31Zm-11.79-6.79c.21-.43.57-.27.55-.92,1,.4,1.44-.59,2-1.4-.75-.31-2.33-.88-3-.36S165.12,104.93,166.45,104.52Zm-3.22,1.25c1.69,0,2-1.67.4-2.49,1.23-.43.27-1.26-.43-1.51-.12,0-1.11.55-1.68.43,1,1.18.23,1.93-.91,1.24C160.67,104.25,162.55,105.38,163.23,105.77Zm-4.08-2.53c.3-1.1-1-1.32-1.57-.72C158.15,103.11,158.55,103.51,159.15,103.24Zm-2.42-.92c.07.06.47.57,0,0ZM153.19,95h2.6C155.34,93.94,153.9,94.25,153.19,95Zm.74,1.77c.73,0,1.66-.1,1-.88.31-.16.42,0,.62-.41a3.3,3.3,0,0,0-2.41.48C153.31,96.51,153.56,96.58,153.93,96.78Zm-1.28-.73c-.23-.52-.29-.86-1-.72C151.83,96,152.14,95.92,152.65,96.05Zm-.73,2c-1,.33-2.07,1.51-1.34,2.15s3,0,3.82.06c-.27.36-2,0-1.86.66s1.42.29,1.84.2c.9-.18,4.24-.66,4-2,.09.53-2.2-1.39-2-1.32-1.07-.35-1.47.33-.92,1.4.21.09.54-.05.61.23C156.17,99.84,152.46,98.27,151.92,98.06Zm.22-.76c.23.11.3.53.88.4,0-.13,0-.27,0-.4A1.5,1.5,0,0,1,152.14,97.3ZM149.22,99l-.37.48c.8,0,.65.16,1.07-.68Zm1.17-1a1.67,1.67,0,0,0,1-1.52c-2.21-.59-2.92,1.64-4.93,1.88.94,1.59,2.36.15,3.21-.71C149.91,98.36,150.15,97.86,150.39,98Zm.5,10.48c1.58-.14,1.63.77,2.86,1.13s2.15-.58,3.24-.8c.66-.13,5,.65,3.47-.68.61,0,.8-.35,1.17-.53-1.34-1-1.9-1-2.58-2.42-.25-.55-1.39-3.21-2.32-1.94-.42.59,1.13,2,0,1.88-.58-.06-.54-1.78-1.64-1.85.14.25.24.54.36.8a4.83,4.83,0,0,1-1.16.4,6.61,6.61,0,0,0,.25-.79,2.17,2.17,0,0,0-2,.15c.36-1.5-.93-.78-1.6-.46-1.2.59-1.24.88-1.78,1.91.8.34,1.66-.22,2.4.4a2.9,2.9,0,0,0-1.6.69c.81.48,3.44-.25,3.87.56.15.29-2.89.45-3.36.75Zm6.1,1.57c.66-.19,1.07-.34,1.21-1a5.49,5.49,0,0,0-1.94.81Zm-10.18-4.33c1.29.21,1.82-1.69,2.93-2.32,1.82-1,2.26-1.33-.07-1.86-.59-.13-3.6-.91-4.23-.33-.35.32-.45,2.68-1.22,3.63a2.24,2.24,0,0,1,2,1.44ZM116.4,120.27c-.76-1.1-1.54.14,0,0Zm12.27-.88c.18-1.28,1.73.29,2.53.55,1,.34,2,.09,3,.45,1.78.63,3,2.42,4.79,2.76a4,4,0,0,0,.57,1.13c.09.11.86.49,1,.67.61,1,1,2,1.51,2.81a6.61,6.61,0,0,0,2.64,2.4,3.61,3.61,0,0,1,2,3.2c-1.08-1.47-2.22-3.49-4.08-3.26.87,1.16,2.17,1.56,2.72,3s-.16,2.94-.16,4.18a12.75,12.75,0,0,0,2.48,7.27c.83,1,2.11,1.05,2.87,2.35.62,1,1.14,2.34,1.72,3.4.19.34-.24.51.2,1.22.27.43,1,.81,1.37,1.22a9.23,9.23,0,0,1,1.54,2.42c1.13-1.27-3.28-5.7-3.4-7.51,1.23-.17,2.64,2.92,3.54,4,1.16,1.37,2.21,3.22,3.4,4.71-1.72,1.29,5.12,4.09,6.24,4.27.34.06.72-.4,1.35-.2s1,1.06,1.61,1.43a6.33,6.33,0,0,0,2.51.65c1,.76,1.5,2.27,2,2.82a14.35,14.35,0,0,0,3.57,1.87c-.3-2,1.72-.18,1.8-.85.17-1.34-2.53-.5-3.28-1-1.81-1.34.12-2.83-.8-4.31-.79-1.25-2.81-.26-3.78-.73.86-1,2.15-4.34.29-4.21-1.69.12-.87,1.41-1.9,2.31s-2.5.3-3.25-.42c-1.64-1.59-1.58-6-.59-7.57,1.35-2.19,3.51-.07,5-.59-.36-1.38,1.06-1.17,1.94-1.11-.08,0,2,.43,1.74.23.66.51,1.73,4.29,2.42,4.22s-.64-5.1.48-6.51c.72-.92,2.23-1.14,2.66-2.23.37-.92-.17-1.38-.4-2.53.61.18.29-.37.94.36a13.22,13.22,0,0,1,1.12-2.46c.46-.45,1.65-.54,2.42-.78-1.12-2.33,3.13-4,4.71-3.59a3.08,3.08,0,0,0-1.71.93c-.55,1.24,1,.18,1,.17a4.15,4.15,0,0,0,3.19-2.57c-1.05.54-1.35,1.47-2.63.72-1.7-1-.06-1.92-.45-2.59-1.08-1.83-3.79,1.49-4.92,2.28a5.29,5.29,0,0,1,1.17-1.58l-.84-.24c1.43.35,2.25-1.61,3.47-2a13.4,13.4,0,0,1,2.76,0c1.28-.13,1.15-.29,2.24-.81s2.58-.62,2.1-2-2.17-.42-3.19-.31c.48-.9,1.47-.71,2.22-1.4a4.28,4.28,0,0,1-3.17-2c.79-.53-1.46-3.2-1.86-4.18-.65.79-.65,2.07-1.68,2.33s-.88-.92-2-.59c.71-2.69-1.26-3.61-3.16-4.14-2.15-.62-3.59.58-2.06,3.05h-.51c-.17.41-.06.67-.29,1.13,2,.92,1.56,4.3-.77,4.21.67.79,1.26,3.74-.22,3.88s-1.77-3-1.64-4.12a11.44,11.44,0,0,1-4.11-1.39c-.63-.35-1.38-.61-1.95-.86s-.62.27-1.05,0-.38-1-.6-1.31c-.74-1-1.12-.43-1-2.07a4.91,4.91,0,0,1,1.1-2.24c.48-.52,1.59-.67,1.47-1.43-.08-.49-1.89-.78-2.25-.92,1,.1,2.7,1.07,3-.24,1.11.73,1.63-.1,1.93-1.13a4.92,4.92,0,0,1-2.63-.92c.66,0,4.44,1,2.89-.77,1.68-.14.53,2.82-.22,3.14a1.82,1.82,0,0,0,1.79.89,5.55,5.55,0,0,1,1.13-.53c.33-.06.68.37,1,.33,2.1-.4-2-2-2.37-2.82.94,0,.37,0,.76-.56a1.62,1.62,0,0,0,1.13-2.77c2-.37-.46-1.78-1.16-2.13,1.2-.21,2.48.42,3.76-.09l-.59-.6a10.65,10.65,0,0,1,3.43,2.28c.49.41,1.41,1,1.44,1.83,0,1.1-1.84,1-1,2.44-.7.17-3.18-.43-3.07.92s1.93-.12,2.39-.06c1.47.2,1.58,1.32,2.52,2.16s2.39.71,3.49,1.36c0-1-1.38-1.52-1.9-2.42,1,.52,1.93,1.05,2.84,1.65a10.8,10.8,0,0,0,.4-1.36,24.73,24.73,0,0,1-2.8-3c.67-1.08.92-.33,1.7.12,1.26.73.71,1.14,1.71.84-.07,0,1.23-1.13,1.22-1.12.42-.87.49-.22-.07-1s-6.14-2.49-3.36-3.13c-.28-.09-.55-.16-.84-.24.24-.2.18-.22.51-.37-.43-.19-.59-.55-1.13-.67l.26-.45c-1-.24-1.51-.49-2.44-.76l.5-.36c-1.85,0-2-1.21-3.24-1.65-1-.34-2.89.87-3.31.63-.65-.38.17-.76-.25-1.43-.72-1.14-.62-1-1.79-.76-1.77.36-1.67,1.92-.78,3.21-1.85.26-1.59-2.78-.27-3.49-1.4-.06-2.72.11-3.28,1.75-.76,2.26.76,1.23,1.5,2.43-.54-.15-.86.09-1.35.07.45.71,2.49,1,3.36,1.24-.54.24-.81,4.19-2.23,3.38-.64-.36,0-1.46,0-1.49-.56-.69-1.08-.42-1.27-.54a4.39,4.39,0,0,1-1.74-1.22c-.58-.95-.74-3.57-2.52-2.2s1.8,3.61-.17,3.16c.3.9.92.85,1.61.16,0,1.38-1.66.91-1.17,2.49-.82-.62-.62-.36-.58-1.29-.77-.23-.14,0-.54-.68H165a1.48,1.48,0,0,0-1.32-1.6c-.2.22-.68.8-.87,1,.38.17.68.6,1.06.77-.87,1.74-2.57,1-4,.58-.94-.23-1.05-.64-2-.22-1.34.63-.71.72-.91,2.21-.59-2.34-3.41-1.55-5.11-1.73.14-.09.31-.49.8-.67A15.47,15.47,0,0,0,148,108c-1.24-.26-2.45,1.15-2.92-.51-.36,1.34-.61.49-1.19.46-.18,0-.39-.91-.82-1s-.21.4-.53.47a18.8,18.8,0,0,0-3.15,1.68c.66-1,1.75-.83,2.4-1.68-1.23,0-2.69.74-3.92,1-2.08.48-2.91-.47-5-.73-1.59-.19-3.05-.55-4.7-.7s-2.65-.84-4.46-.6l.19-.44c-1.11-.23-2.61.55-3.6.88-1.35.45-1.44,1.35-2.39,2-1.34.9-2.3-.06-1.22,1.51.68,1,2.15,1.12,2.64,2.4-.77.28-1.6.24-1.64-.72-.88.69-1.86.45-2.59,1.41.94.42.93,1.27,1.74,1.5s2.17-.44,3-.53c.13,2.93-3,.85-3.43,3.45-.11.7,1.36,3.64,2.3,1.92a1.81,1.81,0,0,1,.43,1.92c.93-.2,2,.15,2.42-.47.28,0,.66.09,1,.08-.68,3.36-4.16,2.81-5.8,4.86,2.37.64,6.29-3.33,8.32-4.58-.19-.29-.36-.59-.54-.88,1.24-.45,1.7-2.72,3.14-1.7a1.36,1.36,0,0,0-1.29,1.86,5.33,5.33,0,0,1,2.45-1C128.81,119.74,128.74,119.56,128.67,119.39Zm-3,3.28V122c-.74.59-1.81.75-1.21,1.81A2.76,2.76,0,0,0,125.68,122.67Z" style="fill: rgb(255, 129, 174); transform-origin: 240.36px 152.741px;" id="el8ic8hdhspmo" class="animable"></path><path d="M134.73,153a.5.5,0,0,1-.5-.5V139.83a.5.5,0,0,1,.31-.46l15.5-6.58a.5.5,0,0,1,.39.92l-15.2,6.45v12.35A.5.5,0,0,1,134.73,153Z" style="fill: rgb(38, 50, 56); transform-origin: 142.474px 142.879px;" id="elpb3lhdxql1j" class="animable"></path><path d="M138.49,159.12H119.23a.51.51,0,0,1-.5-.5.5.5,0,0,1,.5-.5h19.26a.5.5,0,0,1,.5.5A.5.5,0,0,1,138.49,159.12Z" style="fill: rgb(38, 50, 56); transform-origin: 128.86px 158.62px;" id="el8ypz2hsqtn3" class="animable"></path><path d="M138.49,163.82H119.23a.51.51,0,0,1-.5-.5.5.5,0,0,1,.5-.5h19.26a.5.5,0,0,1,.5.5A.5.5,0,0,1,138.49,163.82Z" style="fill: rgb(38, 50, 56); transform-origin: 128.86px 163.32px;" id="elhylb4rl6abt" class="animable"></path><path d="M138.49,168.51H119.23a.5.5,0,0,1-.5-.5.51.51,0,0,1,.5-.5h19.26a.5.5,0,0,1,.5.5A.5.5,0,0,1,138.49,168.51Z" style="fill: rgb(38, 50, 56); transform-origin: 128.86px 168.01px;" id="elnxp2y6l5rz" class="animable"></path><path d="M344.69,72.22H325.43a.5.5,0,0,1-.5-.5.51.51,0,0,1,.5-.5h19.26a.5.5,0,0,1,.5.5A.5.5,0,0,1,344.69,72.22Z" style="fill: rgb(38, 50, 56); transform-origin: 335.06px 71.72px;" id="el46xez0hr6vk" class="animable"></path><path d="M344.69,76.92H325.43a.5.5,0,0,1,0-1h19.26a.5.5,0,0,1,0,1Z" style="fill: rgb(38, 50, 56); transform-origin: 335.06px 76.42px;" id="elionzw91ltgk" class="animable"></path><path d="M344.69,81.62H325.43a.51.51,0,0,1-.5-.5.5.5,0,0,1,.5-.5h19.26a.5.5,0,0,1,.5.5A.5.5,0,0,1,344.69,81.62Z" style="fill: rgb(38, 50, 56); transform-origin: 335.06px 81.12px;" id="el2tm8g446y6b" class="animable"></path><path d="M302.42,103.22a.5.5,0,0,1-.5-.5V75a.5.5,0,0,1,.5-.5h18.32a.5.5,0,0,1,0,1H302.92v27.21A.5.5,0,0,1,302.42,103.22Z" style="fill: rgb(38, 50, 56); transform-origin: 311.58px 88.86px;" id="elbi8217hln8c" class="animable"></path><rect x="207.96" y="56.67" width="70.07" height="4.95" style="fill: rgb(38, 50, 56); transform-origin: 242.995px 59.145px;" id="el9ibx77f62pi" class="animable"></rect><path d="M278,62.12H208a.5.5,0,0,1-.5-.5V56.67a.5.5,0,0,1,.5-.5H278a.5.5,0,0,1,.5.5v4.95A.5.5,0,0,1,278,62.12Zm-69.57-1h69.07V57.17H208.46Z" style="fill: rgb(38, 50, 56); transform-origin: 243px 59.145px;" id="elphzcdc8vbzk" class="animable"></path><path d="M294.15,188.93H274.89a.5.5,0,0,1-.5-.5.51.51,0,0,1,.5-.5h19.26a.5.5,0,0,1,.5.5A.5.5,0,0,1,294.15,188.93Z" style="fill: rgb(38, 50, 56); transform-origin: 284.52px 188.43px;" id="elz3hxawf349" class="animable"></path><path d="M294.15,193.63H274.89a.5.5,0,0,1,0-1h19.26a.5.5,0,0,1,0,1Z" style="fill: rgb(38, 50, 56); transform-origin: 284.52px 193.13px;" id="elwafmw8omu1o" class="animable"></path><path d="M294.15,198.33H274.89a.51.51,0,0,1-.5-.5.5.5,0,0,1,.5-.5h19.26a.5.5,0,0,1,.5.5A.5.5,0,0,1,294.15,198.33Z" style="fill: rgb(38, 50, 56); transform-origin: 284.52px 197.83px;" id="ele1db7obz7w8" class="animable"></path><path d="M283.53,184.65a.51.51,0,0,1-.5-.5V140.46a.51.51,0,0,1,.5-.5.5.5,0,0,1,.5.5v43.69A.5.5,0,0,1,283.53,184.65Z" style="fill: rgb(38, 50, 56); transform-origin: 283.53px 162.305px;" id="elpyuwk3jpl1t" class="animable"></path></g><g id="freepik--Text--inject-71" class="animable" style="transform-origin: 144.271px 74.125px;"><path d="M132.31,64.67H113.05a.5.5,0,0,1-.5-.5.51.51,0,0,1,.5-.5h19.26a.5.5,0,0,1,.5.5A.5.5,0,0,1,132.31,64.67Z" style="fill: rgb(38, 50, 56); transform-origin: 122.68px 64.17px;" id="elif2pi7jqdaj" class="animable"></path><path d="M156.87,69.37H113.05a.5.5,0,0,1,0-1h43.82a.5.5,0,0,1,0,1Z" style="fill: rgb(38, 50, 56); transform-origin: 134.96px 68.87px;" id="elmzqeub7ymo" class="animable"></path><path d="M116.52,84.16V83a2.37,2.37,0,0,1-1.85-.79A3.64,3.64,0,0,1,114,80l1.69-.29a5.19,5.19,0,0,0,.13,1,1.31,1.31,0,0,0,.31.6.71.71,0,0,0,.52.19.56.56,0,0,0,.52-.24,1.09,1.09,0,0,0,.13-.55,1.73,1.73,0,0,0-.28-1,4.52,4.52,0,0,0-.77-.84l-1-.87a7.67,7.67,0,0,1-.63-.66,2.63,2.63,0,0,1-.43-.77,2.87,2.87,0,0,1-.17-1,2.36,2.36,0,0,1,.65-1.76,2.61,2.61,0,0,1,1.72-.71V72H117V73.1a2.22,2.22,0,0,1,1.07.29,1.75,1.75,0,0,1,.62.65,3,3,0,0,1,.32.85,7.54,7.54,0,0,1,.12.89l-1.72.26a5.8,5.8,0,0,0-.07-.79,1,1,0,0,0-.22-.53.53.53,0,0,0-.48-.18.59.59,0,0,0-.51.26,1,1,0,0,0-.17.56,1.43,1.43,0,0,0,.26.89,6.08,6.08,0,0,0,.6.65l1,.86a6.74,6.74,0,0,1,.73.78,3.33,3.33,0,0,1,.54.93,3.06,3.06,0,0,1,.2,1.17A2.6,2.6,0,0,1,119,81.8a2.2,2.2,0,0,1-.75.85,2.45,2.45,0,0,1-1.14.38v1.13Z" style="fill: rgb(38, 50, 56); transform-origin: 116.645px 78.08px;" id="elp6koohk6qf" class="animable"></path><path d="M120,82.92v-1.3L122.39,78l.5-.78a4.9,4.9,0,0,0,.38-.76,2.32,2.32,0,0,0,.15-.84,1.18,1.18,0,0,0-.18-.71.61.61,0,0,0-.51-.25.77.77,0,0,0-.56.2,1.07,1.07,0,0,0-.26.52,3.23,3.23,0,0,0-.07.71v.46H120v-.48a4.11,4.11,0,0,1,.27-1.54,2.16,2.16,0,0,1,.85-1.05,2.75,2.75,0,0,1,1.53-.38,2.32,2.32,0,0,1,2.58,2.56,3.24,3.24,0,0,1-.18,1.09,4.78,4.78,0,0,1-.48,1c-.19.3-.4.62-.63,1l-1.87,2.82H125v1.46Z" style="fill: rgb(38, 50, 56); transform-origin: 122.622px 78.0569px;" id="el88rif6b25ln" class="animable"></path><path d="M128.87,83.09a2.66,2.66,0,0,1-1.45-.36,2.2,2.2,0,0,1-.87-1,3.49,3.49,0,0,1-.28-1.46V75.93a3.86,3.86,0,0,1,.27-1.5,2.25,2.25,0,0,1,.85-1,2.77,2.77,0,0,1,1.48-.36,2.7,2.7,0,0,1,1.46.36,2.16,2.16,0,0,1,.84,1,3.68,3.68,0,0,1,.28,1.5v4.35a3.49,3.49,0,0,1-.29,1.46,2.24,2.24,0,0,1-.86,1A2.66,2.66,0,0,1,128.87,83.09Zm0-1.63a.56.56,0,0,0,.47-.2,1.26,1.26,0,0,0,.19-.49,3.37,3.37,0,0,0,.05-.52V76a3.62,3.62,0,0,0-.05-.55,1.15,1.15,0,0,0-.18-.5.55.55,0,0,0-.48-.21.56.56,0,0,0-.49.21,1.16,1.16,0,0,0-.19.5,3.56,3.56,0,0,0,0,.55v4.29a2.46,2.46,0,0,0,0,.52,1.13,1.13,0,0,0,.2.49A.56.56,0,0,0,128.87,81.46Z" style="fill: rgb(38, 50, 56); transform-origin: 128.86px 78.08px;" id="elmijofj8rg9m" class="animable"></path><path d="M132.91,84.58l-.14-.61a1.59,1.59,0,0,0,.56-.33.94.94,0,0,0,.25-.72h-.94V81.17h1.74v1.55A2.17,2.17,0,0,1,134,84,1.52,1.52,0,0,1,132.91,84.58Z" style="fill: rgb(38, 50, 56); transform-origin: 133.51px 82.875px;" id="el8k8twfka0gi" class="animable"></path><path d="M138.11,83.09a2.66,2.66,0,0,1-1.45-.36,2.2,2.2,0,0,1-.87-1,3.49,3.49,0,0,1-.29-1.46V75.93a3.86,3.86,0,0,1,.28-1.5,2.19,2.19,0,0,1,.85-1,2.77,2.77,0,0,1,1.48-.36,2.7,2.7,0,0,1,1.46.36,2.16,2.16,0,0,1,.84,1,3.68,3.68,0,0,1,.28,1.5v4.35a3.49,3.49,0,0,1-.29,1.46,2.24,2.24,0,0,1-.86,1A2.66,2.66,0,0,1,138.11,83.09Zm0-1.63a.56.56,0,0,0,.47-.2,1.26,1.26,0,0,0,.19-.49,3.37,3.37,0,0,0,0-.52V76a3.62,3.62,0,0,0,0-.55,1.15,1.15,0,0,0-.18-.5.55.55,0,0,0-.48-.21.56.56,0,0,0-.49.21,1.16,1.16,0,0,0-.19.5,3.56,3.56,0,0,0,0,.55v4.29a2.46,2.46,0,0,0,.05.52,1.13,1.13,0,0,0,.2.49A.56.56,0,0,0,138.11,81.46Z" style="fill: rgb(38, 50, 56); transform-origin: 138.095px 78.08px;" id="elanc3p97vno" class="animable"></path><path d="M144.62,83.09a2.71,2.71,0,0,1-1.45-.36,2.24,2.24,0,0,1-.86-1,3.49,3.49,0,0,1-.29-1.46V75.93a3.68,3.68,0,0,1,.28-1.5,2.13,2.13,0,0,1,.85-1,2.71,2.71,0,0,1,1.47-.36,2.68,2.68,0,0,1,1.46.36,2.25,2.25,0,0,1,.85,1,3.86,3.86,0,0,1,.27,1.5v4.35a3.49,3.49,0,0,1-.28,1.46,2.26,2.26,0,0,1-.87,1A2.64,2.64,0,0,1,144.62,83.09Zm0-1.63a.54.54,0,0,0,.47-.2,1.12,1.12,0,0,0,.19-.49,2.46,2.46,0,0,0,.05-.52V76a3.56,3.56,0,0,0,0-.55,1.16,1.16,0,0,0-.19-.5.53.53,0,0,0-.48-.21.55.55,0,0,0-.48.21,1,1,0,0,0-.19.5,3.62,3.62,0,0,0,0,.55v4.29a3.37,3.37,0,0,0,0,.52,1,1,0,0,0,.21.49A.56.56,0,0,0,144.62,81.46Z" style="fill: rgb(38, 50, 56); transform-origin: 144.61px 78.0799px;" id="el3f2adeh5efd" class="animable"></path><path d="M151.14,83.09a2.69,2.69,0,0,1-1.45-.36,2.24,2.24,0,0,1-.86-1,3.34,3.34,0,0,1-.29-1.46V75.93a3.86,3.86,0,0,1,.27-1.5,2.25,2.25,0,0,1,.85-1,2.77,2.77,0,0,1,1.48-.36,2.7,2.7,0,0,1,1.46.36,2.16,2.16,0,0,1,.84,1,3.68,3.68,0,0,1,.28,1.5v4.35a3.49,3.49,0,0,1-.29,1.46,2.24,2.24,0,0,1-.86,1A2.66,2.66,0,0,1,151.14,83.09Zm0-1.63a.55.55,0,0,0,.47-.2,1.26,1.26,0,0,0,.19-.49,3.37,3.37,0,0,0,0-.52V76a5.48,5.48,0,0,0,0-.55,1.16,1.16,0,0,0-.19-.5.55.55,0,0,0-.48-.21.57.57,0,0,0-.49.21,1.16,1.16,0,0,0-.19.5,3.56,3.56,0,0,0,0,.55v4.29a3.37,3.37,0,0,0,.05.52,1.13,1.13,0,0,0,.2.49A.58.58,0,0,0,151.14,81.46Z" style="fill: rgb(38, 50, 56); transform-origin: 151.13px 78.08px;" id="el2xl8sse6i6n" class="animable"></path><path d="M155.18,84.58,155,84a1.51,1.51,0,0,0,.56-.33,1,1,0,0,0,.26-.72h-1V81.17h1.74v1.55a2.17,2.17,0,0,1-.37,1.31A1.56,1.56,0,0,1,155.18,84.58Z" style="fill: rgb(38, 50, 56); transform-origin: 155.691px 82.875px;" id="elnbor4l6spl" class="animable"></path><path d="M160.38,83.09a2.69,2.69,0,0,1-1.45-.36,2.26,2.26,0,0,1-.87-1,3.49,3.49,0,0,1-.28-1.46V75.93a3.86,3.86,0,0,1,.27-1.5,2.25,2.25,0,0,1,.85-1,2.77,2.77,0,0,1,1.48-.36,2.7,2.7,0,0,1,1.46.36,2.16,2.16,0,0,1,.84,1,3.68,3.68,0,0,1,.28,1.5v4.35a3.49,3.49,0,0,1-.29,1.46,2.24,2.24,0,0,1-.86,1A2.66,2.66,0,0,1,160.38,83.09Zm0-1.63a.55.55,0,0,0,.47-.2,1.26,1.26,0,0,0,.19-.49,3.37,3.37,0,0,0,.05-.52V76a5.48,5.48,0,0,0,0-.55,1.16,1.16,0,0,0-.19-.5.55.55,0,0,0-.48-.21.57.57,0,0,0-.49.21,1.16,1.16,0,0,0-.19.5,3.56,3.56,0,0,0,0,.55v4.29a3.37,3.37,0,0,0,.05.52,1.13,1.13,0,0,0,.2.49A.58.58,0,0,0,160.38,81.46Z" style="fill: rgb(38, 50, 56); transform-origin: 160.37px 78.08px;" id="eloi6t58e6n4" class="animable"></path><path d="M166.9,83.09a2.72,2.72,0,0,1-1.46-.36,2.24,2.24,0,0,1-.86-1,3.49,3.49,0,0,1-.29-1.46V75.93a3.68,3.68,0,0,1,.28-1.5,2.19,2.19,0,0,1,.85-1,2.75,2.75,0,0,1,1.48-.36,2.66,2.66,0,0,1,1.45.36,2.19,2.19,0,0,1,.85,1,3.86,3.86,0,0,1,.28,1.5v4.35a3.49,3.49,0,0,1-.29,1.46,2.2,2.2,0,0,1-.87,1A2.63,2.63,0,0,1,166.9,83.09Zm0-1.63a.53.53,0,0,0,.46-.2,1.27,1.27,0,0,0,.2-.49,3.28,3.28,0,0,0,0-.52V76a3.56,3.56,0,0,0,0-.55,1.29,1.29,0,0,0-.18-.5.55.55,0,0,0-.48-.21.56.56,0,0,0-.49.21,1.16,1.16,0,0,0-.19.5,3.56,3.56,0,0,0,0,.55v4.29a3.28,3.28,0,0,0,0,.52,1.14,1.14,0,0,0,.21.49A.56.56,0,0,0,166.9,81.46Z" style="fill: rgb(38, 50, 56); transform-origin: 166.885px 78.0798px;" id="el1k69iez25w6" class="animable"></path><path d="M173.41,83.09a2.69,2.69,0,0,1-1.45-.36,2.24,2.24,0,0,1-.86-1,3.34,3.34,0,0,1-.29-1.46V75.93a3.86,3.86,0,0,1,.27-1.5,2.21,2.21,0,0,1,.86-1,3.16,3.16,0,0,1,2.93,0,2.25,2.25,0,0,1,.85,1,3.86,3.86,0,0,1,.27,1.5v4.35a3.34,3.34,0,0,1-.29,1.46,2.24,2.24,0,0,1-.86,1A2.64,2.64,0,0,1,173.41,83.09Zm0-1.63a.55.55,0,0,0,.47-.2,1.12,1.12,0,0,0,.19-.49,3.37,3.37,0,0,0,.05-.52V76a3.56,3.56,0,0,0,0-.55,1.16,1.16,0,0,0-.19-.5.53.53,0,0,0-.48-.21.55.55,0,0,0-.48.21,1.17,1.17,0,0,0-.2.5,5.48,5.48,0,0,0,0,.55v4.29a3.37,3.37,0,0,0,.05.52,1.13,1.13,0,0,0,.2.49A.58.58,0,0,0,173.41,81.46Z" style="fill: rgb(38, 50, 56); transform-origin: 173.4px 78.0811px;" id="elohqfnxv2u6" class="animable"></path></g><g id="freepik--speech-bubble--inject-71" class="animable animator-active" style="transform-origin: 428.065px 78.405px;"><path d="M428.86,45.15A34.47,34.47,0,0,0,405,104.54l-4.9,9.17,12-3.91a34.48,34.48,0,1,0,16.7-64.65Z" style="fill: rgb(38, 50, 56); transform-origin: 428.808px 79.63px;" id="el0wr7lvnoqki" class="animable"></path><path d="M428.86,114.62a34.94,34.94,0,0,1-16.75-4.28l-11.83,3.84a.52.52,0,0,1-.54-.15.5.5,0,0,1-.05-.56l4.72-8.83a35,35,0,1,1,24.45,10Zm-16.7-5.32a.4.4,0,0,1,.24.07,34,34,0,1,0-17.52-29.74,33.67,33.67,0,0,0,10.5,24.55.5.5,0,0,1,.09.6l-4.32,8.07L412,109.33A.4.4,0,0,1,412.16,109.3Z" style="fill: rgb(38, 50, 56); transform-origin: 428.905px 79.64px;" id="elzf9ecmiy40e" class="animable"></path><path d="M427.22,42.69a34.47,34.47,0,0,0-23.83,59.39l-4.91,9.16,12-3.9a34.48,34.48,0,1,0,16.7-64.65Z" style="fill: rgb(255, 255, 255); transform-origin: 427.193px 77.17px;" id="el2wkjmwhf9vu" class="animable"></path><path d="M427.22,112.15a34.93,34.93,0,0,1-16.75-4.27l-11.83,3.84a.51.51,0,0,1-.54-.16A.5.5,0,0,1,398,111l4.73-8.83a35,35,0,1,1,24.45,10Zm-16.7-5.31a.5.5,0,0,1,.24.06,34.08,34.08,0,1,0-7-5.18.5.5,0,0,1,.09.6l-4.32,8.06,10.86-3.52Z" style="fill: rgb(38, 50, 56); transform-origin: 427.225px 77.17px;" id="ellste7c8eypq" class="animable"></path><path d="M419.57,78.66a3.44,3.44,0,1,0-3.44,3.44A3.44,3.44,0,0,0,419.57,78.66Z" style="fill: rgb(38, 50, 56); transform-origin: 416.13px 78.66px;" id="eltc2eazhoedd" class="animable"></path><circle cx="428.12" cy="78.66" r="3.44" style="fill: rgb(38, 50, 56); transform-origin: 428.12px 78.66px;" id="elxo9h4mel9wa" class="animable"></circle><circle cx="440.1" cy="78.66" r="3.44" style="fill: rgb(38, 50, 56); transform-origin: 440.1px 78.66px;" id="elhcq314ehuuo" class="animable"></circle></g><g id="freepik--Character--inject-71" class="animable" style="transform-origin: 353.893px 300.821px;"><path d="M354.5,273.32,351.57,313s3.52,56.67,5.57,68.71-1.17,42,.29,48.44.88,16.44.88,16.44-2.34,3.23-1.46,5a15.7,15.7,0,0,1,1.17,4.4l-3.82,3.82c-1.46,1.47-9.39,7.63-11.15,9.1s-2.06,2.64,2.05,3.82,14.68.88,16.74.29,6.46-3.81,10.57-4.7,7.34-.88,8.22-1.76,0-10.27,0-10.27.88-4.7.58-6.17-3.22-9.39-3.22-9.39,2.34-19.09,1.76-29.95.88-30.82.88-30.82-.31-15.85.28-17.61,4.71,20.83,5.88,24.65,12,63.16,12.63,64.63a11.46,11.46,0,0,1,.58,3.52,3.05,3.05,0,0,0-1.46,2.06,26.4,26.4,0,0,0,0,5,27.44,27.44,0,0,1-2.06,5.58c-1.17,2-8.51,5.87-6.16,8.8s9.1,2.06,17,1.18S422,471.53,422,471.53s1.47-1.47.88-4.7-1.46-3.81-1.46-4.69a60.4,60.4,0,0,0,.29-8.52c-.29-3.52-2.35-6.79-2.94-10s-1.76-8.51-1.46-10.86.88-22,0-27.89-2.94-19.38-3.23-24.66,3.81-61.36,3.81-61.36l-2.78-45.66Z" style="fill: rgb(38, 50, 56); transform-origin: 382.422px 375.901px;" id="elyiou5g1hzyl" class="animable"></path><path d="M397.05,479.05c-3.29,0-5.79-.54-7.13-2.22-1.9-2.38,1.23-5,3.75-7.08a12.57,12.57,0,0,0,2.38-2.28,26.86,26.86,0,0,0,2-5.38,25.57,25.57,0,0,1,0-5,3.55,3.55,0,0,1,1.45-2.23,10.32,10.32,0,0,0-.55-3.07c-.27-.67-2.18-10.75-5.28-27.13-3.15-16.62-6.72-35.47-7.36-37.53-.46-1.5-1.36-5.8-2.31-10.37-.91-4.36-2.08-10-2.81-12.66-.2,3.34-.16,10.73-.06,15.83,0,.24-1.46,20.1-.88,30.8.55,10.34-1.56,28.27-1.75,29.92.37,1,2.92,7.94,3.21,9.35s-.44,5.55-.58,6.29c.27,2.93.79,9.67-.15,10.61-.66.66-2.09.86-4.26,1.18-1.24.18-2.65.38-4.21.71a29.4,29.4,0,0,0-7.17,3.08,19.75,19.75,0,0,1-3.36,1.61c-2.26.65-12.91.88-17-.29-2.31-.66-3.42-1.36-3.62-2.29s.63-1.77,1.38-2.39c.57-.47,1.77-1.43,3.19-2.56,2.93-2.34,6.95-5.54,7.93-6.51l3.64-3.65a14.61,14.61,0,0,0-1.09-4c-.92-1.83.94-4.69,1.42-5.38.07-1.24.47-10.26-.87-16.16-.68-3-.39-10.63-.05-19.48.41-10.52.86-22.45-.25-29-2-11.92-5.55-68.19-5.58-68.76l2.93-39.7a.5.5,0,0,1,.5-.46l60.63-.15h0a.5.5,0,0,1,.5.47l2.78,45.65c0,.63-4.1,56.18-3.82,61.37.28,5,2.18,17.63,3.09,23.7l.14.92c.9,6,.28,25.83,0,28-.23,1.86.51,5.73,1.11,8.84.13.67.25,1.31.36,1.87a23.9,23.9,0,0,0,1.32,4.21,22,22,0,0,1,1.62,5.86,43.53,43.53,0,0,1-.2,7.29c0,.6-.09,1-.09,1.27a2.32,2.32,0,0,0,.3.9,14.15,14.15,0,0,1,1.16,3.7c.62,3.45-1,5.08-1,5.15-.33.26-7,5.42-15,6.3l-.9.1A90.46,90.46,0,0,1,397.05,479.05ZM381,361.69h0c.69,0,1,.64,4,14.83.95,4.54,1.84,8.82,2.29,10.27.65,2.12,4.23,21,7.38,37.64,2.44,12.89,5,26.21,5.23,27a11.48,11.48,0,0,1,.62,3.7.5.5,0,0,1-.27.45,2.53,2.53,0,0,0-1.2,1.7,26.82,26.82,0,0,0,0,4.85.47.47,0,0,1,0,.17,28.16,28.16,0,0,1-2.1,5.7,12.4,12.4,0,0,1-2.61,2.56c-2.68,2.23-4.8,4.2-3.6,5.69,2.08,2.61,8.39,1.9,15.68,1.09l.9-.1c7.69-.85,14.36-6,14.43-6.06s1.22-1.32.69-4.22a12.48,12.48,0,0,0-1.08-3.46,3.11,3.11,0,0,1-.39-1.32c0-.24,0-.72.09-1.35a42.77,42.77,0,0,0,.2-7.12,21.17,21.17,0,0,0-1.56-5.6,26.09,26.09,0,0,1-1.37-4.38c-.1-.56-.22-1.19-.35-1.86-.61-3.18-1.37-7.14-1.12-9.15.27-2.18.89-21.81,0-27.76l-.14-.91c-.91-6.09-2.81-18.74-3.09-23.79-.3-5.26,3.64-59.14,3.81-61.43l-2.75-45.12-59.69.15L352.07,313c0,.5,3.54,56.71,5.56,68.58,1.14,6.65.68,18.63.27,29.2-.32,8.42-.63,16.36,0,19.22,1.47,6.45.92,16.17.89,16.58a.41.41,0,0,1-.09.26c-.6.83-2,3.26-1.43,4.48a16.11,16.11,0,0,1,1.23,4.57.52.52,0,0,1-.14.41l-3.82,3.81c-1,1-4.9,4.11-8,6.59-1.41,1.12-2.61,2.08-3.17,2.55-.76.62-1.1,1.1-1,1.41s.52.85,2.91,1.54c4.1,1.17,14.58.83,16.46.29a20.17,20.17,0,0,0,3.16-1.52,29.5,29.5,0,0,1,7.44-3.18c1.59-.34,3-.55,4.28-.73,1.75-.26,3.27-.47,3.69-.9.42-.6.26-5.6-.14-9.88a.57.57,0,0,1,0-.13c.24-1.28.81-4.85.58-6s-2.19-6.59-3.2-9.32a.45.45,0,0,1,0-.23c0-.19,2.34-19.17,1.76-29.86s.86-30.69.88-30.89c0-1.59-.29-15.94.3-17.73A.59.59,0,0,1,381,361.69Zm-22.68,84.85h0Z" style="fill: rgb(38, 50, 56); transform-origin: 382.441px 375.875px;" id="el1gom426fair" class="animable"></path><path d="M302.86,233.36s-5.62-5.12-6.76-6.1-5.73-.82-5.73-.82-10.47,1.31-11.45,1.14-3.43-1.31-3.6.33a3.43,3.43,0,0,0,2.46,3.43c1.14.17,7.85,1.48,7.85,1.48s-9.33,4.74-9,5.23,8.34,7.69,11,9,14.57.68,14.57.68Z" style="fill: rgb(255, 255, 255); transform-origin: 289.089px 237.156px;" id="elsoxrpqduij" class="animable"></path><path d="M296.12,248.38c-3.44,0-7.33-.17-8.75-.88-2.7-1.35-10.81-8.65-11.16-9.17a.71.71,0,0,1-.07-.45c.06-.22.22-.85,8-4.85-2-.39-5.61-1.08-6.4-1.19a4,4,0,0,1-2.89-4,1.39,1.39,0,0,1,.58-1.06c.75-.51,1.94-.17,2.89.11.27.07.52.15.71.18.67.11,7.29-.65,11.31-1.15.53,0,4.86-.14,6.11.94s6.54,5.9,6.77,6.11a.54.54,0,0,1,.17.39l-.7,14.37a.52.52,0,0,1-.48.48C302,248.24,299.22,248.38,296.12,248.38ZM277.29,238c1.41,1.38,8.22,7.42,10.52,8.57,2,1,10.28.82,13.87.65l.66-13.68c-.95-.87-5.56-5.07-6.57-5.94-.72-.62-3.68-.75-5.38-.69-1.72.21-10.55,1.3-11.55,1.14-.22,0-.51-.12-.83-.21-.63-.18-1.68-.48-2-.24,0,0-.13.08-.15.33a3,3,0,0,0,2,2.89c1.14.16,7.6,1.42,7.87,1.48a.5.5,0,0,1,.4.42.48.48,0,0,1-.27.51A91.35,91.35,0,0,0,277.29,238Z" style="fill: rgb(38, 50, 56); transform-origin: 289.118px 237.147px;" id="elckpyogvwcu5" class="animable"></path><path d="M288.25,237.6a1.68,1.68,0,0,1-.54-.08l-24.37-7.36c-1-.29-3.87-2.07-3.57-3s3.66-.78,4.63-.48L288.78,234a1.84,1.84,0,0,1-.53,3.6Z" style="fill: rgb(255, 255, 255); transform-origin: 274.916px 232.025px;" id="elrcf20q2c9cf" class="animable"></path><path d="M288.25,238.1a2.24,2.24,0,0,1-.68-.1l-24.38-7.36a9.83,9.83,0,0,1-2.41-1.34c-1.2-.9-1.69-1.66-1.49-2.33a1.15,1.15,0,0,1,.61-.68c1.14-.61,3.79-.39,4.65-.13l24.37,7.36a2.34,2.34,0,0,1-.67,4.58Zm-26-11.2c-1,0-1.87.12-2,.37-.07.46,2.08,2.07,3.23,2.41L287.86,237a1.36,1.36,0,0,0,1.67-.89,1.34,1.34,0,0,0-.9-1.67l-24.37-7.36A7.68,7.68,0,0,0,262.24,226.9Z" style="fill: rgb(38, 50, 56); transform-origin: 274.915px 231.999px;" id="el3rn468o356a" class="animable"></path><path d="M273,233.42s-.41,2.75,1,3.44,3.43,0,3.71-1l.27-1Z" style="fill: rgb(255, 255, 255); transform-origin: 275.462px 235.279px;" id="elr76fwwcf649" class="animable"></path><path d="M275.26,237.63a3.41,3.41,0,0,1-1.51-.33c-1.65-.82-1.28-3.63-1.23-4a.5.5,0,0,1,.23-.35.49.49,0,0,1,.41-.06l4.95,1.52a.48.48,0,0,1,.33.61l-.27,1a2.15,2.15,0,0,1-1.29,1.27A4.15,4.15,0,0,1,275.26,237.63Zm-1.8-3.55c0,.81.08,2,.74,2.33a2.84,2.84,0,0,0,2.27,0,1.22,1.22,0,0,0,.74-.62l.14-.49Z" style="fill: rgb(38, 50, 56); transform-origin: 275.457px 235.25px;" id="elo090dy9qef" class="animable"></path><path d="M280.16,235.62s-4.81,3-5,3.57a3.87,3.87,0,0,0,2.07,2.62c.82.13,9.21-3.58,9.34-4.54s-1.65-2.89-3-2.89A9,9,0,0,0,280.16,235.62Z" style="fill: rgb(255, 255, 255); transform-origin: 280.868px 238.097px;" id="ell752avtrhm" class="animable"></path><path d="M277.29,242.31h-.1c-.9-.15-1.78-1.44-1.95-1.69a2.17,2.17,0,0,1-.51-1.54c0-.2.18-.74,5.17-3.87h0a9.41,9.41,0,0,1,3.7-1.31,4,4,0,0,1,2.69,1.51,2.85,2.85,0,0,1,.83,2c0,.29-.27.56-.75.92C284.67,239.5,278.53,242.31,277.29,242.31Zm-1.58-3c.1.48,1.14,1.89,1.65,2,.9,0,8.28-3.33,8.79-4.19a2.42,2.42,0,0,0-.61-1.07,3.06,3.06,0,0,0-1.94-1.17,8.22,8.22,0,0,0-3.18,1.17A40.62,40.62,0,0,0,275.71,239.34Z" style="fill: rgb(38, 50, 56); transform-origin: 280.923px 238.105px;" id="elal7jbfr8e9b" class="animable"></path><path d="M278.51,241.94s1.38,3.16,2.48,3.44,6.87-3.57,7.83-4.54a1.94,1.94,0,0,0-1.11-3.32C285.8,237.27,278.51,241.94,278.51,241.94Z" style="fill: rgb(255, 255, 255); transform-origin: 283.961px 241.452px;" id="el1pe5wk6q1iv" class="animable"></path><path d="M281.07,245.89a.64.64,0,0,1-.2,0c-1.25-.31-2.47-2.92-2.82-3.72a.52.52,0,0,1,.19-.62c.76-.49,7.52-4.76,9.54-4.49a2.32,2.32,0,0,1,2,1.55,2.59,2.59,0,0,1-.59,2.62C288.46,241.91,282.84,245.89,281.07,245.89Zm-1.92-3.76c.61,1.31,1.48,2.64,2,2.77.87.08,6.27-3.32,7.36-4.41a1.62,1.62,0,0,0,.35-1.59,1.3,1.3,0,0,0-1.17-.88C286.43,237.85,282,240.37,279.15,242.13Z" style="fill: rgb(38, 50, 56); transform-origin: 283.964px 241.473px;" id="elebp0fkwzic8" class="animable"></path><path d="M282.36,245.52s2.75,3,3.44,2.75,5.77-4.26,5.77-5.36-2.75-2.07-2.75-2.07Z" style="fill: rgb(255, 255, 255); transform-origin: 286.965px 244.562px;" id="el3mxc9ksn891" class="animable"></path><path d="M285.72,248.79c-.44,0-1.42-.39-3.73-2.94a.49.49,0,0,1,.08-.74l6.46-4.67a.5.5,0,0,1,.46-.07c.72.25,3.08,1.19,3.08,2.54,0,1.5-5.57,5.61-6.09,5.82A.61.61,0,0,1,285.72,248.79Zm-2.61-3.2a9.77,9.77,0,0,0,2.6,2.19c.68-.3,5.23-4,5.36-4.89,0-.39-1.1-1.07-2.17-1.48Z" style="fill: rgb(38, 50, 56); transform-origin: 286.963px 244.566px;" id="elguo2zsw1t95" class="animable"></path><path d="M296.79,240.11c-4.65,0-7-4.62-7-4.82a.5.5,0,0,1,.9-.44s2.12,4.26,6.14,4.26a.5.5,0,0,1,.5.5A.5.5,0,0,1,296.79,240.11Z" style="fill: rgb(38, 50, 56); transform-origin: 293.535px 237.341px;" id="el9zk9m5o7i4" class="animable"></path><path d="M357.16,189.84,345.4,234s-4-2-4.88-.58l-.86,1.44-30.74-1.15-1.44,18.1s31.32,6.32,34.76,7.75,13.51,1.15,13.51,1.15l6-64.92Z" style="fill: rgb(255, 129, 174); transform-origin: 334.615px 225.286px;" id="elloahwooiqhg" class="animable"></path><path d="M353.62,261.22c-3.18,0-9-.16-11.57-1.22-3.36-1.4-34.35-7.66-34.66-7.72a.5.5,0,0,1-.4-.53l1.43-18.1a.48.48,0,0,1,.52-.46l30.44,1.14.71-1.19c.88-1.46,3.68-.45,5,.13l11.6-43.56a.48.48,0,0,1,.39-.36.49.49,0,0,1,.49.18l4.62,5.93a.52.52,0,0,1,.11.36l-6,64.92a.5.5,0,0,1-.48.45C355.65,261.2,354.82,261.22,353.62,261.22ZM308,251.38c3.94.8,31.14,6.34,34.42,7.7,2.9,1.21,10.89,1.16,12.85,1.12l6-64.28-3.88-5L345.89,234.1a.49.49,0,0,1-.28.33.5.5,0,0,1-.43,0c-1.51-.75-3.82-1.44-4.23-.76l-.86,1.44a.52.52,0,0,1-.45.24l-30.26-1.13Z" style="fill: rgb(38, 50, 56); transform-origin: 334.645px 225.28px;" id="elfcizze0ff05" class="animable"></path><path d="M344.41,243.82a.49.49,0,0,1-.44-.26l-4.75-8.48a.5.5,0,0,1,.87-.49l4.75,8.49a.5.5,0,0,1-.19.68A.53.53,0,0,1,344.41,243.82Z" style="fill: rgb(38, 50, 56); transform-origin: 342.036px 239.089px;" id="elr6gdvlzet3s" class="animable"></path><path d="M349.69,241.33a.51.51,0,0,1-.39-.18l-2.79-3.42a.5.5,0,1,1,.77-.63l2.8,3.42a.5.5,0,0,1-.07.7A.5.5,0,0,1,349.69,241.33Z" style="fill: rgb(38, 50, 56); transform-origin: 348.277px 239.103px;" id="elv9mogd3b3y" class="animable"></path><path d="M307.6,249.4h0l-5.73-.16a.56.56,0,0,1-.36-.17.48.48,0,0,1-.12-.36l1-15.38a.5.5,0,0,1,.52-.47l6.07.33a.53.53,0,0,1,.35.17.5.5,0,0,1,.12.37l-1.32,15.21A.5.5,0,0,1,307.6,249.4Zm-5.19-1.15,4.73.14,1.24-14.23-5.06-.27Z" style="fill: rgb(38, 50, 56); transform-origin: 305.42px 241.13px;" id="elhjfony9y8tu" class="animable"></path><path d="M385.3,183.2l-8.31-.83s-22.48,93.36-20.89,93.89S391,278.11,391,278.11l19.82-100.43-6.08-1.32Z" style="fill: rgb(255, 255, 255); transform-origin: 383.42px 227.235px;" id="elogef498lvq" class="animable"></path><path d="M391,278.61h0c-3.42-.13-33.42-1.34-35-1.87-.7-.24-1.42-.48,9.52-47.74,5.36-23.14,11-46.51,11.05-46.75a.49.49,0,0,1,.53-.38l8.2.82,19.32-6.81a.53.53,0,0,1,.28,0l6.08,1.32a.5.5,0,0,1,.38.58L391.48,278.21A.5.5,0,0,1,391,278.61Zm-34.48-2.77c2.61.39,21.31,1.25,34.07,1.75l19.64-99.53-5.46-1.19-19.29,6.8a.53.53,0,0,1-.22,0l-7.87-.78C368.83,218.41,356.49,271.37,356.51,275.84Z" style="fill: rgb(38, 50, 56); transform-origin: 383.511px 227.236px;" id="elx35wsxvtp3p" class="animable"></path><polygon points="380.49 191.21 382.1 199.82 363.88 274.19 370.88 286.97 382.1 274.75 384.5 199.82 389.91 191.01 385.3 183.2 380.49 191.21" style="fill: rgb(156, 156, 156); transform-origin: 376.895px 235.085px;" id="elja6gnwtvhl" class="animable"></polygon><path d="M370.88,287.47h-.06a.52.52,0,0,1-.38-.26l-7-12.78a.5.5,0,0,1-.05-.36l18.19-74.26L380,191.3a.54.54,0,0,1,.06-.35l4.81-8a.51.51,0,0,1,.43-.24h0a.5.5,0,0,1,.43.24l4.61,7.82a.52.52,0,0,1,0,.51L385,200l-2.4,74.79a.52.52,0,0,1-.14.33l-11.21,12.22A.52.52,0,0,1,370.88,287.47Zm-6.47-13.35,6.57,12,10.62-11.57,2.4-74.74a.55.55,0,0,1,.07-.25l5.26-8.56-4-6.82L381,191.31l1.57,8.42a.5.5,0,0,1,0,.21Z" style="fill: rgb(38, 50, 56); transform-origin: 376.892px 235.09px;" id="el1ectovv9afl" class="animable"></path><polygon points="384.64 186.98 390.71 198.42 409.14 176.39 406.09 173.12 384.64 186.98" style="fill: rgb(255, 255, 255); transform-origin: 396.89px 185.77px;" id="eld9zeutlsgfa" class="animable"></polygon><path d="M390.71,198.92h0a.52.52,0,0,1-.39-.26l-6.07-11.45a.49.49,0,0,1,.17-.65l21.45-13.86a.5.5,0,0,1,.64.08l3.05,3.26a.5.5,0,0,1,0,.67l-18.43,22A.46.46,0,0,1,390.71,198.92Zm-5.41-11.77,5.5,10.38,17.67-21.13L406,173.77Z" style="fill: rgb(38, 50, 56); transform-origin: 396.939px 185.77px;" id="elhcc4g1px9iu" class="animable"></path><polygon points="384.64 186.98 377.29 195.42 381.92 181.4 384.64 186.98" style="fill: rgb(255, 255, 255); transform-origin: 380.965px 188.41px;" id="el2s6n32ptgv6" class="animable"></polygon><path d="M377.29,195.92a.45.45,0,0,1-.25-.07.5.5,0,0,1-.23-.59l4.64-14a.48.48,0,0,1,.44-.34.51.51,0,0,1,.48.28l2.72,5.58a.5.5,0,0,1-.07.55l-7.35,8.44A.52.52,0,0,1,377.29,195.92Zm4.72-13.2-3.47,10.5,5.5-6.32Z" style="fill: rgb(38, 50, 56); transform-origin: 380.964px 188.42px;" id="elrricy4nvkts" class="animable"></path><path d="M382.37,180s-8.56,21.75-11.47,38.66-21.14,82.2-22.2,86.69.53,5.82-1.06,4.5-1.32-9-.79-17.45,3.7-28,3.7-28l5.29-46.78s0-26.7,1.32-27.75S382.37,180,382.37,180Z" style="fill: rgb(255, 129, 174); transform-origin: 364.404px 245.168px;" id="elmxmlqhfjib" class="animable"></path><path d="M348.32,310.82c-.26,0-.53-.22-1-.61-1.66-1.38-1.61-7.59-1-17.86.52-8.38,3.67-27.87,3.71-28.06l5.28-46.76c0-8,.14-27,1.5-28.09s22.91-9,25.36-9.93a.5.5,0,0,1,.64.65c-.09.22-8.58,21.9-11.45,38.57-2.22,12.93-13.55,54.68-19,74.74-1.72,6.34-3,10.92-3.21,12a12.2,12.2,0,0,0-.32,4.27c0,.47.07.84-.29,1A.54.54,0,0,1,348.32,310.82Zm.15-1h0Zm33-129c-9.56,3.53-23.15,8.68-24,9.4-.82,1.19-1.13,17.42-1.13,27.36l-5.29,46.83c0,.22-3.18,19.66-3.7,28-.31,4.95-1,15.09.48,16.89a13.9,13.9,0,0,1,.38-4.09c.25-1.07,1.44-5.43,3.22-12,5.44-20,16.76-61.77,19-74.65C372.93,203.88,379.78,185.36,381.51,180.83Z" style="fill: rgb(38, 50, 56); transform-origin: 364.387px 245.149px;" id="el5ts4pdxa35t" class="animable"></path><path d="M369.11,220.78h0a.5.5,0,0,1-.47-.53l1.1-18.88a.55.55,0,0,1,.06-.22l4.64-8-1.92-1.92a.52.52,0,0,1-.1-.58l4.15-8.49a.5.5,0,0,1,.9.44l-4,8.17,1.94,2a.5.5,0,0,1,.08.6l-4.77,8.24-1.09,18.76A.5.5,0,0,1,369.11,220.78Z" style="fill: rgb(38, 50, 56); transform-origin: 373.08px 201.331px;" id="elmrjq6uyvmqn" class="animable"></path><path d="M409.14,176.39s-13.4,24-17.89,38-8.72,40.43-7.93,45.72,11.37,50.22,12.42,51.54a14,14,0,0,0,3.7,2.64s13.77,2.82,22,.44S436.2,306,436.2,306s-12.7-30.57-13.5-36.65-1.05-10.57-1.05-10.57,15.33-70.31,14.53-71.89S409.14,176.39,409.14,176.39Z" style="fill: rgb(255, 129, 174); transform-origin: 409.717px 246.037px;" id="elfn7s90d8z9t" class="animable"></path><path d="M413.1,316.22a77.64,77.64,0,0,1-13.76-1.41l-.12,0a14.55,14.55,0,0,1-3.87-2.78c-1.22-1.53-11.85-47.3-12.52-51.78-.82-5.48,3.48-32,7.94-45.95s17.8-37.88,17.93-38.12a.51.51,0,0,1,.6-.23c6.21,2.12,26.51,9.15,27.33,10.79s-10.86,55.54-14.48,72.16c0,.58.32,4.88,1.05,10.47.77,5.94,13.34,36.21,13.47,36.52a.51.51,0,0,1-.12.55c-.27.26-6.79,6.46-15,8.84A31,31,0,0,1,413.1,316.22Zm-13.49-2.38c1,.21,14,2.67,21.65.44,7.1-2.06,13.08-7.22,14.35-8.37-1.44-3.47-12.65-30.65-13.4-36.46-.79-6-1.06-10.56-1.06-10.6a.33.33,0,0,1,0-.14c6-27.43,14.73-68.86,14.55-71.57-1.23-1.25-16.56-6.8-26.33-10.15-1.7,3.08-13.53,24.71-17.65,37.58-4.43,13.81-8.72,40.1-7.91,45.49s11.2,49.53,12.33,51.32A13.1,13.1,0,0,0,399.61,313.84Z" style="fill: rgb(38, 50, 56); transform-origin: 409.717px 246.078px;" id="elal1dvnolsnr" class="animable"></path><path d="M390.18,225.83a.56.56,0,0,1-.27-.08.5.5,0,0,1-.15-.69L393,220a.5.5,0,1,1,.84.54l-3.27,5.07A.48.48,0,0,1,390.18,225.83Z" style="fill: rgb(38, 50, 56); transform-origin: 391.808px 222.789px;" id="ellf6dzyv35lr" class="animable"></path><path d="M395.69,217.28a.56.56,0,0,1-.27-.08.5.5,0,0,1-.15-.69l13-20.11-3.92-4.55a.52.52,0,0,1-.11-.46.48.48,0,0,1,.32-.34l6.79-2.33,2.78-9a.5.5,0,0,1,.95.29l-2.85,9.23a.51.51,0,0,1-.32.32l-6.32,2.17,3.68,4.27a.5.5,0,0,1,0,.6l-13.15,20.43A.5.5,0,0,1,395.69,217.28Z" style="fill: rgb(38, 50, 56); transform-origin: 405.14px 198.35px;" id="elkgcfsekc19" class="animable"></path><path d="M417.68,207l3.17,36.31s-1.85.26-2.38,1.58l-.53,1.32L400.5,249.4l1.32,18.5,29.87-4.23s8.19,0,11.1-2.12,5.28-7.66,5.28-10.83-2.41-11.29-2.41-11.29l-5.78-41.14s1.85-5-.26-9.51-20.09-7.4-20.09-7.4" style="fill: rgb(255, 129, 174); transform-origin: 424.285px 224.64px;" id="elihbftl74cuh" class="animable"></path><path d="M401.82,268.4a.49.49,0,0,1-.31-.11.52.52,0,0,1-.19-.36L400,249.43a.51.51,0,0,1,.41-.53l17.17-3.12.43-1.06a3.4,3.4,0,0,1,2.3-1.8l-3.13-35.86a.5.5,0,0,1,.46-.54.49.49,0,0,1,.54.45l3.17,36.3a.51.51,0,0,1-.43.54s-1.57.25-2,1.28l-.52,1.32a.52.52,0,0,1-.38.31l-17,3.09,1.25,17.52,29.34-4.16c.15,0,8.13,0,10.87-2s5.08-7.4,5.08-10.43-2.37-11.06-2.39-11.14l-5.79-41.22a.49.49,0,0,1,0-.24c0-.05,1.75-4.89-.24-9.13-1.65-3.49-14.79-6.32-19.72-7.12a.49.49,0,0,1-.41-.57.5.5,0,0,1,.57-.42c.75.12,18.26,3,20.46,7.69,2,4.29.6,9,.32,9.77l5.76,41c.09.27,2.42,8.15,2.42,11.36s-2.45,9-5.49,11.24-11.05,2.21-11.39,2.21l-29.8,4.22Z" style="fill: rgb(38, 50, 56); transform-origin: 424.27px 224.647px;" id="elreqn3xigifi" class="animable"></path><path d="M425.3,214.45a.45.45,0,0,1-.25-.07.5.5,0,0,1-.19-.68c3-5.34,7.18-12.19,9.95-14.47a.5.5,0,1,1,.63.77c-2.06,1.7-5.51,6.74-9.71,14.19A.51.51,0,0,1,425.3,214.45Z" style="fill: rgb(38, 50, 56); transform-origin: 430.23px 206.767px;" id="eloaecbgiffjp" class="animable"></path><path d="M422.17,220.2a.59.59,0,0,1-.22,0,.5.5,0,0,1-.22-.68s.75-1.45,1.92-3.59a.5.5,0,0,1,.68-.2.51.51,0,0,1,.2.68c-1.16,2.12-1.91,3.57-1.91,3.57A.5.5,0,0,1,422.17,220.2Z" style="fill: rgb(38, 50, 56); transform-origin: 423.13px 217.939px;" id="ela6aiul3h5lo" class="animable"></path><path d="M422.7,213.33a.39.39,0,0,1-.18,0,.5.5,0,0,1-.28-.65c1.07-2.67,5.69-8.59,5.88-8.84a.51.51,0,0,1,.71-.09.52.52,0,0,1,.08.71c-.05.06-4.72,6.05-5.74,8.6A.51.51,0,0,1,422.7,213.33Z" style="fill: rgb(38, 50, 56); transform-origin: 425.61px 208.493px;" id="elsm9utfeyhkj" class="animable"></path><path d="M433.8,246.46h-.12l-11.1-2.65a.5.5,0,1,1,.24-1l11.1,2.64a.52.52,0,0,1,.37.61A.5.5,0,0,1,433.8,246.46Z" style="fill: rgb(38, 50, 56); transform-origin: 428.244px 244.628px;" id="el64pjqys38t" class="animable"></path><polygon points="400.5 249.4 395.48 249.93 397.06 266.31 401.56 265.78 400.5 249.4" style="fill: rgb(255, 255, 255); transform-origin: 398.52px 257.855px;" id="elywcdup0at3s" class="animable"></polygon><path d="M397.06,266.81a.51.51,0,0,1-.5-.45L395,250a.49.49,0,0,1,.44-.54l5-.53a.5.5,0,0,1,.55.46l1.05,16.39a.49.49,0,0,1-.44.53l-4.49.53Zm-1-16.44,1.49,15.38,3.52-.41L400,250Z" style="fill: rgb(38, 50, 56); transform-origin: 398.52px 257.884px;" id="eld7u5nn0e3je" class="animable"></path><path d="M395.48,249.92s-12.07-5.09-13.41-5.36a6.12,6.12,0,0,0-3.35.54c-.67.27-4.15,2-5.89,2.14s-2.94.67-2.54,1.61,2.68,1.87,2.68,1.87-2.41,2-2.41,2.54,1.47,3.62,1.87,3.62a5.83,5.83,0,0,1,1.47.53s2.41,4.82,3.08,6,2.81,1.47,3.62,1.47a29.48,29.48,0,0,0,6.69.53c3.34-.26,9.37-2.67,9.37-2.67Z" style="fill: rgb(255, 255, 255); transform-origin: 383.436px 254.972px;" id="ely8nta82ai1n" class="animable"></path><path d="M385.91,266a24,24,0,0,1-4.29-.44,8.34,8.34,0,0,0-1-.15c-1.06,0-3.29-.36-4-1.73-.6-1.09-2.59-5.05-3-5.89a4.77,4.77,0,0,0-1.1-.41c-1,0-2.37-3.74-2.37-4.12,0-.17,0-.67,2-2.41a4.87,4.87,0,0,1-2.21-1.81,1.25,1.25,0,0,1,.05-1.16c.49-.79,1.85-1.06,2.91-1.14a21,21,0,0,0,5.06-1.8l.69-.31a6.56,6.56,0,0,1,3.63-.56c1.34.27,12.26,4.87,13.5,5.39a.49.49,0,0,1,.3.42l1.19,12.84a.5.5,0,0,1-.32.51c-.25.1-6.13,2.44-9.51,2.71C386.84,266,386.37,266,385.91,266Zm-13.33-9.61a6.35,6.35,0,0,1,1.55.58.47.47,0,0,1,.22.22c0,.05,2.41,4.82,3.07,6,.51.92,2.36,1.22,3.17,1.22a8.48,8.48,0,0,1,1.2.16,20.8,20.8,0,0,0,5.46.38c2.78-.23,7.55-2,8.88-2.51L395,250.27c-3.54-1.49-12-5-13-5.22a5.65,5.65,0,0,0-3.06.51l-.64.29a21.42,21.42,0,0,1-5.4,1.89c-1.34.1-2,.42-2.13.66,0,0-.06.1,0,.25a5.68,5.68,0,0,0,2.41,1.61.51.51,0,0,1,.3.39.48.48,0,0,1-.17.45,12.17,12.17,0,0,0-2.24,2.23A13.24,13.24,0,0,0,372.58,256.39Z" style="fill: rgb(38, 50, 56); transform-origin: 383.546px 255.007px;" id="eliwvioqi76xn" class="animable"></path><path d="M373,251.22a.48.48,0,0,1-.41-.23.49.49,0,0,1,.14-.69c.63-.4,6.18-4,8.1-4.22a.5.5,0,1,1,.14,1c-1.44.2-6,3-7.69,4.07A.48.48,0,0,1,373,251.22Z" style="fill: rgb(38, 50, 56); transform-origin: 376.954px 248.648px;" id="el444n7erpdik" class="animable"></path><path d="M373.9,257.91a.45.45,0,0,1-.31-.11.49.49,0,0,1-.08-.7,36.3,36.3,0,0,1,2.77-3.17,20,20,0,0,1,2.09-1.14c.49-.26,1-.52,1.14-.61a.51.51,0,0,1,.7.14.5.5,0,0,1-.14.69c-.18.12-.59.33-1.25.67s-1.66.85-1.94,1.06a35.65,35.65,0,0,0-2.59,3A.5.5,0,0,1,373.9,257.91Z" style="fill: rgb(38, 50, 56); transform-origin: 376.845px 255.004px;" id="el8mmn6o2afk4" class="animable"></path><path d="M375.64,260.59a.49.49,0,0,1-.41-.22.5.5,0,0,1,.14-.7s2.4-1.6,2.92-2,2.9-1.53,3.16-1.66a.51.51,0,0,1,.67.24.5.5,0,0,1-.24.67,31.64,31.64,0,0,0-3,1.55c-.54.41-2.87,2-3,2A.54.54,0,0,1,375.64,260.59Z" style="fill: rgb(38, 50, 56); transform-origin: 378.656px 258.277px;" id="elr8laj8ydo2d" class="animable"></path><path d="M377,263.94a.49.49,0,0,1-.41-.22.5.5,0,0,1,.13-.7,23.1,23.1,0,0,1,5.79-2.88.49.49,0,0,1,.6.37.5.5,0,0,1-.37.6,22.52,22.52,0,0,0-5.46,2.74A.47.47,0,0,1,377,263.94Z" style="fill: rgb(38, 50, 56); transform-origin: 379.812px 262.032px;" id="elrd1awjtlj3" class="animable"></path><path d="M375.34,135.53S370,144.64,370.4,146a49.35,49.35,0,0,1,.76,5.32s-6.27,6.45-5.51,7.78,4.56,3,4.56,3,0,6.64.76,8.73-.38,6.46,2.28,6.84a33.09,33.09,0,0,0,6.45,0l4.94,9.3,21.45-13.86-1.52-8.54s2.47-.19,3-1.52,3.42-4.37,3.61-5.32,5.12-8.35,4.56-12.72-6.65-16.33-9.5-18.6-20.31-4-24.68-3-9.87,7.21-9.87,8.16S375.34,135.53,375.34,135.53Z" style="fill: rgb(255, 255, 255); transform-origin: 390.685px 155.045px;" id="elwx0ijufibal" class="animable"></path><path d="M384.64,187.48l-.13,0a.46.46,0,0,1-.31-.25l-4.78-9a31.48,31.48,0,0,1-6.24,0c-2.18-.31-2.29-2.73-2.37-4.68a9.1,9.1,0,0,0-.31-2.48c-.69-1.9-.78-7.21-.79-8.58-1-.46-3.78-1.86-4.49-3.11-.81-1.41,3-5.68,5.42-8.21a45.61,45.61,0,0,0-.72-5c-.38-1.33,3.05-7.5,4.77-10.47-1.24-1.08-3.46-3.12-3.46-4.1,0-1.33,5.87-7.7,10.26-8.65s22,.64,25.1,3.13c2.94,2.35,9.09,14.38,9.68,18.94.45,3.44-2.28,8.52-3.74,11.25a14.78,14.78,0,0,0-.82,1.63,10.15,10.15,0,0,1-1.86,2.86,17.14,17.14,0,0,0-1.78,2.55c-.5,1.19-2.06,1.61-2.91,1.75l1.43,8a.52.52,0,0,1-.23.51L384.91,187.4A.53.53,0,0,1,384.64,187.48Zm-4.94-10.3a.49.49,0,0,1,.44.26l4.69,8.82,20.71-13.38-1.46-8.22a.5.5,0,0,1,.1-.39.48.48,0,0,1,.35-.19c.61-.05,2.25-.36,2.62-1.22a17.26,17.26,0,0,1,1.91-2.78,13.43,13.43,0,0,0,1.67-2.44,10.56,10.56,0,0,1,.91-1.9c1.42-2.63,4.05-7.53,3.64-10.65-.56-4.3-6.57-16.09-9.31-18.28s-19.87-3.9-24.26-2.94c-4.22.91-9.32,6.89-9.48,7.7.06.45,1.82,2.22,3.43,3.58a.5.5,0,0,1,.11.63c-2.46,4.22-5,9.26-4.89,10.06a48.86,48.86,0,0,1,.78,5.4.5.5,0,0,1-.14.39c-3.14,3.24-5.62,6.53-5.43,7.2.49.86,2.91,2.19,4.33,2.82a.51.51,0,0,1,.29.46c0,.06,0,6.58.73,8.56a10,10,0,0,1,.37,2.78c.09,2.14.25,3.55,1.51,3.73a32.91,32.91,0,0,0,6.33,0Z" style="fill: rgb(38, 50, 56); transform-origin: 390.714px 155.076px;" id="el18rsgwrjpngj" class="animable"></path><path d="M406.28,126.42c-2.85-2.28-20.31-4-24.68-3s-9.87,7.21-9.87,8.16,3.61,4,3.61,4,7.59.57,8.92.19,7.59-3.8,6.83-2.28-6.45,5.7-6.26,6.64,1.52,4.56,2.66,5.7a42.44,42.44,0,0,0,4.74,3.42s.38,4.55,1.52,4.55,2.09-3,2.09-3,2.85-3.42,4.75.19,2.46,8.35.38,9.87a10,10,0,0,1-5.13,1.52s2.85,2.28,4.56,2.66a10.09,10.09,0,0,0,4.17-.38s2.47-.19,3-1.52,3.42-4.37,3.61-5.32,5.12-8.35,4.56-12.72S409.13,128.69,406.28,126.42Z" style="fill: rgb(38, 50, 56); transform-origin: 393.757px 144.12px;" id="elfw2z57uu8sv" class="animable"></path><path d="M401.49,165.56a5.26,5.26,0,0,1-1.2-.12c-1.8-.4-4.64-2.66-4.76-2.75a.5.5,0,0,1,.31-.89,9.51,9.51,0,0,0,4.83-1.42c1.67-1.22,1.42-5.53-.53-9.24-.44-.85-1-1.32-1.56-1.38a3.26,3.26,0,0,0-2.29,1.21c-.29.89-1.2,3.28-2.54,3.28s-1.82-2.87-2-4.76a38.38,38.38,0,0,1-4.63-3.36c-1.27-1.27-2.6-5-2.79-5.95-.15-.72.78-1.63,3.26-3.88a30.94,30.94,0,0,0,2.73-2.63c-.92.29-2.57,1.06-3.57,1.51a24.29,24.29,0,0,1-2.36,1c-1.38.39-8.31-.11-9.1-.17a.5.5,0,0,1-.29-.12c-1.13-1-3.78-3.3-3.78-4.37,0-1.33,5.87-7.7,10.26-8.65s22,.64,25.1,3.13c2.94,2.35,9.09,14.38,9.68,18.94.45,3.44-2.28,8.52-3.74,11.25a14.78,14.78,0,0,0-.82,1.63,10.15,10.15,0,0,1-1.86,2.86,17.14,17.14,0,0,0-1.78,2.55c-.64,1.49-2.94,1.78-3.4,1.82A12.4,12.4,0,0,1,401.49,165.56Zm-4.29-2.87a11.8,11.8,0,0,0,3.31,1.78,9.76,9.76,0,0,0,3.92-.37l.1,0c.61-.05,2.25-.36,2.62-1.22a17.26,17.26,0,0,1,1.91-2.78,13.43,13.43,0,0,0,1.67-2.44,10.56,10.56,0,0,1,.91-1.9c1.42-2.63,4.05-7.53,3.64-10.65-.56-4.3-6.57-16.09-9.31-18.28h0c-2.63-2.11-19.87-3.9-24.26-2.94-4.22.91-9.32,6.89-9.48,7.7.06.44,1.73,2.13,3.31,3.47,3,.22,7.68.45,8.58.2.38-.11,1.27-.52,2.22-1,3.53-1.63,4.63-2,5.14-1.51a.73.73,0,0,1,.06.89,17.83,17.83,0,0,1-3.27,3.39c-1.13,1-2.85,2.57-2.95,3,.18.81,1.47,4.32,2.52,5.37a44.18,44.18,0,0,0,4.66,3.35.48.48,0,0,1,.23.38c.17,2,.66,3.93,1,4.1.41,0,1.18-1.42,1.58-2.69a.37.37,0,0,1,.1-.17c.06-.08,1.53-1.82,3.23-1.63a3.08,3.08,0,0,1,2.34,1.9c2,3.72,2.6,8.79.23,10.51A9.43,9.43,0,0,1,397.2,162.69Z" style="fill: rgb(38, 50, 56); transform-origin: 393.765px 144.076px;" id="el8fuolqypj9l" class="animable"></path><path d="M376.29,151.67c0,1.15-.56,2.08-1.24,2.08s-1.23-.93-1.23-2.08.55-2.09,1.23-2.09S376.29,150.51,376.29,151.67Z" style="fill: rgb(38, 50, 56); transform-origin: 375.055px 151.665px;" id="elc9d5krj9q0o" class="animable"></path><path d="M371.92,167.54a.5.5,0,0,1-.5-.5.5.5,0,0,1,.5-.5s3.67,0,5.8-1.43a.5.5,0,1,1,.55.83C375.89,167.53,372.08,167.54,371.92,167.54Z" style="fill: rgb(38, 50, 56); transform-origin: 374.977px 166.27px;" id="els75tf28hxm" class="animable"></path><path d="M378.18,147.8a.49.49,0,0,1-.32-.12c-2.15-1.82-5,0-5.1,0a.5.5,0,1,1-.54-.84c.14-.09,3.57-2.26,6.29,0a.5.5,0,0,1,.06.7A.5.5,0,0,1,378.18,147.8Z" style="fill: rgb(38, 50, 56); transform-origin: 375.327px 146.808px;" id="elowtb4v23n8l" class="animable"></path><polygon points="379.7 177.68 386.73 176.35 382.36 182.42 379.7 177.68" style="fill: rgb(38, 50, 56); transform-origin: 383.215px 179.385px;" id="el8hz3pga5tsb" class="animable"></polygon><path d="M382.36,182.92h0a.51.51,0,0,1-.41-.25l-2.65-4.75a.5.5,0,0,1,0-.46.48.48,0,0,1,.36-.27l7-1.33a.5.5,0,0,1,.5.78l-4.36,6.07A.49.49,0,0,1,382.36,182.92ZM380.48,178l1.93,3.45,3.18-4.42Z" style="fill: rgb(38, 50, 56); transform-origin: 383.248px 179.386px;" id="elgna9l6l91l4" class="animable"></path></g><defs>     <filter id="active" height="200%">         <feMorphology in="SourceAlpha" result="DILATED" operator="dilate" radius="2"></feMorphology>                <feFlood flood-color="#32DFEC" flood-opacity="1" result="PINK"></feFlood>        <feComposite in="PINK" in2="DILATED" operator="in" result="OUTLINE"></feComposite>        <feMerge>            <feMergeNode in="OUTLINE"></feMergeNode>            <feMergeNode in="SourceGraphic"></feMergeNode>        </feMerge>    </filter>    <filter id="hover" height="200%">        <feMorphology in="SourceAlpha" result="DILATED" operator="dilate" radius="2"></feMorphology>                <feFlood flood-color="#ff0000" flood-opacity="0.5" result="PINK"></feFlood>        <feComposite in="PINK" in2="DILATED" operator="in" result="OUTLINE"></feComposite>        <feMerge>            <feMergeNode in="OUTLINE"></feMergeNode>            <feMergeNode in="SourceGraphic"></feMergeNode>        </feMerge>            <feColorMatrix type="matrix" values="0   0   0   0   0                0   1   0   0   0                0   0   0   0   0                0   0   0   1   0 "></feColorMatrix>    </filter></defs></svg>